NotoSansCherokee-Light.ufo
<glyph name="gravecomb" format="2">
  <unicode hex="0300"/>
  <anchor x="-362" y="528" name="_top"/>
  <anchor x="-362" y="766" name="top"/>
  <outline>
    <contour>
      <point x="-416" y="766" type="curve"/>
      <point x="-446" y="766" type="line"/>
      <point x="-446" y="759" type="line"/>
      <point x="-411" y="714"/>
      <point x="-351" y="650"/>
      <point x="-298" y="606" type="curve"/>
      <point x="-277" y="606" type="line"/>
      <point x="-277" y="612" type="line"/>
      <point x="-322" y="652"/>
      <point x="-387" y="723"/>
    </contour>
  </outline>
</glyph>
<glyph name="acutecomb" format="2">
  <unicode hex="0301"/>
  <anchor x="-166" y="528" name="_top"/>
  <anchor x="-166" y="766" name="top"/>
  <outline>
    <contour>
      <point x="-81" y="766" type="line"/>
      <point x="-111" y="766" type="line"/>
      <point x="-140" y="723"/>
      <point x="-205" y="652"/>
      <point x="-250" y="612" type="curve"/>
      <point x="-250" y="606" type="line"/>
      <point x="-229" y="606" type="line"/>
      <point x="-176" y="650"/>
      <point x="-116" y="714"/>
      <point x="-81" y="759" type="curve"/>
    </contour>
  </outline>
</glyph>
<glyph name="circumflexcomb" format="2">
  <unicode hex="0302"/>
  <anchor x="-14" y="528" name="_top"/>
  <anchor x="-14" y="763" name="top"/>
  <outline>
    <contour>
      <point x="-2" y="763" type="curve"/>
      <point x="-24" y="763" type="line"/>
      <point x="-48" y="722"/>
      <point x="-103" y="653"/>
      <point x="-140" y="612" type="curve"/>
      <point x="-140" y="606" type="line"/>
      <point x="-119" y="606" type="line"/>
      <point x="-82" y="643"/>
      <point x="-41" y="693"/>
      <point x="-13" y="731" type="curve"/>
      <point x="15" y="693"/>
      <point x="54" y="643"/>
      <point x="91" y="606" type="curve"/>
      <point x="112" y="606" type="line"/>
      <point x="112" y="612" type="line"/>
      <point x="75" y="653"/>
      <point x="22" y="722"/>
    </contour>
  </outline>
</glyph>
<glyph name="macroncomb" format="2">
  <unicode hex="0304"/>
  <anchor x="-2" y="528" name="_top"/>
  <anchor x="-2" y="638" name="top"/>
  <outline>
    <contour>
      <point x="126" y="638" type="line"/>
      <point x="-129" y="638" type="line"/>
      <point x="-129" y="614" type="line"/>
      <point x="126" y="614" type="line"/>
    </contour>
  </outline>
</glyph>
<glyph name="hungarumlautcomb" format="2">
  <unicode hex="030B"/>
  <anchor x="58" y="528" name="_top"/>
  <anchor x="58" y="766" name="top"/>
  <outline>
    <contour>
      <point x="207" y="766" type="line"/>
      <point x="177" y="766" type="line"/>
      <point x="154" y="721"/>
      <point x="104" y="651"/>
      <point x="68" y="612" type="curve"/>
      <point x="68" y="606" type="line"/>
      <point x="89" y="606" type="line"/>
      <point x="131" y="650"/>
      <point x="178" y="712"/>
      <point x="207" y="759" type="curve"/>
    </contour>
    <contour>
      <point x="47" y="766" type="line"/>
      <point x="17" y="766" type="line"/>
      <point x="-6" y="721"/>
      <point x="-56" y="651"/>
      <point x="-92" y="612" type="curve"/>
      <point x="-92" y="606" type="line"/>
      <point x="-71" y="606" type="line"/>
      <point x="-29" y="650"/>
      <point x="18" y="712"/>
      <point x="47" y="759" type="curve"/>
    </contour>
  </outline>
</glyph>
<glyph name="caroncomb" format="2">
  <unicode hex="030C"/>
  <anchor x="-1" y="528" name="_top"/>
  <anchor x="-1" y="763" name="top"/>
  <outline>
    <contour>
      <point x="125" y="763" type="line"/>
      <point x="104" y="763" type="line"/>
      <point x="67" y="726"/>
      <point x="26" y="676"/>
      <point x="-2" y="638" type="curve"/>
      <point x="-30" y="676"/>
      <point x="-69" y="726"/>
      <point x="-106" y="763" type="curve"/>
      <point x="-127" y="763" type="line"/>
      <point x="-127" y="757" type="line"/>
      <point x="-90" y="716"/>
      <point x="-37" y="647"/>
      <point x="-13" y="606" type="curve"/>
      <point x="9" y="606" type="line"/>
      <point x="33" y="647"/>
      <point x="88" y="716"/>
      <point x="125" y="757" type="curve"/>
    </contour>
  </outline>
</glyph>
<glyph name="dotbelowcomb" format="2">
  <unicode hex="0323"/>
  <anchor x="-287" y="0" name="_bottom"/>
  <anchor x="-287" y="-135" name="bottom"/>
  <outline>
    <contour>
      <point x="-313" y="-104" type="curve" smooth="yes"/>
      <point x="-313" y="-121"/>
      <point x="-308" y="-135"/>
      <point x="-288" y="-135" type="curve" smooth="yes"/>
      <point x="-264" y="-135"/>
      <point x="-261" y="-121"/>
      <point x="-261" y="-104" type="curve" smooth="yes"/>
      <point x="-261" y="-88"/>
      <point x="-264" y="-73"/>
      <point x="-288" y="-73" type="curve" smooth="yes"/>
      <point x="-308" y="-73"/>
      <point x="-313" y="-88"/>
    </contour>
  </outline>
</glyph>
<glyph name="dieresisbelowcomb" format="2">
  <unicode hex="0324"/>
  <anchor x="-1" y="528" name="_top"/>
  <anchor x="-1" y="709" name="top"/>
  <outline>
    <contour>
      <point x="-117" y="678" type="curve" smooth="yes"/>
      <point x="-117" y="661"/>
      <point x="-112" y="647"/>
      <point x="-94" y="647" type="curve" smooth="yes"/>
      <point x="-72" y="647"/>
      <point x="-69" y="661"/>
      <point x="-69" y="678" type="curve" smooth="yes"/>
      <point x="-69" y="694"/>
      <point x="-72" y="709"/>
      <point x="-94" y="709" type="curve" smooth="yes"/>
      <point x="-112" y="709"/>
      <point x="-117" y="694"/>
    </contour>
    <contour>
      <point x="68" y="678" type="curve" smooth="yes"/>
      <point x="68" y="661"/>
      <point x="73" y="647"/>
      <point x="91" y="647" type="curve" smooth="yes"/>
      <point x="113" y="647"/>
      <point x="116" y="661"/>
      <point x="116" y="678" type="curve" smooth="yes"/>
      <point x="116" y="694"/>
      <point x="113" y="709"/>
      <point x="91" y="709" type="curve" smooth="yes"/>
      <point x="73" y="709"/>
      <point x="68" y="694"/>
    </contour>
  </outline>
</glyph>
<glyph name="tildebelowcomb" format="2">
  <unicode hex="0330"/>
  <anchor x="-24" y="0" name="_bottom"/>
  <anchor x="-24" y="-173" name="bottom"/>
  <outline>
    <contour>
      <point x="139" y="-74" type="curve"/>
      <point x="114" y="-74" type="line"/>
      <point x="108" y="-135"/>
      <point x="78" y="-149"/>
      <point x="49" y="-149" type="curve" smooth="yes"/>
      <point x="-5" y="-149"/>
      <point x="-31" y="-74"/>
      <point x="-97" y="-74" type="curve" smooth="yes"/>
      <point x="-148" y="-74"/>
      <point x="-181" y="-106"/>
      <point x="-186" y="-172" type="curve"/>
      <point x="-161" y="-172" type="line"/>
      <point x="-155" y="-112"/>
      <point x="-126" y="-98"/>
      <point x="-99" y="-98" type="curve" smooth="yes"/>
      <point x="-41" y="-98"/>
      <point x="-20" y="-173"/>
      <point x="48" y="-173" type="curve" smooth="yes"/>
      <point x="98" y="-173"/>
      <point x="134" y="-139"/>
    </contour>
  </outline>
</glyph>
<glyph name="macronbelowcomb" format="2">
  <unicode hex="0331"/>
  <anchor x="1" y="0" name="_bottom"/>
  <anchor x="1" y="-126" name="bottom"/>
  <outline>
    <contour>
      <point x="128" y="-102" type="line"/>
      <point x="-127" y="-102" type="line"/>
      <point x="-127" y="-126" type="line"/>
      <point x="128" y="-126" type="line"/>
    </contour>
  </outline>
</glyph>
<glyph name="uni13A0" format="2">
  <advance width="757"/>
  <unicode hex="13A0"/>
  <note>
uni13A0
</note>
  <anchor x="379" y="0" name="bottom"/>
  <anchor x="379" y="714" name="top"/>
  <outline>
    <contour>
      <point x="80" y="0" type="line"/>
      <point x="311" y="0" type="line" smooth="yes"/>
      <point x="561" y="0"/>
      <point x="682" y="125"/>
      <point x="682" y="364" type="curve" smooth="yes"/>
      <point x="682" y="591"/>
      <point x="570" y="714"/>
      <point x="334" y="714" type="curve" smooth="yes"/>
      <point x="80" y="714" type="line"/>
      <point x="80" y="696" type="line"/>
      <point x="157" y="692" type="line"/>
      <point x="157" y="22" type="line"/>
      <point x="80" y="18" type="line"/>
    </contour>
    <contour>
      <point x="183" y="22" type="line"/>
      <point x="183" y="692" type="line"/>
      <point x="324" y="692" type="line" smooth="yes"/>
      <point x="556" y="692"/>
      <point x="655" y="577"/>
      <point x="655" y="363" type="curve" smooth="yes"/>
      <point x="655" y="134"/>
      <point x="543" y="22"/>
      <point x="314" y="22" type="curve" smooth="yes"/>
    </contour>
  </outline>
</glyph>
<glyph name="uni13A1" format="2">
  <advance width="692"/>
  <unicode hex="13A1"/>
  <note>
uni13A1
</note>
  <anchor x="346" y="0" name="bottom"/>
  <anchor x="346" y="714" name="top"/>
  <outline>
    <contour>
      <point x="613" y="-6" type="curve" smooth="yes"/>
      <point x="633" y="-6"/>
      <point x="643" y="-3"/>
      <point x="652" y="0" type="curve"/>
      <point x="650" y="21" type="line"/>
      <point x="642" y="19"/>
      <point x="629" y="17"/>
      <point x="616" y="17" type="curve" smooth="yes"/>
      <point x="571" y="17"/>
      <point x="548" y="47"/>
      <point x="536" y="126" type="curve" smooth="yes"/>
      <point x="527" y="183" type="line" smooth="yes"/>
      <point x="508" y="303"/>
      <point x="459" y="330"/>
      <point x="419" y="344" type="curve"/>
      <point x="419" y="346" type="line"/>
      <point x="515" y="362"/>
      <point x="570" y="431"/>
      <point x="570" y="531" type="curve" smooth="yes"/>
      <point x="570" y="652"/>
      <point x="509" y="714"/>
      <point x="331" y="714" type="curve" smooth="yes"/>
      <point x="80" y="714" type="line"/>
      <point x="80" y="696" type="line"/>
      <point x="157" y="692" type="line"/>
      <point x="157" y="22" type="line"/>
      <point x="80" y="18" type="line"/>
      <point x="80" y="0" type="line"/>
      <point x="261" y="0" type="line"/>
      <point x="261" y="18" type="line"/>
      <point x="183" y="22" type="line"/>
      <point x="183" y="335" type="line"/>
      <point x="382" y="335" type="line"/>
      <point x="435" y="322"/>
      <point x="483" y="294"/>
      <point x="501" y="180" type="curve" smooth="yes"/>
      <point x="510" y="122" type="line" smooth="yes"/>
      <point x="524" y="32"/>
      <point x="553" y="-6"/>
    </contour>
    <contour>
      <point x="183" y="357" type="line"/>
      <point x="183" y="692" type="line"/>
      <point x="326" y="692" type="line" smooth="yes"/>
      <point x="495" y="692"/>
      <point x="543" y="634"/>
      <point x="543" y="530" type="curve" smooth="yes"/>
      <point x="543" y="417"/>
      <point x="471" y="357"/>
      <point x="346" y="357" type="curve" smooth="yes"/>
    </contour>
  </outline>
</glyph>
<glyph name="uni13A2" format="2">
  <advance width="606"/>
  <unicode hex="13A2"/>
  <note>
uni13A2
</note>
  <anchor x="303" y="0" name="bottom"/>
  <anchor x="303" y="714" name="top"/>
  <outline>
    <contour>
      <point x="207" y="0" type="line"/>
      <point x="399" y="0" type="line"/>
      <point x="399" y="18" type="line"/>
      <point x="316" y="23" type="line"/>
      <point x="316" y="693" type="line"/>
      <point x="541" y="693" type="line"/>
      <point x="547" y="556" type="line"/>
      <point x="566" y="556" type="line"/>
      <point x="566" y="714" type="line"/>
      <point x="40" y="714" type="line"/>
      <point x="40" y="556" type="line"/>
      <point x="59" y="556" type="line"/>
      <point x="65" y="693" type="line"/>
      <point x="290" y="693" type="line"/>
      <point x="290" y="23" type="line"/>
      <point x="207" y="18" type="line"/>
    </contour>
  </outline>
</glyph>
<glyph name="uni13A3" format="2">
  <advance width="859"/>
  <unicode hex="13A3"/>
  <note>
uni13A3
</note>
  <anchor x="465" y="0" name="bottom"/>
  <anchor x="465" y="714" name="top"/>
  <outline>
    <contour>
      <point x="550" y="-11" type="line"/>
      <point x="688" y="-3"/>
      <point x="791" y="75"/>
      <point x="791" y="234" type="curve" smooth="yes"/>
      <point x="791" y="388"/>
      <point x="675" y="492"/>
      <point x="481" y="545" type="curve"/>
      <point x="481" y="691" type="line"/>
      <point x="564" y="696" type="line"/>
      <point x="564" y="714" type="line"/>
      <point x="372" y="714" type="line"/>
      <point x="372" y="696" type="line"/>
      <point x="455" y="691" type="line"/>
      <point x="455" y="569" type="line"/>
      <point x="453" y="533"/>
      <point x="376" y="471"/>
      <point x="292" y="436" type="curve"/>
      <point x="280" y="437"/>
      <point x="274" y="438"/>
      <point x="258" y="438" type="curve" smooth="yes"/>
      <point x="146" y="438"/>
      <point x="66" y="353"/>
      <point x="66" y="223" type="curve" smooth="yes"/>
      <point x="66" y="87"/>
      <point x="138" y="9"/>
      <point x="254" y="9" type="curve" smooth="yes"/>
      <point x="364" y="9"/>
      <point x="443" y="89"/>
      <point x="443" y="226" type="curve" smooth="yes"/>
      <point x="443" y="346"/>
      <point x="386" y="404"/>
      <point x="325" y="425" type="curve"/>
      <point x="381" y="450"/>
      <point x="442" y="498"/>
      <point x="462" y="525" type="curve"/>
      <point x="648" y="474"/>
      <point x="766" y="383"/>
      <point x="766" y="233" type="curve" smooth="yes"/>
      <point x="766" y="91"/>
      <point x="672" y="22"/>
      <point x="550" y="13" type="curve"/>
    </contour>
    <contour>
      <point x="254" y="32" type="curve" smooth="yes"/>
      <point x="158" y="32"/>
      <point x="92" y="98"/>
      <point x="92" y="223" type="curve" smooth="yes"/>
      <point x="92" y="337"/>
      <point x="156" y="414"/>
      <point x="258" y="414" type="curve" smooth="yes"/>
      <point x="358" y="414"/>
      <point x="417" y="342"/>
      <point x="417" y="224" type="curve" smooth="yes"/>
      <point x="417" y="98"/>
      <point x="348" y="32"/>
    </contour>
  </outline>
</glyph>
<glyph name="uni13A4" format="2">
  <advance width="1057"/>
  <unicode hex="13A4"/>
  <note>
uni13A4
</note>
  <anchor x="356" y="0" name="bottom"/>
  <anchor x="356" y="714" name="top"/>
  <outline>
    <contour>
      <point x="351" y="-10" type="curve" smooth="yes"/>
      <point x="530" y="-10"/>
      <point x="638" y="126"/>
      <point x="638" y="368" type="curve"/>
      <point x="672" y="291"/>
      <point x="729" y="250"/>
      <point x="811" y="250" type="curve" smooth="yes"/>
      <point x="937" y="250"/>
      <point x="999" y="343"/>
      <point x="999" y="510" type="curve" smooth="yes"/>
      <point x="999" y="651"/>
      <point x="946" y="719"/>
      <point x="855" y="719" type="curve" smooth="yes"/>
      <point x="773" y="719"/>
      <point x="730" y="665"/>
      <point x="730" y="583" type="curve" smooth="yes"/>
      <point x="730" y="565"/>
      <point x="731" y="550"/>
      <point x="732" y="541" type="curve"/>
      <point x="759" y="541" type="line"/>
      <point x="758" y="552"/>
      <point x="757" y="567"/>
      <point x="757" y="580" type="curve" smooth="yes"/>
      <point x="757" y="651"/>
      <point x="787" y="694"/>
      <point x="854" y="694" type="curve" smooth="yes"/>
      <point x="929" y="694"/>
      <point x="972" y="635"/>
      <point x="972" y="510" type="curve" smooth="yes"/>
      <point x="972" y="353"/>
      <point x="919" y="275"/>
      <point x="810" y="275" type="curve" smooth="yes"/>
      <point x="714" y="275"/>
      <point x="651" y="344"/>
      <point x="628" y="471" type="curve" smooth="yes"/>
      <point x="599" y="634"/>
      <point x="501" y="725"/>
      <point x="357" y="725" type="curve" smooth="yes"/>
      <point x="173" y="725"/>
      <point x="70" y="574"/>
      <point x="70" y="359" type="curve" smooth="yes"/>
      <point x="70" y="143"/>
      <point x="164" y="-10"/>
    </contour>
    <contour>
      <point x="352" y="15" type="curve" smooth="yes"/>
      <point x="178" y="15"/>
      <point x="97" y="159"/>
      <point x="97" y="359" type="curve" smooth="yes"/>
      <point x="97" y="556"/>
      <point x="182" y="700"/>
      <point x="357" y="700" type="curve" smooth="yes"/>
      <point x="515" y="700"/>
      <point x="611" y="575"/>
      <point x="611" y="358" type="curve" smooth="yes"/>
      <point x="611" y="156"/>
      <point x="526" y="15"/>
    </contour>
  </outline>
</glyph>
<glyph name="uni13A5" format="2">
  <advance width="312"/>
  <unicode hex="13A5"/>
  <note>
uni13A5
</note>
  <anchor x="156" y="0" name="bottom"/>
  <anchor x="156" y="714" name="top"/>
  <outline>
    <contour>
      <point x="60" y="0" type="line"/>
      <point x="252" y="0" type="line"/>
      <point x="252" y="18" type="line"/>
      <point x="169" y="23" type="line"/>
      <point x="169" y="466" type="line"/>
      <point x="143" y="466" type="line"/>
      <point x="143" y="23" type="line"/>
      <point x="60" y="18" type="line"/>
    </contour>
    <contour>
      <point x="156" y="606" type="curve" smooth="yes"/>
      <point x="169" y="606"/>
      <point x="177" y="615"/>
      <point x="177" y="630" type="curve" smooth="yes"/>
      <point x="177" y="644"/>
      <point x="169" y="653"/>
      <point x="156" y="653" type="curve" smooth="yes"/>
      <point x="142" y="653"/>
      <point x="135" y="645"/>
      <point x="135" y="630" type="curve" smooth="yes"/>
      <point x="135" y="615"/>
      <point x="142" y="606"/>
    </contour>
  </outline>
</glyph>
<glyph name="uni13A6" format="2">
  <advance width="600"/>
  <unicode hex="13A6"/>
  <note>
uni13A6
</note>
  <anchor x="300" y="0" name="bottom"/>
  <anchor x="300" y="714" name="top"/>
  <outline>
    <contour>
      <point x="280" y="-10" type="curve" smooth="yes"/>
      <point x="411" y="-10"/>
      <point x="505" y="55"/>
      <point x="505" y="180" type="curve" smooth="yes"/>
      <point x="505" y="280"/>
      <point x="443" y="319"/>
      <point x="359" y="354" type="curve"/>
      <point x="359" y="356" type="line"/>
      <point x="383" y="354"/>
      <point x="404" y="354"/>
      <point x="431" y="354" type="curve" smooth="yes"/>
      <point x="530" y="354" type="line"/>
      <point x="530" y="377" type="line"/>
      <point x="307" y="377" type="line"/>
      <point x="204" y="417"/>
      <point x="129" y="443"/>
      <point x="129" y="549" type="curve" smooth="yes"/>
      <point x="129" y="649"/>
      <point x="207" y="703"/>
      <point x="320" y="703" type="curve" smooth="yes"/>
      <point x="433" y="703"/>
      <point x="480" y="652"/>
      <point x="490" y="602" type="curve"/>
      <point x="470" y="601"/>
      <point x="464" y="590"/>
      <point x="464" y="576" type="curve" smooth="yes"/>
      <point x="464" y="560"/>
      <point x="475" y="552"/>
      <point x="489" y="552" type="curve" smooth="yes"/>
      <point x="503" y="552"/>
      <point x="516" y="562"/>
      <point x="516" y="582" type="curve" smooth="yes"/>
      <point x="516" y="664"/>
      <point x="443" y="724"/>
      <point x="319" y="724" type="curve" smooth="yes"/>
      <point x="198" y="724"/>
      <point x="102" y="667"/>
      <point x="102" y="547" type="curve" smooth="yes"/>
      <point x="102" y="447"/>
      <point x="160" y="410"/>
      <point x="241" y="377" type="curve"/>
      <point x="241" y="375" type="line"/>
      <point x="218" y="377"/>
      <point x="194" y="377"/>
      <point x="168" y="377" type="curve" smooth="yes"/>
      <point x="70" y="377" type="line"/>
      <point x="70" y="354" type="line"/>
      <point x="294" y="354" type="line"/>
      <point x="408" y="309"/>
      <point x="478" y="277"/>
      <point x="478" y="181" type="curve" smooth="yes"/>
      <point x="478" y="65"/>
      <point x="393" y="12"/>
      <point x="281" y="12" type="curve" smooth="yes"/>
      <point x="166" y="12"/>
      <point x="119" y="62"/>
      <point x="109" y="112" type="curve"/>
      <point x="129" y="113"/>
      <point x="135" y="124"/>
      <point x="135" y="138" type="curve" smooth="yes"/>
      <point x="135" y="154"/>
      <point x="124" y="162"/>
      <point x="110" y="162" type="curve" smooth="yes"/>
      <point x="96" y="162"/>
      <point x="83" y="152"/>
      <point x="83" y="132" type="curve" smooth="yes"/>
      <point x="83" y="50"/>
      <point x="156" y="-10"/>
    </contour>
  </outline>
</glyph>
<glyph name="uni13A7" format="2">
  <advance width="820"/>
  <unicode hex="13A7"/>
  <note>
uni13A7
</note>
  <anchor x="410" y="0" name="bottom"/>
  <anchor x="410" y="714" name="top"/>
  <outline>
    <contour>
      <point x="394" y="-10" type="curve" smooth="yes"/>
      <point x="604" y="-10"/>
      <point x="750" y="139"/>
      <point x="750" y="366" type="curve" smooth="yes"/>
      <point x="750" y="603"/>
      <point x="595" y="724"/>
      <point x="412" y="724" type="curve" smooth="yes"/>
      <point x="289" y="724"/>
      <point x="207" y="676"/>
      <point x="157" y="634" type="curve"/>
      <point x="171" y="613" type="line"/>
      <point x="224" y="657"/>
      <point x="301" y="699"/>
      <point x="411" y="699" type="curve" smooth="yes"/>
      <point x="575" y="699"/>
      <point x="723" y="587"/>
      <point x="723" y="366" type="curve" smooth="yes"/>
      <point x="723" y="149"/>
      <point x="584" y="15"/>
      <point x="394" y="15" type="curve" smooth="yes"/>
      <point x="282" y="15"/>
      <point x="212" y="58"/>
      <point x="170" y="101" type="curve"/>
      <point x="286" y="138"/>
      <point x="396" y="215"/>
      <point x="396" y="351" type="curve" smooth="yes"/>
      <point x="396" y="453"/>
      <point x="333" y="512"/>
      <point x="250" y="512" type="curve" smooth="yes"/>
      <point x="142" y="512"/>
      <point x="67" y="431"/>
      <point x="67" y="296" type="curve" smooth="yes"/>
      <point x="67" y="117"/>
      <point x="198" y="-10"/>
    </contour>
    <contour>
      <point x="153" y="120" type="curve"/>
      <point x="126" y="152"/>
      <point x="93" y="214"/>
      <point x="93" y="299" type="curve" smooth="yes"/>
      <point x="93" y="417"/>
      <point x="159" y="488"/>
      <point x="250" y="488" type="curve" smooth="yes"/>
      <point x="315" y="488"/>
      <point x="370" y="442"/>
      <point x="370" y="350" type="curve" smooth="yes"/>
      <point x="370" y="220"/>
      <point x="258" y="154"/>
    </contour>
  </outline>
</glyph>
<glyph name="uni13A8" format="2">
  <advance width="668"/>
  <unicode hex="13A8"/>
  <note>
uni13A8
</note>
  <anchor x="176" y="0" name="bottom"/>
  <anchor x="176" y="714" name="top"/>
  <outline>
    <contour>
      <point x="80" y="0" type="line"/>
      <point x="271" y="0" type="line"/>
      <point x="271" y="18" type="line"/>
      <point x="189" y="23" type="line"/>
      <point x="189" y="319" type="line"/>
      <point x="375" y="449" type="line"/>
      <point x="392" y="342"/>
      <point x="424" y="281"/>
      <point x="503" y="281" type="curve" smooth="yes"/>
      <point x="585" y="281"/>
      <point x="626" y="351"/>
      <point x="648" y="456" type="curve"/>
      <point x="621" y="460" type="line"/>
      <point x="604" y="372"/>
      <point x="573" y="307"/>
      <point x="503" y="307" type="curve" smooth="yes"/>
      <point x="446" y="307"/>
      <point x="418" y="353"/>
      <point x="404" y="434" type="curve" smooth="yes"/>
      <point x="395" y="488" type="line"/>
      <point x="189" y="347" type="line"/>
      <point x="189" y="691" type="line"/>
      <point x="271" y="696" type="line"/>
      <point x="271" y="714" type="line"/>
      <point x="80" y="714" type="line"/>
      <point x="80" y="696" type="line"/>
      <point x="163" y="691" type="line"/>
      <point x="163" y="23" type="line"/>
      <point x="80" y="18" type="line"/>
    </contour>
  </outline>
</glyph>
<glyph name="uni13A9" format="2">
  <advance width="746"/>
  <unicode hex="13A9"/>
  <note>
uni13A9
</note>
  <anchor x="373" y="0" name="bottom"/>
  <anchor x="373" y="714" name="top"/>
  <outline>
    <contour>
      <point x="208" y="-10" type="curve" smooth="yes"/>
      <point x="300" y="-10"/>
      <point x="356" y="45"/>
      <point x="432" y="215" type="curve" smooth="yes"/>
      <point x="644" y="692" type="line"/>
      <point x="718" y="696" type="line"/>
      <point x="718" y="714" type="line"/>
      <point x="536" y="714" type="line"/>
      <point x="536" y="696" type="line"/>
      <point x="615" y="692" type="line"/>
      <point x="424" y="253" type="line" smooth="yes"/>
      <point x="416" y="235"/>
      <point x="407" y="211"/>
      <point x="399" y="192" type="curve"/>
      <point x="397" y="192" type="line"/>
      <point x="388" y="212"/>
      <point x="377" y="235"/>
      <point x="365" y="257" type="curve" smooth="yes"/>
      <point x="138" y="692" type="line"/>
      <point x="217" y="696" type="line"/>
      <point x="217" y="714" type="line"/>
      <point x="35" y="714" type="line"/>
      <point x="35" y="696" type="line"/>
      <point x="109" y="692" type="line"/>
      <point x="385" y="168" type="line"/>
      <point x="340" y="78"/>
      <point x="294" y="13"/>
      <point x="212" y="13" type="curve" smooth="yes"/>
      <point x="168" y="13"/>
      <point x="153" y="30"/>
      <point x="149" y="48" type="curve"/>
      <point x="164" y="50"/>
      <point x="172" y="59"/>
      <point x="172" y="73" type="curve" smooth="yes"/>
      <point x="172" y="89"/>
      <point x="161" y="97"/>
      <point x="147" y="97" type="curve" smooth="yes"/>
      <point x="133" y="97"/>
      <point x="119" y="87"/>
      <point x="119" y="67" type="curve" smooth="yes"/>
      <point x="119" y="23"/>
      <point x="145" y="-10"/>
    </contour>
  </outline>
</glyph>
<glyph name="uni13AA" format="2">
  <advance width="719"/>
  <unicode hex="13AA"/>
  <note>
uni13AA
</note>
  <anchor x="360" y="0" name="bottom"/>
  <anchor x="360" y="714" name="top"/>
  <outline>
    <contour>
      <point x="11" y="0" type="line"/>
      <point x="189" y="0" type="line"/>
      <point x="189" y="18" type="line"/>
      <point x="108" y="22" type="line"/>
      <point x="198" y="255" type="line"/>
      <point x="524" y="255" type="line"/>
      <point x="612" y="22" type="line"/>
      <point x="531" y="18" type="line"/>
      <point x="531" y="0" type="line"/>
      <point x="708" y="0" type="line"/>
      <point x="708" y="18" type="line"/>
      <point x="641" y="22" type="line"/>
      <point x="381" y="716" type="line"/>
      <point x="351" y="716" type="line"/>
      <point x="80" y="22" type="line"/>
      <point x="11" y="18" type="line"/>
    </contour>
    <contour>
      <point x="206" y="277" type="line"/>
      <point x="328" y="594" type="line" smooth="yes"/>
      <point x="341" y="627"/>
      <point x="354" y="662"/>
      <point x="364" y="691" type="curve"/>
      <point x="366" y="691" type="line"/>
      <point x="376" y="662"/>
      <point x="388" y="628"/>
      <point x="399" y="598" type="curve" smooth="yes"/>
      <point x="516" y="277" type="line"/>
    </contour>
  </outline>
</glyph>
<glyph name="uni13AB" format="2">
  <advance width="572"/>
  <unicode hex="13AB"/>
  <note>
uni13AB
</note>
  <anchor x="286" y="0" name="bottom"/>
  <anchor x="416" y="714" name="top"/>
  <outline>
    <contour>
      <point x="211" y="-11" type="curve" smooth="yes"/>
      <point x="358" y="-11"/>
      <point x="430" y="87"/>
      <point x="430" y="258" type="curve" smooth="yes"/>
      <point x="430" y="691" type="line"/>
      <point x="512" y="696" type="line"/>
      <point x="512" y="714" type="line"/>
      <point x="321" y="714" type="line"/>
      <point x="321" y="696" type="line"/>
      <point x="404" y="691" type="line"/>
      <point x="404" y="262" type="line"/>
      <point x="404" y="103"/>
      <point x="345" y="13"/>
      <point x="210" y="13" type="curve" smooth="yes"/>
      <point x="110" y="13"/>
      <point x="66" y="65"/>
      <point x="62" y="113" type="curve"/>
      <point x="82" y="114"/>
      <point x="89" y="124"/>
      <point x="89" y="138" type="curve" smooth="yes"/>
      <point x="89" y="154"/>
      <point x="77" y="163"/>
      <point x="63" y="163" type="curve" smooth="yes"/>
      <point x="49" y="163"/>
      <point x="35" y="152"/>
      <point x="35" y="127" type="curve" smooth="yes"/>
      <point x="35" y="59"/>
      <point x="87" y="-11"/>
    </contour>
  </outline>
</glyph>
<glyph name="uni13AC" format="2">
  <advance width="673"/>
  <unicode hex="13AC"/>
  <note>
uni13AC
</note>
  <anchor x="367" y="0" name="bottom"/>
  <anchor x="367" y="714" name="top"/>
  <outline>
    <contour>
      <point x="80" y="0" type="line"/>
      <point x="618" y="0" type="line"/>
      <point x="618" y="150" type="line"/>
      <point x="599" y="150" type="line"/>
      <point x="594" y="23" type="line"/>
      <point x="194" y="23" type="line"/>
      <point x="194" y="357" type="line"/>
      <point x="441" y="357" type="line"/>
      <point x="446" y="268" type="line"/>
      <point x="467" y="268" type="line"/>
      <point x="467" y="468" type="line"/>
      <point x="446" y="468" type="line"/>
      <point x="441" y="378" type="line"/>
      <point x="194" y="378" type="line"/>
      <point x="194" y="691" type="line"/>
      <point x="585" y="691" type="line"/>
      <point x="590" y="570" type="line"/>
      <point x="609" y="570" type="line"/>
      <point x="609" y="714" type="line"/>
      <point x="80" y="714" type="line"/>
      <point x="80" y="696" type="line"/>
      <point x="168" y="691" type="line"/>
      <point x="168" y="23" type="line"/>
      <point x="80" y="18" type="line"/>
    </contour>
  </outline>
</glyph>
<glyph name="uni13AD" format="2">
  <advance width="971"/>
  <unicode hex="13AD"/>
  <note>
uni13AD
</note>
  <anchor x="543" y="0" name="bottom"/>
  <anchor x="543" y="714" name="top"/>
  <outline>
    <contour>
      <point x="530" y="0" type="line"/>
      <point x="556" y="0" type="line"/>
      <point x="871" y="447" type="line"/>
      <point x="945" y="452" type="line"/>
      <point x="945" y="470" type="line"/>
      <point x="754" y="470" type="line"/>
      <point x="754" y="452" type="line"/>
      <point x="840" y="447" type="line"/>
      <point x="645" y="168" type="line" smooth="yes"/>
      <point x="599" y="103"/>
      <point x="577" y="70"/>
      <point x="555" y="36" type="curve"/>
      <point x="553" y="36" type="line"/>
      <point x="555" y="95"/>
      <point x="556" y="178"/>
      <point x="556" y="248" type="curve" smooth="yes"/>
      <point x="556" y="691" type="line"/>
      <point x="638" y="696" type="line"/>
      <point x="638" y="714" type="line"/>
      <point x="447" y="714" type="line"/>
      <point x="447" y="696" type="line"/>
      <point x="530" y="691" type="line"/>
      <point x="530" y="419" type="line"/>
      <point x="403" y="338" type="line"/>
      <point x="398" y="449"/>
      <point x="331" y="518"/>
      <point x="226" y="518" type="curve" smooth="yes"/>
      <point x="114" y="518"/>
      <point x="41" y="438"/>
      <point x="41" y="316" type="curve" smooth="yes"/>
      <point x="41" y="191"/>
      <point x="110" y="117"/>
      <point x="223" y="117" type="curve" smooth="yes"/>
      <point x="331" y="117"/>
      <point x="402" y="194"/>
      <point x="404" y="311" type="curve"/>
      <point x="530" y="391" type="line"/>
    </contour>
    <contour>
      <point x="223" y="140" type="curve" smooth="yes"/>
      <point x="130" y="140"/>
      <point x="67" y="201"/>
      <point x="67" y="316" type="curve" smooth="yes"/>
      <point x="67" y="424"/>
      <point x="128" y="495"/>
      <point x="226" y="495" type="curve" smooth="yes"/>
      <point x="322" y="495"/>
      <point x="379" y="431"/>
      <point x="379" y="317" type="curve" smooth="yes"/>
      <point x="379" y="201"/>
      <point x="313" y="140"/>
    </contour>
  </outline>
</glyph>
<glyph name="uni13AE" format="2">
  <advance width="600"/>
  <unicode hex="13AE"/>
  <note>
uni13AE
</note>
  <anchor x="176" y="0" name="bottom"/>
  <anchor x="300" y="772" name="top"/>
  <outline>
    <contour>
      <point x="80" y="0" type="line"/>
      <point x="271" y="0" type="line"/>
      <point x="271" y="18" type="line"/>
      <point x="189" y="23" type="line"/>
      <point x="189" y="323" type="line"/>
      <point x="286" y="323" type="line" smooth="yes"/>
      <point x="444" y="323"/>
      <point x="545" y="406"/>
      <point x="545" y="561" type="curve" smooth="yes"/>
      <point x="545" y="700"/>
      <point x="451" y="783"/>
      <point x="299" y="783" type="curve" smooth="yes"/>
      <point x="223" y="783"/>
      <point x="157" y="766"/>
      <point x="101" y="737" type="curve"/>
      <point x="111" y="714" type="line"/>
      <point x="163" y="741"/>
      <point x="223" y="758"/>
      <point x="295" y="758" type="curve" smooth="yes"/>
      <point x="437" y="758"/>
      <point x="518" y="687"/>
      <point x="518" y="560" type="curve" smooth="yes"/>
      <point x="518" y="414"/>
      <point x="424" y="348"/>
      <point x="284" y="348" type="curve" smooth="yes"/>
      <point x="189" y="348" type="line"/>
      <point x="189" y="501" type="line"/>
      <point x="271" y="506" type="line"/>
      <point x="271" y="524" type="line"/>
      <point x="80" y="524" type="line"/>
      <point x="80" y="506" type="line"/>
      <point x="163" y="501" type="line"/>
      <point x="163" y="23" type="line"/>
      <point x="80" y="18" type="line"/>
    </contour>
  </outline>
</glyph>
<glyph name="uni13AF" format="2">
  <advance width="720"/>
  <unicode hex="13AF"/>
  <note>
uni13AF
</note>
  <anchor x="382" y="0" name="bottom"/>
  <anchor x="441" y="714" name="top"/>
  <outline>
    <contour>
      <point x="71" y="-4" type="curve" smooth="yes"/>
      <point x="143" y="-4"/>
      <point x="216" y="65"/>
      <point x="241" y="328" type="curve"/>
      <point x="628" y="328" type="line"/>
      <point x="624" y="59"/>
      <point x="535" y="22"/>
      <point x="489" y="20" type="curve"/>
      <point x="493" y="24"/>
      <point x="497" y="31"/>
      <point x="497" y="40" type="curve" smooth="yes"/>
      <point x="497" y="56"/>
      <point x="487" y="66"/>
      <point x="471" y="66" type="curve" smooth="yes"/>
      <point x="455" y="66"/>
      <point x="443" y="54"/>
      <point x="443" y="36" type="curve" smooth="yes"/>
      <point x="443" y="11"/>
      <point x="458" y="-4"/>
      <point x="485" y="-4" type="curve" smooth="yes"/>
      <point x="558" y="-4"/>
      <point x="654" y="61"/>
      <point x="654" y="352" type="curve" smooth="yes"/>
      <point x="654" y="659"/>
      <point x="562" y="725"/>
      <point x="444" y="725" type="curve" smooth="yes"/>
      <point x="285" y="725"/>
      <point x="240" y="606"/>
      <point x="217" y="349" type="curve" smooth="yes"/>
      <point x="192" y="67"/>
      <point x="122" y="22"/>
      <point x="75" y="20" type="curve"/>
      <point x="79" y="24"/>
      <point x="83" y="31"/>
      <point x="83" y="40" type="curve" smooth="yes"/>
      <point x="83" y="56"/>
      <point x="73" y="66"/>
      <point x="57" y="66" type="curve" smooth="yes"/>
      <point x="41" y="66"/>
      <point x="29" y="54"/>
      <point x="29" y="36" type="curve" smooth="yes"/>
      <point x="29" y="11"/>
      <point x="44" y="-4"/>
    </contour>
    <contour>
      <point x="243" y="352" type="line"/>
      <point x="266" y="603"/>
      <point x="310" y="701"/>
      <point x="443" y="701" type="curve" smooth="yes"/>
      <point x="545" y="701"/>
      <point x="627" y="644"/>
      <point x="628" y="352" type="curve"/>
    </contour>
  </outline>
</glyph>
<glyph name="uni13B0" format="2">
  <advance width="600"/>
  <unicode hex="13B0"/>
  <note>
uni13B0
</note>
  <anchor x="176" y="0" name="bottom"/>
  <anchor x="176" y="714" name="top"/>
  <outline>
    <contour>
      <point x="80" y="0" type="line"/>
      <point x="271" y="0" type="line"/>
      <point x="271" y="18" type="line"/>
      <point x="189" y="23" type="line"/>
      <point x="189" y="357" type="line"/>
      <point x="494" y="357" type="line"/>
      <point x="499" y="258" type="line"/>
      <point x="520" y="258" type="line"/>
      <point x="520" y="478" type="line"/>
      <point x="499" y="478" type="line"/>
      <point x="494" y="378" type="line"/>
      <point x="189" y="378" type="line"/>
      <point x="189" y="691" type="line"/>
      <point x="271" y="696" type="line"/>
      <point x="271" y="714" type="line"/>
      <point x="80" y="714" type="line"/>
      <point x="80" y="696" type="line"/>
      <point x="163" y="691" type="line"/>
      <point x="163" y="23" type="line"/>
      <point x="80" y="18" type="line"/>
    </contour>
  </outline>
</glyph>
<glyph name="uni13B1" format="2">
  <advance width="620"/>
  <unicode hex="13B1"/>
  <note>
uni13B1
</note>
  <anchor x="180" y="0" name="bottom"/>
  <anchor x="351" y="714" name="top"/>
  <outline>
    <contour>
      <point x="80" y="0" type="line"/>
      <point x="287" y="0" type="line"/>
      <point x="287" y="18" type="line"/>
      <point x="194" y="23" type="line"/>
      <point x="194" y="691" type="line"/>
      <point x="574" y="691" type="line"/>
      <point x="579" y="564" type="line"/>
      <point x="598" y="564" type="line"/>
      <point x="598" y="714" type="line"/>
      <point x="80" y="714" type="line"/>
      <point x="80" y="696" type="line"/>
      <point x="168" y="691" type="line"/>
      <point x="168" y="23" type="line"/>
      <point x="80" y="18" type="line"/>
    </contour>
  </outline>
</glyph>
<glyph name="uni13B2" format="2">
  <advance width="905"/>
  <unicode hex="13B2"/>
  <note>
uni13B2
</note>
  <anchor x="429" y="0" name="bottom"/>
  <anchor x="436" y="714" name="top"/>
  <outline>
    <contour>
      <point x="218" y="-10" type="curve" smooth="yes"/>
      <point x="305" y="-10"/>
      <point x="364" y="33"/>
      <point x="428" y="94" type="curve"/>
      <point x="485" y="37"/>
      <point x="540" y="-10"/>
      <point x="636" y="-10" type="curve" smooth="yes"/>
      <point x="752" y="-10"/>
      <point x="821" y="65"/>
      <point x="826" y="224" type="curve"/>
      <point x="900" y="229" type="line"/>
      <point x="900" y="247" type="line"/>
      <point x="711" y="247" type="line"/>
      <point x="711" y="229" type="line"/>
      <point x="798" y="224" type="line"/>
      <point x="796" y="78"/>
      <point x="730" y="15"/>
      <point x="636" y="15" type="curve" smooth="yes"/>
      <point x="554" y="15"/>
      <point x="504" y="53"/>
      <point x="446" y="114" type="curve"/>
      <point x="546" y="233"/>
      <point x="612" y="358"/>
      <point x="612" y="515" type="curve" smooth="yes"/>
      <point x="612" y="651"/>
      <point x="545" y="726"/>
      <point x="436" y="726" type="curve" smooth="yes"/>
      <point x="320" y="726"/>
      <point x="256" y="637"/>
      <point x="256" y="500" type="curve" smooth="yes"/>
      <point x="256" y="367"/>
      <point x="321" y="219"/>
      <point x="408" y="113" type="curve"/>
      <point x="343" y="48"/>
      <point x="290" y="15"/>
      <point x="223" y="15" type="curve" smooth="yes"/>
      <point x="135" y="15"/>
      <point x="86" y="70"/>
      <point x="86" y="186" type="curve" smooth="yes"/>
      <point x="86" y="206"/>
      <point x="87" y="224"/>
      <point x="89" y="245" type="curve"/>
      <point x="62" y="245" type="line"/>
      <point x="60" y="224"/>
      <point x="59" y="206"/>
      <point x="59" y="186" type="curve" smooth="yes"/>
      <point x="59" y="61"/>
      <point x="113" y="-10"/>
    </contour>
    <contour>
      <point x="427" y="133" type="curve"/>
      <point x="343" y="235"/>
      <point x="283" y="375"/>
      <point x="283" y="500" type="curve" smooth="yes"/>
      <point x="283" y="632"/>
      <point x="343" y="701"/>
      <point x="436" y="701" type="curve" smooth="yes"/>
      <point x="520" y="701"/>
      <point x="585" y="638"/>
      <point x="585" y="513" type="curve" smooth="yes"/>
      <point x="585" y="366"/>
      <point x="523" y="243"/>
    </contour>
  </outline>
</glyph>
<glyph name="uni13B3" format="2">
  <advance width="974"/>
  <unicode hex="13B3"/>
  <note>
uni13B3
</note>
  <anchor x="487" y="0" name="bottom"/>
  <anchor x="487" y="714" name="top"/>
  <outline>
    <contour>
      <point x="272" y="0" type="line"/>
      <point x="301" y="0" type="line"/>
      <point x="470" y="553" type="line" smooth="yes"/>
      <point x="476" y="573"/>
      <point x="482" y="593"/>
      <point x="488" y="616" type="curve"/>
      <point x="490" y="616" type="line"/>
      <point x="496" y="592"/>
      <point x="501" y="577"/>
      <point x="510" y="544" type="curve" smooth="yes"/>
      <point x="660" y="0" type="line"/>
      <point x="688" y="0" type="line"/>
      <point x="883" y="692" type="line"/>
      <point x="960" y="696" type="line"/>
      <point x="960" y="714" type="line"/>
      <point x="780" y="714" type="line"/>
      <point x="780" y="696" type="line"/>
      <point x="856" y="692" type="line"/>
      <point x="704" y="151" type="line" smooth="yes"/>
      <point x="691" y="106"/>
      <point x="683" y="74"/>
      <point x="675" y="42" type="curve"/>
      <point x="673" y="42" type="line"/>
      <point x="665" y="74"/>
      <point x="657" y="107"/>
      <point x="645" y="151" type="curve" smooth="yes"/>
      <point x="495" y="692" type="line"/>
      <point x="572" y="696" type="line"/>
      <point x="572" y="714" type="line"/>
      <point x="392" y="714" type="line"/>
      <point x="392" y="696" type="line"/>
      <point x="466" y="692" type="line"/>
      <point x="477" y="654" type="line"/>
      <point x="322" y="152" type="line" smooth="yes"/>
      <point x="308" y="107"/>
      <point x="299" y="76"/>
      <point x="289" y="42" type="curve"/>
      <point x="287" y="42" type="line"/>
      <point x="279" y="77"/>
      <point x="271" y="109"/>
      <point x="259" y="153" type="curve" smooth="yes"/>
      <point x="116" y="692" type="line"/>
      <point x="195" y="696" type="line"/>
      <point x="195" y="714" type="line"/>
      <point x="14" y="714" type="line"/>
      <point x="14" y="696" type="line"/>
      <point x="89" y="692" type="line"/>
    </contour>
  </outline>
</glyph>
<glyph name="uni13B4" format="2">
  <advance width="695"/>
  <unicode hex="13B4"/>
  <note>
uni13B4
</note>
  <anchor x="233" y="0" name="bottom"/>
  <anchor x="348" y="714" name="top"/>
  <outline>
    <contour>
      <point x="229" y="-11" type="curve" smooth="yes"/>
      <point x="345" y="-11"/>
      <point x="417" y="75"/>
      <point x="417" y="237" type="curve" smooth="yes"/>
      <point x="417" y="569" type="line" smooth="yes"/>
      <point x="417" y="669"/>
      <point x="466" y="703"/>
      <point x="539" y="703" type="curve" smooth="yes"/>
      <point x="602" y="703"/>
      <point x="629" y="668"/>
      <point x="639" y="618" type="curve"/>
      <point x="619" y="617"/>
      <point x="613" y="606"/>
      <point x="613" y="592" type="curve" smooth="yes"/>
      <point x="613" y="576"/>
      <point x="624" y="568"/>
      <point x="638" y="568" type="curve" smooth="yes"/>
      <point x="652" y="568"/>
      <point x="665" y="578"/>
      <point x="665" y="598" type="curve" smooth="yes"/>
      <point x="665" y="680"/>
      <point x="612" y="724"/>
      <point x="538" y="724" type="curve" smooth="yes"/>
      <point x="457" y="724"/>
      <point x="391" y="687"/>
      <point x="391" y="567" type="curve" smooth="yes"/>
      <point x="391" y="466" type="line" smooth="yes"/>
      <point x="391" y="384"/>
      <point x="392" y="386"/>
      <point x="393" y="355" type="curve"/>
      <point x="390" y="355" type="line"/>
      <point x="369" y="418"/>
      <point x="317" y="461"/>
      <point x="239" y="461" type="curve" smooth="yes"/>
      <point x="117" y="461"/>
      <point x="50" y="370"/>
      <point x="50" y="222" type="curve" smooth="yes"/>
      <point x="50" y="63"/>
      <point x="124" y="-11"/>
    </contour>
    <contour>
      <point x="231" y="13" type="curve" smooth="yes"/>
      <point x="144" y="13"/>
      <point x="76" y="77"/>
      <point x="76" y="223" type="curve" smooth="yes"/>
      <point x="76" y="362"/>
      <point x="137" y="437"/>
      <point x="238" y="437" type="curve" smooth="yes"/>
      <point x="337" y="437"/>
      <point x="391" y="355"/>
      <point x="391" y="234" type="curve" smooth="yes"/>
      <point x="391" y="88"/>
      <point x="331" y="13"/>
    </contour>
  </outline>
</glyph>
<glyph name="uni13B5" format="2">
  <advance width="648"/>
  <unicode hex="13B5"/>
  <note>
uni13B5
</note>
  <anchor x="168" y="0" name="bottom"/>
  <anchor x="367" y="714" name="top"/>
  <outline>
    <contour>
      <point x="60" y="0" type="line"/>
      <point x="251" y="0" type="line"/>
      <point x="251" y="18" type="line"/>
      <point x="168" y="23" type="line"/>
      <point x="168" y="450" type="line"/>
      <point x="168" y="609"/>
      <point x="235" y="703"/>
      <point x="378" y="703" type="curve" smooth="yes"/>
      <point x="510" y="703"/>
      <point x="567" y="621"/>
      <point x="567" y="524" type="curve" smooth="yes"/>
      <point x="567" y="413"/>
      <point x="506" y="355"/>
      <point x="443" y="355" type="curve"/>
      <point x="442" y="374"/>
      <point x="431" y="384"/>
      <point x="419" y="384" type="curve" smooth="yes"/>
      <point x="401" y="384"/>
      <point x="394" y="372"/>
      <point x="394" y="359" type="curve" smooth="yes"/>
      <point x="394" y="344"/>
      <point x="406" y="330"/>
      <point x="432" y="330" type="curve" smooth="yes"/>
      <point x="534" y="330"/>
      <point x="593" y="413"/>
      <point x="593" y="525" type="curve" smooth="yes"/>
      <point x="593" y="630"/>
      <point x="528" y="725"/>
      <point x="379" y="725" type="curve" smooth="yes"/>
      <point x="224" y="725"/>
      <point x="142" y="625"/>
      <point x="142" y="454" type="curve" smooth="yes"/>
      <point x="142" y="23" type="line"/>
      <point x="60" y="18" type="line"/>
    </contour>
  </outline>
</glyph>
<glyph name="uni13B6" format="2">
  <advance width="679"/>
  <unicode hex="13B6"/>
  <note>
uni13B6
</note>
  <anchor x="372" y="0" name="bottom"/>
  <anchor x="372" y="714" name="top"/>
  <outline>
    <contour>
      <point x="372" y="-10" type="curve" smooth="yes"/>
      <point x="549" y="-10"/>
      <point x="625" y="87"/>
      <point x="625" y="200" type="curve" smooth="yes"/>
      <point x="625" y="311"/>
      <point x="567" y="362"/>
      <point x="442" y="362" type="curve"/>
      <point x="437" y="445" type="line"/>
      <point x="419" y="445" type="line"/>
      <point x="419" y="254" type="line"/>
      <point x="437" y="254" type="line"/>
      <point x="442" y="338" type="line"/>
      <point x="547" y="338"/>
      <point x="599" y="300"/>
      <point x="599" y="199" type="curve" smooth="yes"/>
      <point x="599" y="98"/>
      <point x="528" y="13"/>
      <point x="373" y="13" type="curve" smooth="yes"/>
      <point x="175" y="13"/>
      <point x="97" y="153"/>
      <point x="97" y="350" type="curve" smooth="yes"/>
      <point x="97" y="553"/>
      <point x="194" y="703"/>
      <point x="391" y="703" type="curve" smooth="yes"/>
      <point x="480" y="703"/>
      <point x="534" y="679"/>
      <point x="574" y="649" type="curve"/>
      <point x="580" y="519" type="line"/>
      <point x="599" y="519" type="line"/>
      <point x="599" y="662" type="line"/>
      <point x="559" y="692"/>
      <point x="501" y="724"/>
      <point x="391" y="724" type="curve" smooth="yes"/>
      <point x="179" y="724"/>
      <point x="70" y="566"/>
      <point x="70" y="350" type="curve" smooth="yes"/>
      <point x="70" y="135"/>
      <point x="159" y="-10"/>
    </contour>
  </outline>
</glyph>
<glyph name="uni13B7" format="2">
  <advance width="950"/>
  <unicode hex="13B7"/>
  <note>
uni13B7
</note>
  <anchor x="475" y="0" name="bottom"/>
  <anchor x="475" y="714" name="top"/>
  <outline>
    <contour>
      <point x="80" y="0" type="line"/>
      <point x="267" y="0" type="line"/>
      <point x="267" y="18" type="line"/>
      <point x="185" y="23" type="line"/>
      <point x="185" y="596" type="line" smooth="yes"/>
      <point x="185" y="626"/>
      <point x="185" y="646"/>
      <point x="184" y="679" type="curve"/>
      <point x="186" y="679" type="line"/>
      <point x="463" y="0" type="line"/>
      <point x="480" y="0" type="line"/>
      <point x="759" y="678" type="line"/>
      <point x="761" y="678" type="line"/>
      <point x="760" y="645"/>
      <point x="760" y="622"/>
      <point x="760" y="602" type="curve" smooth="yes"/>
      <point x="760" y="23" type="line"/>
      <point x="678" y="18" type="line"/>
      <point x="678" y="0" type="line"/>
      <point x="869" y="0" type="line"/>
      <point x="869" y="18" type="line"/>
      <point x="786" y="23" type="line"/>
      <point x="786" y="691" type="line"/>
      <point x="870" y="696" type="line"/>
      <point x="870" y="714" type="line"/>
      <point x="749" y="714" type="line"/>
      <point x="503" y="119" type="line" smooth="yes"/>
      <point x="493" y="95"/>
      <point x="484" y="71"/>
      <point x="474" y="43" type="curve"/>
      <point x="471" y="43" type="line"/>
      <point x="462" y="70"/>
      <point x="454" y="93"/>
      <point x="445" y="116" type="curve" smooth="yes"/>
      <point x="200" y="714" type="line"/>
      <point x="80" y="714" type="line"/>
      <point x="80" y="696" type="line"/>
      <point x="162" y="691" type="line"/>
      <point x="162" y="23" type="line"/>
      <point x="80" y="18" type="line"/>
    </contour>
  </outline>
</glyph>
<glyph name="uni13B8" format="2">
  <advance width="762"/>
  <unicode hex="13B8"/>
  <note>
uni13B8
</note>
  <anchor x="608" y="0" name="bottom"/>
  <anchor x="393" y="714" name="top"/>
  <outline>
    <contour>
      <point x="511" y="0" type="line"/>
      <point x="702" y="0" type="line"/>
      <point x="702" y="18" type="line"/>
      <point x="620" y="23" type="line"/>
      <point x="620" y="456" type="line" smooth="yes"/>
      <point x="620" y="627"/>
      <point x="544" y="725"/>
      <point x="397" y="725" type="curve" smooth="yes"/>
      <point x="273" y="725"/>
      <point x="206" y="655"/>
      <point x="206" y="587" type="curve" smooth="yes"/>
      <point x="206" y="562"/>
      <point x="220" y="551"/>
      <point x="234" y="551" type="curve" smooth="yes"/>
      <point x="248" y="551"/>
      <point x="260" y="560"/>
      <point x="260" y="576" type="curve" smooth="yes"/>
      <point x="260" y="590"/>
      <point x="253" y="600"/>
      <point x="233" y="601" type="curve"/>
      <point x="237" y="649"/>
      <point x="296" y="701"/>
      <point x="396" y="701" type="curve" smooth="yes"/>
      <point x="531" y="701"/>
      <point x="594" y="611"/>
      <point x="594" y="452" type="curve" smooth="yes"/>
      <point x="594" y="365" type="line"/>
      <point x="563" y="319"/>
      <point x="491" y="239"/>
      <point x="373" y="239" type="curve" smooth="yes"/>
      <point x="267" y="239"/>
      <point x="228" y="297"/>
      <point x="221" y="361" type="curve"/>
      <point x="79" y="361" type="line"/>
      <point x="73" y="463" type="line"/>
      <point x="55" y="463" type="line"/>
      <point x="55" y="231" type="line"/>
      <point x="73" y="231" type="line"/>
      <point x="79" y="335" type="line"/>
      <point x="199" y="335" type="line"/>
      <point x="213" y="267"/>
      <point x="264" y="214"/>
      <point x="371" y="214" type="curve" smooth="yes"/>
      <point x="500" y="214"/>
      <point x="572" y="298"/>
      <point x="594" y="327" type="curve"/>
      <point x="594" y="23" type="line"/>
      <point x="511" y="18" type="line"/>
    </contour>
  </outline>
</glyph>
<glyph name="uni13B9" format="2">
  <advance width="982"/>
  <unicode hex="13B9"/>
  <note>
uni13B9
</note>
  <anchor x="334" y="0" name="bottom"/>
  <anchor x="372" y="714" name="top"/>
  <outline>
    <contour>
      <point x="331" y="-18" type="curve" smooth="yes"/>
      <point x="422" y="-18"/>
      <point x="483" y="54"/>
      <point x="483" y="178" type="curve" smooth="yes"/>
      <point x="483" y="283"/>
      <point x="427" y="366"/>
      <point x="331" y="402" type="curve"/>
      <point x="355" y="440"/>
      <point x="371" y="478"/>
      <point x="379" y="526" type="curve"/>
      <point x="391" y="507"/>
      <point x="420" y="489"/>
      <point x="467" y="489" type="curve" smooth="yes"/>
      <point x="527" y="489"/>
      <point x="572" y="523"/>
      <point x="633" y="578" type="curve" smooth="yes"/>
      <point x="697" y="636"/>
      <point x="732" y="663"/>
      <point x="797" y="663" type="curve" smooth="yes"/>
      <point x="868" y="663"/>
      <point x="916" y="619"/>
      <point x="916" y="548" type="curve" smooth="yes"/>
      <point x="916" y="476"/>
      <point x="874" y="430"/>
      <point x="796" y="417" type="curve"/>
      <point x="796" y="393" type="line"/>
      <point x="894" y="410"/>
      <point x="942" y="464"/>
      <point x="942" y="548" type="curve" smooth="yes"/>
      <point x="942" y="633"/>
      <point x="885" y="688"/>
      <point x="798" y="688" type="curve" smooth="yes"/>
      <point x="722" y="688"/>
      <point x="680" y="654"/>
      <point x="612" y="593" type="curve" smooth="yes"/>
      <point x="565" y="551"/>
      <point x="526" y="514"/>
      <point x="470" y="514" type="curve" smooth="yes"/>
      <point x="422" y="514"/>
      <point x="393" y="536"/>
      <point x="387" y="568" type="curve"/>
      <point x="387" y="691" type="line"/>
      <point x="469" y="696" type="line"/>
      <point x="469" y="714" type="line"/>
      <point x="279" y="714" type="line"/>
      <point x="279" y="696" type="line"/>
      <point x="361" y="691" type="line"/>
      <point x="361" y="590" type="line" smooth="yes"/>
      <point x="361" y="516"/>
      <point x="336" y="456"/>
      <point x="306" y="409" type="curve"/>
      <point x="290" y="412"/>
      <point x="268" y="416"/>
      <point x="234" y="416" type="curve" smooth="yes"/>
      <point x="114" y="416"/>
      <point x="44" y="347"/>
      <point x="35" y="242" type="curve"/>
      <point x="60" y="242" type="line"/>
      <point x="69" y="333"/>
      <point x="125" y="391"/>
      <point x="229" y="391" type="curve" smooth="yes"/>
      <point x="257" y="391"/>
      <point x="276" y="389"/>
      <point x="292" y="386" type="curve"/>
      <point x="244" y="311"/>
      <point x="190" y="246"/>
      <point x="190" y="139" type="curve" smooth="yes"/>
      <point x="190" y="38"/>
      <point x="244" y="-18"/>
    </contour>
    <contour>
      <point x="332" y="7" type="curve" smooth="yes"/>
      <point x="262" y="7"/>
      <point x="216" y="53"/>
      <point x="216" y="140" type="curve" smooth="yes"/>
      <point x="216" y="243"/>
      <point x="267" y="304"/>
      <point x="316" y="379" type="curve"/>
      <point x="401" y="350"/>
      <point x="457" y="277"/>
      <point x="457" y="178" type="curve" smooth="yes"/>
      <point x="457" y="71"/>
      <point x="412" y="7"/>
    </contour>
  </outline>
</glyph>
<glyph name="uni13BA" format="2">
  <advance width="1048"/>
  <unicode hex="13BA"/>
  <note>
uni13BA
</note>
  <anchor x="524" y="0" name="bottom"/>
  <anchor x="524" y="714" name="top"/>
  <outline>
    <contour>
      <point x="369" y="-11" type="curve" smooth="yes"/>
      <point x="562" y="-11"/>
      <point x="665" y="125"/>
      <point x="670" y="347" type="curve"/>
      <point x="892" y="347" type="line"/>
      <point x="892" y="0" type="line"/>
      <point x="918" y="0" type="line"/>
      <point x="918" y="714" type="line"/>
      <point x="892" y="714" type="line"/>
      <point x="892" y="372" type="line"/>
      <point x="669" y="372" type="line"/>
      <point x="666" y="567"/>
      <point x="575" y="724"/>
      <point x="372" y="724" type="curve" smooth="yes"/>
      <point x="163" y="724"/>
      <point x="70" y="568"/>
      <point x="70" y="356" type="curve" smooth="yes"/>
      <point x="70" y="139"/>
      <point x="168" y="-11"/>
    </contour>
    <contour>
      <point x="370" y="14" type="curve" smooth="yes"/>
      <point x="179" y="14"/>
      <point x="97" y="162"/>
      <point x="97" y="356" type="curve" smooth="yes"/>
      <point x="97" y="554"/>
      <point x="180" y="699"/>
      <point x="370" y="699" type="curve" smooth="yes"/>
      <point x="561" y="699"/>
      <point x="643" y="548"/>
      <point x="643" y="362" type="curve" smooth="yes"/>
      <point x="643" y="150"/>
      <point x="555" y="14"/>
    </contour>
  </outline>
</glyph>
<glyph name="uni13BB" format="2">
  <advance width="825"/>
  <unicode hex="13BB"/>
  <note>
uni13BB
</note>
  <anchor x="413" y="0" name="bottom"/>
  <anchor x="413" y="714" name="top"/>
  <outline>
    <contour>
      <point x="80" y="0" type="line"/>
      <point x="271" y="0" type="line"/>
      <point x="271" y="18" type="line"/>
      <point x="189" y="23" type="line"/>
      <point x="189" y="365" type="line"/>
      <point x="637" y="365" type="line"/>
      <point x="637" y="23" type="line"/>
      <point x="554" y="18" type="line"/>
      <point x="554" y="0" type="line"/>
      <point x="745" y="0" type="line"/>
      <point x="745" y="18" type="line"/>
      <point x="663" y="23" type="line"/>
      <point x="663" y="691" type="line"/>
      <point x="745" y="696" type="line"/>
      <point x="745" y="714" type="line"/>
      <point x="554" y="714" type="line"/>
      <point x="554" y="696" type="line"/>
      <point x="637" y="691" type="line"/>
      <point x="637" y="386" type="line"/>
      <point x="189" y="386" type="line"/>
      <point x="189" y="691" type="line"/>
      <point x="271" y="696" type="line"/>
      <point x="271" y="714" type="line"/>
      <point x="80" y="714" type="line"/>
      <point x="80" y="696" type="line"/>
      <point x="163" y="691" type="line"/>
      <point x="163" y="23" type="line"/>
      <point x="80" y="18" type="line"/>
    </contour>
  </outline>
</glyph>
<glyph name="uni13BC" format="2">
  <advance width="820"/>
  <unicode hex="13BC"/>
  <note>
uni13BC
</note>
  <anchor x="488" y="0" name="bottom"/>
  <anchor x="429" y="714" name="top"/>
  <outline>
    <contour>
      <point x="492" y="-11" type="curve" smooth="yes"/>
      <point x="633" y="-11"/>
      <point x="753" y="82"/>
      <point x="753" y="264" type="curve" smooth="yes"/>
      <point x="753" y="450"/>
      <point x="636" y="538"/>
      <point x="441" y="549" type="curve"/>
      <point x="441" y="691" type="line"/>
      <point x="524" y="696" type="line"/>
      <point x="524" y="714" type="line"/>
      <point x="332" y="714" type="line"/>
      <point x="332" y="696" type="line"/>
      <point x="415" y="691" type="line"/>
      <point x="415" y="557" type="line"/>
      <point x="331" y="436"/>
      <point x="268" y="390"/>
      <point x="176" y="390" type="curve" smooth="yes"/>
      <point x="114" y="390"/>
      <point x="75" y="421"/>
      <point x="50" y="451" type="curve"/>
      <point x="31" y="434" type="line"/>
      <point x="61" y="399"/>
      <point x="106" y="366"/>
      <point x="176" y="366" type="curve" smooth="yes"/>
      <point x="282" y="366"/>
      <point x="353" y="432"/>
      <point x="423" y="528" type="curve"/>
      <point x="621" y="519"/>
      <point x="727" y="438"/>
      <point x="727" y="263" type="curve" smooth="yes"/>
      <point x="727" y="93"/>
      <point x="615" y="15"/>
      <point x="492" y="15" type="curve" smooth="yes"/>
      <point x="360" y="15"/>
      <point x="287" y="89"/>
      <point x="282" y="201" type="curve"/>
      <point x="256" y="201" type="line"/>
      <point x="259" y="78"/>
      <point x="341" y="-11"/>
    </contour>
  </outline>
</glyph>
<glyph name="uni13BD" format="2">
  <advance width="771"/>
  <unicode hex="13BD"/>
  <note>
uni13BD
</note>
  <anchor x="232" y="0" name="bottom"/>
  <anchor x="386" y="714" name="top"/>
  <outline>
    <contour>
      <point x="226" y="-10" type="curve" smooth="yes"/>
      <point x="331" y="-10"/>
      <point x="381" y="45"/>
      <point x="457" y="215" type="curve" smooth="yes"/>
      <point x="669" y="692" type="line"/>
      <point x="743" y="696" type="line"/>
      <point x="743" y="714" type="line"/>
      <point x="561" y="714" type="line"/>
      <point x="561" y="696" type="line"/>
      <point x="640" y="692" type="line"/>
      <point x="449" y="253" type="line" smooth="yes"/>
      <point x="441" y="235"/>
      <point x="432" y="211"/>
      <point x="424" y="192" type="curve"/>
      <point x="422" y="192" type="line"/>
      <point x="413" y="212"/>
      <point x="402" y="235"/>
      <point x="390" y="257" type="curve" smooth="yes"/>
      <point x="128" y="714" type="line"/>
      <point x="99" y="714" type="line"/>
      <point x="410" y="168" type="line"/>
      <point x="365" y="78"/>
      <point x="325" y="13"/>
      <point x="230" y="13" type="curve" smooth="yes"/>
      <point x="145" y="13"/>
      <point x="119" y="70"/>
      <point x="116" y="152" type="curve"/>
      <point x="196" y="157" type="line"/>
      <point x="196" y="175" type="line"/>
      <point x="7" y="175" type="line"/>
      <point x="7" y="157" type="line"/>
      <point x="90" y="153" type="line"/>
      <point x="95" y="55"/>
      <point x="128" y="-10"/>
    </contour>
  </outline>
</glyph>
<glyph name="uni13BE" format="2">
  <advance width="767"/>
  <unicode hex="13BE"/>
  <note>
uni13BE
</note>
  <anchor x="384" y="0" name="bottom"/>
  <anchor x="384" y="714" name="top"/>
  <outline>
    <contour>
      <point x="383" y="-10" type="curve" smooth="yes"/>
      <point x="594" y="-10"/>
      <point x="697" y="143"/>
      <point x="697" y="358" type="curve" smooth="yes"/>
      <point x="697" y="590"/>
      <point x="586" y="725"/>
      <point x="389" y="725" type="curve" smooth="yes"/>
      <point x="184" y="725"/>
      <point x="70" y="574"/>
      <point x="70" y="359" type="curve" smooth="yes"/>
      <point x="70" y="143"/>
      <point x="175" y="-10"/>
    </contour>
    <contour>
      <point x="384" y="13" type="curve" smooth="yes"/>
      <point x="193" y="13"/>
      <point x="101" y="153"/>
      <point x="97" y="346" type="curve"/>
      <point x="670" y="346" type="line"/>
      <point x="666" y="150"/>
      <point x="576" y="13"/>
    </contour>
    <contour>
      <point x="97" y="369" type="line"/>
      <point x="100" y="561"/>
      <point x="196" y="702"/>
      <point x="389" y="702" type="curve" smooth="yes"/>
      <point x="566" y="702"/>
      <point x="667" y="579"/>
      <point x="670" y="369" type="curve"/>
    </contour>
  </outline>
</glyph>
<glyph name="uni13BF" format="2">
  <advance width="753"/>
  <unicode hex="13BF"/>
  <note>
uni13BF
</note>
  <anchor x="349" y="0" name="bottom"/>
  <anchor x="201" y="714" name="top"/>
  <outline>
    <contour>
      <point x="562" y="-77" type="line"/>
      <point x="588" y="-77" type="line"/>
      <point x="588" y="270" type="line"/>
      <point x="728" y="270" type="line"/>
      <point x="728" y="296" type="line"/>
      <point x="416" y="296" type="line"/>
      <point x="416" y="270" type="line"/>
      <point x="562" y="270" type="line"/>
      <point x="562" y="222" type="line" smooth="yes"/>
      <point x="562" y="113"/>
      <point x="512" y="15"/>
      <point x="385" y="15" type="curve" smooth="yes"/>
      <point x="280" y="15"/>
      <point x="214" y="78"/>
      <point x="214" y="197" type="curve" smooth="yes"/>
      <point x="214" y="531" type="line"/>
      <point x="406" y="531" type="line"/>
      <point x="406" y="557" type="line"/>
      <point x="214" y="557" type="line"/>
      <point x="214" y="714" type="line"/>
      <point x="189" y="714" type="line"/>
      <point x="188" y="557" type="line"/>
      <point x="34" y="557" type="line"/>
      <point x="34" y="531" type="line"/>
      <point x="188" y="531" type="line"/>
      <point x="188" y="192" type="line" smooth="yes"/>
      <point x="188" y="59"/>
      <point x="267" y="-10"/>
      <point x="384" y="-10" type="curve" smooth="yes"/>
      <point x="480" y="-10"/>
      <point x="541" y="39"/>
      <point x="560" y="103" type="curve"/>
      <point x="562" y="103" type="line"/>
    </contour>
  </outline>
</glyph>
<glyph name="uni13C0" format="2">
  <advance width="744"/>
  <unicode hex="13C0"/>
  <note>
uni13C0
</note>
  <anchor x="372" y="0" name="bottom"/>
  <anchor x="372" y="714" name="top"/>
  <outline>
    <contour>
      <point x="361" y="-10" type="curve" smooth="yes"/>
      <point x="475" y="-10"/>
      <point x="548" y="44"/>
      <point x="583" y="128" type="curve"/>
      <point x="583" y="0" type="line"/>
      <point x="609" y="0" type="line"/>
      <point x="609" y="270" type="line"/>
      <point x="690" y="274" type="line"/>
      <point x="690" y="292" type="line"/>
      <point x="499" y="292" type="line"/>
      <point x="499" y="274" type="line"/>
      <point x="583" y="269" type="line"/>
      <point x="583" y="185" type="line"/>
      <point x="560" y="83"/>
      <point x="483" y="13"/>
      <point x="362" y="13" type="curve" smooth="yes"/>
      <point x="175" y="13"/>
      <point x="97" y="153"/>
      <point x="97" y="350" type="curve" smooth="yes"/>
      <point x="97" y="553"/>
      <point x="194" y="703"/>
      <point x="391" y="703" type="curve" smooth="yes"/>
      <point x="480" y="703"/>
      <point x="534" y="682"/>
      <point x="574" y="649" type="curve"/>
      <point x="580" y="519" type="line"/>
      <point x="599" y="519" type="line"/>
      <point x="599" y="662" type="line"/>
      <point x="559" y="695"/>
      <point x="501" y="724"/>
      <point x="391" y="724" type="curve" smooth="yes"/>
      <point x="179" y="724"/>
      <point x="70" y="566"/>
      <point x="70" y="350" type="curve" smooth="yes"/>
      <point x="70" y="135"/>
      <point x="159" y="-10"/>
    </contour>
  </outline>
</glyph>
<glyph name="uni13C1" format="2">
  <advance width="772"/>
  <unicode hex="13C1"/>
  <note>
uni13C1
</note>
  <anchor x="386" y="0" name="bottom"/>
  <anchor x="441" y="714" name="top"/>
  <outline>
    <contour>
      <point x="71" y="-4" type="curve" smooth="yes"/>
      <point x="144" y="-4"/>
      <point x="218" y="67"/>
      <point x="246" y="385" type="curve" smooth="yes"/>
      <point x="265" y="600"/>
      <point x="310" y="701"/>
      <point x="448" y="701" type="curve" smooth="yes"/>
      <point x="549" y="701"/>
      <point x="604" y="645"/>
      <point x="604" y="507" type="curve" smooth="yes"/>
      <point x="604" y="23" type="line"/>
      <point x="521" y="18" type="line"/>
      <point x="521" y="0" type="line"/>
      <point x="712" y="0" type="line"/>
      <point x="712" y="18" type="line"/>
      <point x="630" y="23" type="line"/>
      <point x="630" y="511" type="line" smooth="yes"/>
      <point x="630" y="661"/>
      <point x="567" y="725"/>
      <point x="449" y="725" type="curve" smooth="yes"/>
      <point x="287" y="725"/>
      <point x="240" y="606"/>
      <point x="220" y="385" type="curve" smooth="yes"/>
      <point x="191" y="67"/>
      <point x="122" y="22"/>
      <point x="75" y="20" type="curve"/>
      <point x="79" y="24"/>
      <point x="83" y="31"/>
      <point x="83" y="40" type="curve" smooth="yes"/>
      <point x="83" y="56"/>
      <point x="73" y="66"/>
      <point x="57" y="66" type="curve" smooth="yes"/>
      <point x="41" y="66"/>
      <point x="29" y="54"/>
      <point x="29" y="36" type="curve" smooth="yes"/>
      <point x="29" y="11"/>
      <point x="44" y="-4"/>
    </contour>
  </outline>
</glyph>
<glyph name="uni13C2" format="2">
  <advance width="770"/>
  <unicode hex="13C2"/>
  <note>
uni13C2
</note>
  <anchor x="385" y="0" name="bottom"/>
  <anchor x="175" y="714" name="top"/>
  <outline>
    <contour>
      <point x="81" y="0" type="line"/>
      <point x="272" y="0" type="line"/>
      <point x="272" y="18" type="line"/>
      <point x="189" y="23" type="line"/>
      <point x="189" y="212" type="line" smooth="yes"/>
      <point x="189" y="357"/>
      <point x="253" y="463"/>
      <point x="407" y="463" type="curve" smooth="yes"/>
      <point x="533" y="463"/>
      <point x="592" y="393"/>
      <point x="592" y="264" type="curve" smooth="yes"/>
      <point x="592" y="23" type="line"/>
      <point x="509" y="18" type="line"/>
      <point x="509" y="0" type="line"/>
      <point x="700" y="0" type="line"/>
      <point x="700" y="18" type="line"/>
      <point x="618" y="23" type="line"/>
      <point x="618" y="269" type="line" smooth="yes"/>
      <point x="618" y="412"/>
      <point x="546" y="488"/>
      <point x="409" y="488" type="curve" smooth="yes"/>
      <point x="274" y="488"/>
      <point x="207" y="414"/>
      <point x="189" y="328" type="curve"/>
      <point x="187" y="329" type="line"/>
      <point x="188" y="337"/>
      <point x="189" y="359"/>
      <point x="189" y="378" type="curve" smooth="yes"/>
      <point x="189" y="691" type="line"/>
      <point x="271" y="696" type="line"/>
      <point x="271" y="714" type="line"/>
      <point x="80" y="714" type="line"/>
      <point x="80" y="696" type="line"/>
      <point x="163" y="691" type="line"/>
      <point x="163" y="23" type="line"/>
      <point x="81" y="18" type="line"/>
    </contour>
  </outline>
</glyph>
<glyph name="uni13C3" format="2">
  <advance width="621"/>
  <unicode hex="13C3"/>
  <note>
uni13C3
</note>
  <anchor x="311" y="0" name="bottom"/>
  <anchor x="311" y="714" name="top"/>
  <outline>
    <contour>
      <point x="48" y="0" type="line"/>
      <point x="558" y="0" type="line"/>
      <point x="558" y="150" type="line"/>
      <point x="539" y="150" type="line"/>
      <point x="533" y="23" type="line"/>
      <point x="83" y="23" type="line"/>
      <point x="556" y="696" type="line"/>
      <point x="556" y="714" type="line"/>
      <point x="75" y="714" type="line"/>
      <point x="75" y="570" type="line"/>
      <point x="94" y="570" type="line"/>
      <point x="100" y="691" type="line"/>
      <point x="521" y="691" type="line"/>
      <point x="48" y="18" type="line"/>
    </contour>
  </outline>
</glyph>
<glyph name="uni13C4" format="2">
  <advance width="722"/>
  <unicode hex="13C4"/>
  <note>
uni13C4
</note>
  <anchor x="566" y="0" name="bottom"/>
  <anchor x="348" y="714" name="top"/>
  <outline>
    <contour>
      <point x="471" y="0" type="line"/>
      <point x="662" y="0" type="line"/>
      <point x="662" y="18" type="line"/>
      <point x="580" y="23" type="line"/>
      <point x="580" y="466" type="line" smooth="yes"/>
      <point x="580" y="639"/>
      <point x="496" y="725"/>
      <point x="348" y="725" type="curve" smooth="yes"/>
      <point x="207" y="725"/>
      <point x="133" y="641"/>
      <point x="124" y="536" type="curve"/>
      <point x="30" y="530" type="line"/>
      <point x="30" y="512" type="line"/>
      <point x="244" y="512" type="line"/>
      <point x="244" y="530" type="line"/>
      <point x="150" y="536" type="line"/>
      <point x="159" y="637"/>
      <point x="230" y="701"/>
      <point x="348" y="701" type="curve" smooth="yes"/>
      <point x="485" y="701"/>
      <point x="554" y="618"/>
      <point x="554" y="470" type="curve" smooth="yes"/>
      <point x="554" y="353"/>
      <point x="490" y="239"/>
      <point x="348" y="239" type="curve" smooth="yes"/>
      <point x="225" y="239"/>
      <point x="154" y="305"/>
      <point x="150" y="404" type="curve"/>
      <point x="244" y="410" type="line"/>
      <point x="244" y="428" type="line"/>
      <point x="30" y="428" type="line"/>
      <point x="30" y="410" type="line"/>
      <point x="124" y="404" type="line"/>
      <point x="129" y="291"/>
      <point x="208" y="214"/>
      <point x="348" y="214" type="curve" smooth="yes"/>
      <point x="480" y="214"/>
      <point x="539" y="304"/>
      <point x="554" y="348" type="curve"/>
      <point x="556" y="348" type="line"/>
      <point x="555" y="317"/>
      <point x="554" y="283"/>
      <point x="554" y="240" type="curve" smooth="yes"/>
      <point x="554" y="23" type="line"/>
      <point x="471" y="18" type="line"/>
    </contour>
  </outline>
</glyph>
<glyph name="uni13C5" format="2">
  <advance width="1072"/>
  <unicode hex="13C5"/>
  <note>
uni13C5
</note>
  <anchor x="356" y="0" name="bottom"/>
  <anchor x="356" y="714" name="top"/>
  <outline>
    <contour>
      <point x="354" y="-10" type="curve" smooth="yes"/>
      <point x="526" y="-10"/>
      <point x="633" y="120"/>
      <point x="638" y="352" type="curve"/>
      <point x="780" y="449" type="line"/>
      <point x="797" y="342"/>
      <point x="828" y="281"/>
      <point x="907" y="281" type="curve" smooth="yes"/>
      <point x="989" y="281"/>
      <point x="1030" y="349"/>
      <point x="1052" y="456" type="curve"/>
      <point x="1025" y="460" type="line"/>
      <point x="1008" y="372"/>
      <point x="977" y="307"/>
      <point x="907" y="307" type="curve" smooth="yes"/>
      <point x="849" y="307"/>
      <point x="821" y="353"/>
      <point x="808" y="434" type="curve" smooth="yes"/>
      <point x="799" y="489" type="line"/>
      <point x="638" y="380" type="line"/>
      <point x="631" y="608"/>
      <point x="529" y="725"/>
      <point x="361" y="725" type="curve" smooth="yes"/>
      <point x="173" y="725"/>
      <point x="70" y="574"/>
      <point x="70" y="359" type="curve" smooth="yes"/>
      <point x="70" y="143"/>
      <point x="164" y="-10"/>
    </contour>
    <contour>
      <point x="355" y="15" type="curve" smooth="yes"/>
      <point x="178" y="15"/>
      <point x="97" y="159"/>
      <point x="97" y="359" type="curve" smooth="yes"/>
      <point x="97" y="556"/>
      <point x="182" y="700"/>
      <point x="361" y="700" type="curve" smooth="yes"/>
      <point x="515" y="700"/>
      <point x="611" y="589"/>
      <point x="611" y="358" type="curve" smooth="yes"/>
      <point x="611" y="156"/>
      <point x="526" y="15"/>
    </contour>
  </outline>
</glyph>
<glyph name="uni13C6" format="2">
  <advance width="666"/>
  <unicode hex="13C6"/>
  <note>
uni13C6
</note>
  <anchor x="333" y="0" name="bottom"/>
  <anchor x="333" y="714" name="top"/>
  <outline>
    <contour>
      <point x="80" y="0" type="line"/>
      <point x="606" y="0" type="line"/>
      <point x="606" y="158" type="line"/>
      <point x="587" y="158" type="line"/>
      <point x="581" y="21" type="line"/>
      <point x="346" y="21" type="line"/>
      <point x="346" y="693" type="line"/>
      <point x="561" y="693" type="line"/>
      <point x="567" y="556" type="line"/>
      <point x="586" y="556" type="line"/>
      <point x="586" y="714" type="line"/>
      <point x="60" y="714" type="line"/>
      <point x="60" y="556" type="line"/>
      <point x="79" y="556" type="line"/>
      <point x="85" y="693" type="line"/>
      <point x="320" y="693" type="line"/>
      <point x="320" y="21" type="line"/>
      <point x="105" y="21" type="line"/>
      <point x="99" y="158" type="line"/>
      <point x="80" y="158" type="line"/>
    </contour>
  </outline>
</glyph>
<glyph name="uni13C7" format="2">
  <advance width="1022"/>
  <unicode hex="13C7"/>
  <note>
uni13C7
</note>
  <anchor x="511" y="0" name="bottom"/>
  <anchor x="648" y="714" name="top"/>
  <outline>
    <contour>
      <point x="265" y="-10" type="curve" smooth="yes"/>
      <point x="379" y="-10"/>
      <point x="465" y="63"/>
      <point x="491" y="165" type="curve"/>
      <point x="493" y="165" type="line"/>
      <point x="505" y="81"/>
      <point x="560" y="-10"/>
      <point x="694" y="-10" type="curve" smooth="yes"/>
      <point x="860" y="-10"/>
      <point x="956" y="125"/>
      <point x="956" y="346" type="curve" smooth="yes"/>
      <point x="956" y="593"/>
      <point x="837" y="724"/>
      <point x="639" y="724" type="curve" smooth="yes"/>
      <point x="518" y="724"/>
      <point x="444" y="668"/>
      <point x="405" y="603" type="curve"/>
      <point x="425" y="586" type="line"/>
      <point x="465" y="651"/>
      <point x="530" y="699"/>
      <point x="638" y="699" type="curve" smooth="yes"/>
      <point x="817" y="699"/>
      <point x="929" y="577"/>
      <point x="929" y="346" type="curve" smooth="yes"/>
      <point x="929" y="135"/>
      <point x="838" y="15"/>
      <point x="694" y="15" type="curve" smooth="yes"/>
      <point x="573" y="15"/>
      <point x="508" y="100"/>
      <point x="508" y="238" type="curve" smooth="yes"/>
      <point x="508" y="302"/>
      <point x="515" y="350"/>
      <point x="523" y="379" type="curve"/>
      <point x="498" y="380" type="line"/>
      <point x="490" y="351"/>
      <point x="481" y="287"/>
      <point x="481" y="234" type="curve"/>
      <point x="467" y="86"/>
      <point x="373" y="15"/>
      <point x="267" y="15" type="curve" smooth="yes"/>
      <point x="151" y="15"/>
      <point x="86" y="81"/>
      <point x="86" y="226" type="curve" smooth="yes"/>
      <point x="86" y="289"/>
      <point x="103" y="349"/>
      <point x="115" y="377" type="curve"/>
      <point x="88" y="377" type="line"/>
      <point x="76" y="348"/>
      <point x="59" y="287"/>
      <point x="59" y="224" type="curve" smooth="yes"/>
      <point x="59" y="66"/>
      <point x="134" y="-10"/>
    </contour>
  </outline>
</glyph>
<glyph name="uni13C8" format="2">
  <advance width="874"/>
  <unicode hex="13C8"/>
  <note>
uni13C8
</note>
  <anchor x="437" y="0" name="bottom"/>
  <anchor x="437" y="714" name="top"/>
  <outline>
    <contour>
      <point x="422" y="-10" type="curve" smooth="yes"/>
      <point x="538" y="-10"/>
      <point x="602" y="79"/>
      <point x="602" y="216" type="curve" smooth="yes"/>
      <point x="602" y="349"/>
      <point x="537" y="499"/>
      <point x="450" y="603" type="curve"/>
      <point x="515" y="668"/>
      <point x="578" y="701"/>
      <point x="653" y="701" type="curve" smooth="yes"/>
      <point x="760" y="701"/>
      <point x="801" y="646"/>
      <point x="801" y="572" type="curve" smooth="yes"/>
      <point x="801" y="487"/>
      <point x="743" y="448"/>
      <point x="682" y="438" type="curve"/>
      <point x="682" y="411" type="line"/>
      <point x="753" y="424"/>
      <point x="828" y="470"/>
      <point x="828" y="572" type="curve" smooth="yes"/>
      <point x="828" y="660"/>
      <point x="776" y="726"/>
      <point x="658" y="726" type="curve" smooth="yes"/>
      <point x="563" y="726"/>
      <point x="494" y="683"/>
      <point x="430" y="622" type="curve"/>
      <point x="376" y="679"/>
      <point x="320" y="726"/>
      <point x="234" y="726" type="curve" smooth="yes"/>
      <point x="142" y="726"/>
      <point x="59" y="665"/>
      <point x="59" y="535" type="curve" smooth="yes"/>
      <point x="59" y="506"/>
      <point x="62" y="476"/>
      <point x="65" y="456" type="curve"/>
      <point x="93" y="456" type="line"/>
      <point x="89" y="477"/>
      <point x="86" y="509"/>
      <point x="86" y="536" type="curve" smooth="yes"/>
      <point x="86" y="648"/>
      <point x="155" y="701"/>
      <point x="232" y="701" type="curve" smooth="yes"/>
      <point x="304" y="701"/>
      <point x="355" y="663"/>
      <point x="412" y="602" type="curve"/>
      <point x="312" y="483"/>
      <point x="246" y="358"/>
      <point x="246" y="201" type="curve" smooth="yes"/>
      <point x="246" y="65"/>
      <point x="313" y="-10"/>
    </contour>
    <contour>
      <point x="422" y="15" type="curve" smooth="yes"/>
      <point x="338" y="15"/>
      <point x="273" y="78"/>
      <point x="273" y="203" type="curve" smooth="yes"/>
      <point x="273" y="350"/>
      <point x="335" y="473"/>
      <point x="431" y="583" type="curve"/>
      <point x="515" y="483"/>
      <point x="575" y="341"/>
      <point x="575" y="216" type="curve" smooth="yes"/>
      <point x="575" y="84"/>
      <point x="515" y="15"/>
    </contour>
  </outline>
</glyph>
<glyph name="uni13C9" format="2">
  <advance width="1268"/>
  <unicode hex="13C9"/>
  <note>
uni13C9
</note>
  <anchor x="551" y="0" name="bottom"/>
  <anchor x="576" y="714" name="top"/>
  <outline>
    <contour>
      <point x="537" y="0" type="line"/>
      <point x="566" y="0" type="line"/>
      <point x="803" y="661" type="line"/>
      <point x="821" y="641"/>
      <point x="850" y="626"/>
      <point x="892" y="626" type="curve" smooth="yes"/>
      <point x="925" y="626"/>
      <point x="959" y="639"/>
      <point x="986" y="652" type="curve" smooth="yes"/>
      <point x="1019" y="668"/>
      <point x="1044" y="677"/>
      <point x="1084" y="677" type="curve" smooth="yes"/>
      <point x="1151" y="677"/>
      <point x="1197" y="634"/>
      <point x="1197" y="563" type="curve" smooth="yes"/>
      <point x="1197" y="492"/>
      <point x="1158" y="440"/>
      <point x="1079" y="440" type="curve" smooth="yes"/>
      <point x="1022" y="440"/>
      <point x="987" y="471"/>
      <point x="971" y="514" type="curve"/>
      <point x="948" y="505" type="line"/>
      <point x="967" y="453"/>
      <point x="1006" y="414"/>
      <point x="1079" y="414" type="curve" smooth="yes"/>
      <point x="1170" y="414"/>
      <point x="1223" y="477"/>
      <point x="1223" y="564" type="curve" smooth="yes"/>
      <point x="1223" y="646"/>
      <point x="1170" y="703"/>
      <point x="1086" y="703" type="curve" smooth="yes"/>
      <point x="1037" y="703"/>
      <point x="1004" y="688"/>
      <point x="972" y="673" type="curve" smooth="yes"/>
      <point x="940" y="658"/>
      <point x="917" y="651"/>
      <point x="890" y="651" type="curve" smooth="yes"/>
      <point x="847" y="651"/>
      <point x="816" y="675"/>
      <point x="810" y="710" type="curve"/>
      <point x="810" y="714" type="line"/>
      <point x="785" y="714" type="line"/>
      <point x="785" y="700" type="line"/>
      <point x="776" y="662"/>
      <point x="759" y="612"/>
      <point x="741" y="561" type="curve" smooth="yes"/>
      <point x="589" y="142" type="line" smooth="yes"/>
      <point x="575" y="104"/>
      <point x="562" y="64"/>
      <point x="554" y="38" type="curve"/>
      <point x="552" y="38" type="line"/>
      <point x="546" y="66"/>
      <point x="537" y="110"/>
      <point x="528" y="143" type="curve" smooth="yes"/>
      <point x="382" y="714" type="line"/>
      <point x="356" y="714" type="line"/>
      <point x="433" y="408" type="line"/>
      <point x="409" y="287"/>
      <point x="346" y="180"/>
      <point x="215" y="180" type="curve" smooth="yes"/>
      <point x="123" y="180"/>
      <point x="71" y="231"/>
      <point x="71" y="312" type="curve" smooth="yes"/>
      <point x="71" y="384"/>
      <point x="119" y="430"/>
      <point x="187" y="430" type="curve" smooth="yes"/>
      <point x="201" y="430"/>
      <point x="221" y="427"/>
      <point x="229" y="420" type="curve"/>
      <point x="228" y="428" type="line"/>
      <point x="222" y="425"/>
      <point x="215" y="417"/>
      <point x="215" y="405" type="curve" smooth="yes"/>
      <point x="215" y="390"/>
      <point x="224" y="379"/>
      <point x="241" y="379" type="curve" smooth="yes"/>
      <point x="260" y="379"/>
      <point x="270" y="392"/>
      <point x="270" y="408" type="curve" smooth="yes"/>
      <point x="270" y="432"/>
      <point x="252" y="456"/>
      <point x="188" y="456" type="curve" smooth="yes"/>
      <point x="104" y="456"/>
      <point x="45" y="400"/>
      <point x="45" y="311" type="curve" smooth="yes"/>
      <point x="45" y="217"/>
      <point x="106" y="154"/>
      <point x="211" y="154" type="curve" smooth="yes"/>
      <point x="349" y="154"/>
      <point x="413" y="255"/>
      <point x="445" y="357" type="curve"/>
      <point x="446" y="357" type="line"/>
    </contour>
  </outline>
</glyph>
<glyph name="uni13CA" format="2">
  <advance width="1055"/>
  <unicode hex="13CA"/>
  <note>
uni13CA
</note>
  <anchor x="497" y="0" name="bottom"/>
  <anchor x="660" y="714" name="top"/>
  <outline>
    <contour>
      <point x="274" y="-10" type="curve" smooth="yes"/>
      <point x="384" y="-10"/>
      <point x="463" y="48"/>
      <point x="493" y="160" type="curve"/>
      <point x="495" y="160" type="line"/>
      <point x="507" y="76"/>
      <point x="571" y="-10"/>
      <point x="705" y="-10" type="curve" smooth="yes"/>
      <point x="883" y="-10"/>
      <point x="989" y="125"/>
      <point x="989" y="346" type="curve" smooth="yes"/>
      <point x="989" y="593"/>
      <point x="844" y="724"/>
      <point x="658" y="724" type="curve" smooth="yes"/>
      <point x="538" y="724"/>
      <point x="453" y="677"/>
      <point x="410" y="622" type="curve"/>
      <point x="430" y="605" type="line"/>
      <point x="476" y="662"/>
      <point x="550" y="699"/>
      <point x="657" y="699" type="curve" smooth="yes"/>
      <point x="824" y="699"/>
      <point x="962" y="577"/>
      <point x="962" y="346" type="curve" smooth="yes"/>
      <point x="962" y="135"/>
      <point x="861" y="15"/>
      <point x="705" y="15" type="curve" smooth="yes"/>
      <point x="583" y="15"/>
      <point x="513" y="97"/>
      <point x="513" y="218" type="curve" smooth="yes"/>
      <point x="513" y="309"/>
      <point x="549" y="378"/>
      <point x="614" y="378" type="curve" smooth="yes"/>
      <point x="640" y="378"/>
      <point x="653" y="370"/>
      <point x="659" y="361" type="curve"/>
      <point x="660" y="369" type="line"/>
      <point x="644" y="369"/>
      <point x="635" y="360"/>
      <point x="635" y="346" type="curve" smooth="yes"/>
      <point x="635" y="330"/>
      <point x="646" y="321"/>
      <point x="660" y="321" type="curve" smooth="yes"/>
      <point x="674" y="321"/>
      <point x="688" y="330"/>
      <point x="688" y="350" type="curve" smooth="yes"/>
      <point x="688" y="377"/>
      <point x="665" y="400"/>
      <point x="619" y="400" type="curve" smooth="yes"/>
      <point x="555" y="400"/>
      <point x="500" y="360"/>
      <point x="486" y="234" type="curve" smooth="yes"/>
      <point x="468" y="72"/>
      <point x="382" y="15"/>
      <point x="276" y="15" type="curve" smooth="yes"/>
      <point x="160" y="15"/>
      <point x="86" y="90"/>
      <point x="86" y="232" type="curve" smooth="yes"/>
      <point x="86" y="295"/>
      <point x="102" y="349"/>
      <point x="114" y="377" type="curve"/>
      <point x="87" y="377" type="line"/>
      <point x="75" y="348"/>
      <point x="59" y="293"/>
      <point x="59" y="230" type="curve" smooth="yes"/>
      <point x="59" y="75"/>
      <point x="143" y="-10"/>
    </contour>
  </outline>
</glyph>
<glyph name="uni13CB" format="2">
  <advance width="658"/>
  <unicode hex="13CB"/>
  <note>
uni13CB
</note>
  <anchor x="329" y="0" name="bottom"/>
  <anchor x="329" y="714" name="top"/>
  <outline>
    <contour>
      <point x="333" y="-10" type="curve" smooth="yes"/>
      <point x="490" y="-10"/>
      <point x="588" y="47"/>
      <point x="588" y="153" type="curve" smooth="yes"/>
      <point x="588" y="230"/>
      <point x="532" y="263"/>
      <point x="465" y="263" type="curve" smooth="yes"/>
      <point x="446" y="263" type="line"/>
      <point x="446" y="237" type="line"/>
      <point x="465" y="237" type="line" smooth="yes"/>
      <point x="527" y="237"/>
      <point x="562" y="208"/>
      <point x="562" y="151" type="curve" smooth="yes"/>
      <point x="562" y="62"/>
      <point x="474" y="15"/>
      <point x="333" y="15" type="curve" smooth="yes"/>
      <point x="172" y="15"/>
      <point x="101" y="85"/>
      <point x="101" y="199" type="curve" smooth="yes"/>
      <point x="101" y="314"/>
      <point x="180" y="383"/>
      <point x="358" y="383" type="curve" smooth="yes"/>
      <point x="457" y="383" type="line"/>
      <point x="457" y="408" type="line"/>
      <point x="354" y="408" type="line" smooth="yes"/>
      <point x="204" y="408"/>
      <point x="135" y="455"/>
      <point x="135" y="551" type="curve" smooth="yes"/>
      <point x="135" y="633"/>
      <point x="196" y="700"/>
      <point x="350" y="700" type="curve" smooth="yes"/>
      <point x="427" y="700"/>
      <point x="480" y="683"/>
      <point x="514" y="668" type="curve"/>
      <point x="525" y="693" type="line"/>
      <point x="490" y="708"/>
      <point x="425" y="725"/>
      <point x="348" y="725" type="curve" smooth="yes"/>
      <point x="186" y="725"/>
      <point x="109" y="648"/>
      <point x="109" y="549" type="curve" smooth="yes"/>
      <point x="109" y="450"/>
      <point x="172" y="408"/>
      <point x="259" y="395" type="curve"/>
      <point x="259" y="393" type="line"/>
      <point x="164" y="382"/>
      <point x="75" y="325"/>
      <point x="75" y="198" type="curve" smooth="yes"/>
      <point x="75" y="66"/>
      <point x="162" y="-10"/>
    </contour>
  </outline>
</glyph>
<glyph name="uni13CC" format="2">
  <advance width="804"/>
  <unicode hex="13CC"/>
  <note>
uni13CC
</note>
  <anchor x="402" y="0" name="bottom"/>
  <anchor x="402" y="714" name="top"/>
  <outline>
    <contour>
      <point x="401" y="-10" type="curve" smooth="yes"/>
      <point x="561" y="-10"/>
      <point x="664" y="64"/>
      <point x="664" y="219" type="curve" smooth="yes"/>
      <point x="664" y="692" type="line"/>
      <point x="744" y="696" type="line"/>
      <point x="744" y="714" type="line"/>
      <point x="553" y="714" type="line"/>
      <point x="553" y="696" type="line"/>
      <point x="638" y="691" type="line"/>
      <point x="638" y="399" type="line"/>
      <point x="167" y="399" type="line"/>
      <point x="167" y="691" type="line"/>
      <point x="251" y="696" type="line"/>
      <point x="251" y="714" type="line"/>
      <point x="60" y="714" type="line"/>
      <point x="60" y="696" type="line"/>
      <point x="141" y="692" type="line"/>
      <point x="141" y="234" type="line" smooth="yes"/>
      <point x="141" y="69"/>
      <point x="233" y="-10"/>
    </contour>
    <contour>
      <point x="402" y="12" type="curve" smooth="yes"/>
      <point x="253" y="12"/>
      <point x="167" y="80"/>
      <point x="167" y="236" type="curve" smooth="yes"/>
      <point x="167" y="376" type="line"/>
      <point x="638" y="376" type="line"/>
      <point x="638" y="224" type="line" smooth="yes"/>
      <point x="638" y="75"/>
      <point x="544" y="12"/>
    </contour>
  </outline>
</glyph>
<glyph name="uni13CD" format="2">
  <advance width="1019"/>
  <unicode hex="13CD"/>
  <note>
uni13CD
</note>
  <anchor x="510" y="0" name="bottom"/>
  <anchor x="553" y="714" name="top"/>
  <outline>
    <contour>
      <point x="247" y="-11" type="curve" smooth="yes"/>
      <point x="360" y="-11"/>
      <point x="436" y="71"/>
      <point x="436" y="209" type="curve"/>
      <point x="600" y="286" type="line"/>
      <point x="600" y="162" type="line" smooth="yes"/>
      <point x="600" y="47"/>
      <point x="655" y="-10"/>
      <point x="747" y="-10" type="curve" smooth="yes"/>
      <point x="889" y="-10"/>
      <point x="953" y="125"/>
      <point x="953" y="326" type="curve" smooth="yes"/>
      <point x="953" y="587"/>
      <point x="794" y="724"/>
      <point x="557" y="724" type="curve" smooth="yes"/>
      <point x="388" y="724"/>
      <point x="278" y="652"/>
      <point x="230" y="607" type="curve"/>
      <point x="247" y="586" type="line"/>
      <point x="298" y="633"/>
      <point x="400" y="699"/>
      <point x="556" y="699" type="curve" smooth="yes"/>
      <point x="774" y="699"/>
      <point x="926" y="571"/>
      <point x="926" y="326" type="curve" smooth="yes"/>
      <point x="926" y="135"/>
      <point x="868" y="15"/>
      <point x="747" y="15" type="curve" smooth="yes"/>
      <point x="661" y="15"/>
      <point x="626" y="75"/>
      <point x="626" y="174" type="curve" smooth="yes"/>
      <point x="626" y="407" type="line"/>
      <point x="709" y="412" type="line"/>
      <point x="709" y="430" type="line"/>
      <point x="517" y="430" type="line"/>
      <point x="517" y="412" type="line"/>
      <point x="600" y="407" type="line"/>
      <point x="600" y="310" type="line"/>
      <point x="435" y="232" type="line"/>
      <point x="427" y="350"/>
      <point x="360" y="421"/>
      <point x="251" y="421" type="curve" smooth="yes"/>
      <point x="139" y="421"/>
      <point x="59" y="336"/>
      <point x="59" y="203" type="curve" smooth="yes"/>
      <point x="59" y="67"/>
      <point x="131" y="-11"/>
    </contour>
    <contour>
      <point x="247" y="12" type="curve" smooth="yes"/>
      <point x="151" y="12"/>
      <point x="85" y="78"/>
      <point x="85" y="203" type="curve" smooth="yes"/>
      <point x="85" y="320"/>
      <point x="149" y="397"/>
      <point x="251" y="397" type="curve" smooth="yes"/>
      <point x="351" y="397"/>
      <point x="410" y="325"/>
      <point x="410" y="204" type="curve" smooth="yes"/>
      <point x="410" y="78"/>
      <point x="341" y="12"/>
    </contour>
  </outline>
</glyph>
<glyph name="uni13CE" format="2">
  <advance width="600"/>
  <unicode hex="13CE"/>
  <note>
uni13CE
</note>
  <anchor x="413" y="0" name="bottom"/>
  <anchor x="407" y="714" name="top"/>
  <outline>
    <contour>
      <point x="317" y="0" type="line"/>
      <point x="507" y="0" type="line"/>
      <point x="507" y="18" type="line"/>
      <point x="426" y="22" type="line"/>
      <point x="426" y="194" type="line"/>
      <point x="550" y="194" type="line"/>
      <point x="550" y="219" type="line"/>
      <point x="426" y="219" type="line"/>
      <point x="426" y="718" type="line"/>
      <point x="397" y="718" type="line"/>
      <point x="39" y="212" type="line"/>
      <point x="39" y="194" type="line"/>
      <point x="400" y="194" type="line"/>
      <point x="400" y="23" type="line"/>
      <point x="317" y="18" type="line"/>
    </contour>
    <contour>
      <point x="73" y="219" type="line"/>
      <point x="352" y="616" type="line"/>
      <point x="399" y="684" type="line"/>
      <point x="401" y="684" type="line"/>
      <point x="400" y="524" type="line"/>
      <point x="400" y="219" type="line"/>
    </contour>
  </outline>
</glyph>
<glyph name="uni13CF" format="2">
  <advance width="626"/>
  <unicode hex="13CF"/>
  <note>
uni13CF
</note>
  <anchor x="313" y="0" name="bottom"/>
  <anchor x="175" y="714" name="top"/>
  <outline>
    <contour>
      <point x="80" y="0" type="line"/>
      <point x="349" y="0" type="line" smooth="yes"/>
      <point x="491" y="0"/>
      <point x="571" y="67"/>
      <point x="571" y="203" type="curve" smooth="yes"/>
      <point x="571" y="349"/>
      <point x="481" y="391"/>
      <point x="338" y="391" type="curve" smooth="yes"/>
      <point x="188" y="391" type="line"/>
      <point x="188" y="691" type="line"/>
      <point x="270" y="696" type="line"/>
      <point x="270" y="714" type="line"/>
      <point x="80" y="714" type="line"/>
      <point x="80" y="696" type="line"/>
      <point x="162" y="691" type="line"/>
      <point x="162" y="23" type="line"/>
      <point x="80" y="18" type="line"/>
    </contour>
    <contour>
      <point x="188" y="22" type="line"/>
      <point x="188" y="369" type="line"/>
      <point x="333" y="369" type="line" smooth="yes"/>
      <point x="463" y="369"/>
      <point x="544" y="335"/>
      <point x="544" y="203" type="curve" smooth="yes"/>
      <point x="544" y="75"/>
      <point x="478" y="22"/>
      <point x="342" y="22" type="curve" smooth="yes"/>
    </contour>
  </outline>
</glyph>
<glyph name="uni13D0" format="2">
  <advance width="600"/>
  <unicode hex="13D0"/>
  <note>
uni13D0
</note>
  <anchor x="300" y="0" name="bottom"/>
  <anchor x="300" y="714" name="top"/>
  <outline>
    <contour>
      <point x="205" y="0" type="line"/>
      <point x="397" y="0" type="line"/>
      <point x="397" y="18" type="line"/>
      <point x="314" y="23" type="line"/>
      <point x="314" y="691" type="line"/>
      <point x="397" y="696" type="line"/>
      <point x="397" y="714" type="line"/>
      <point x="205" y="714" type="line"/>
      <point x="205" y="696" type="line"/>
      <point x="288" y="691" type="line"/>
      <point x="288" y="23" type="line"/>
      <point x="205" y="18" type="line"/>
    </contour>
    <contour>
      <point x="146" y="284" type="curve" smooth="yes"/>
      <point x="195" y="284"/>
      <point x="243" y="300"/>
      <point x="297" y="342" type="curve"/>
      <point x="296" y="366" type="line"/>
      <point x="246" y="322"/>
      <point x="191" y="303"/>
      <point x="145" y="303" type="curve" smooth="yes"/>
      <point x="88" y="303"/>
      <point x="53" y="331"/>
      <point x="53" y="375" type="curve" smooth="yes"/>
      <point x="53" y="381"/>
      <point x="54" y="387"/>
      <point x="57" y="392" type="curve"/>
      <point x="49" y="389" type="line"/>
      <point x="54" y="379"/>
      <point x="61" y="374"/>
      <point x="72" y="374" type="curve" smooth="yes"/>
      <point x="87" y="374"/>
      <point x="97" y="385"/>
      <point x="97" y="399" type="curve" smooth="yes"/>
      <point x="97" y="414"/>
      <point x="86" y="426"/>
      <point x="68" y="426" type="curve" smooth="yes"/>
      <point x="47" y="426"/>
      <point x="30" y="411"/>
      <point x="30" y="376" type="curve" smooth="yes"/>
      <point x="30" y="321"/>
      <point x="71" y="284"/>
    </contour>
    <contour>
      <point x="532" y="288" type="curve" smooth="yes"/>
      <point x="553" y="288"/>
      <point x="570" y="303"/>
      <point x="570" y="338" type="curve" smooth="yes"/>
      <point x="570" y="393"/>
      <point x="529" y="430"/>
      <point x="454" y="430" type="curve" smooth="yes"/>
      <point x="405" y="430"/>
      <point x="355" y="414"/>
      <point x="303" y="372" type="curve"/>
      <point x="304" y="348" type="line"/>
      <point x="354" y="392"/>
      <point x="409" y="411"/>
      <point x="455" y="411" type="curve" smooth="yes"/>
      <point x="512" y="411"/>
      <point x="547" y="383"/>
      <point x="547" y="339" type="curve" smooth="yes"/>
      <point x="547" y="333"/>
      <point x="546" y="327"/>
      <point x="543" y="322" type="curve"/>
      <point x="551" y="325" type="line"/>
      <point x="546" y="335"/>
      <point x="539" y="340"/>
      <point x="528" y="340" type="curve" smooth="yes"/>
      <point x="513" y="340"/>
      <point x="503" y="329"/>
      <point x="503" y="315" type="curve" smooth="yes"/>
      <point x="503" y="300"/>
      <point x="514" y="288"/>
    </contour>
  </outline>
</glyph>
<glyph name="uni13D1" format="2">
  <advance width="886"/>
  <unicode hex="13D1"/>
  <note>
uni13D1
</note>
  <anchor x="391" y="0" name="bottom"/>
  <anchor x="443" y="714" name="top"/>
  <outline>
    <contour>
      <point x="388" y="-8" type="curve" smooth="yes"/>
      <point x="477" y="-8"/>
      <point x="531" y="56"/>
      <point x="531" y="143" type="curve" smooth="yes"/>
      <point x="531" y="234"/>
      <point x="472" y="292"/>
      <point x="336" y="292" type="curve" smooth="yes"/>
      <point x="282" y="292" type="line"/>
      <point x="294" y="349"/>
      <point x="314" y="411"/>
      <point x="330" y="474" type="curve"/>
      <point x="468" y="521"/>
      <point x="546" y="663"/>
      <point x="684" y="663" type="curve" smooth="yes"/>
      <point x="763" y="663"/>
      <point x="820" y="624"/>
      <point x="820" y="543" type="curve" smooth="yes"/>
      <point x="820" y="460"/>
      <point x="766" y="414"/>
      <point x="700" y="409" type="curve"/>
      <point x="700" y="384" type="line"/>
      <point x="779" y="390"/>
      <point x="846" y="447"/>
      <point x="846" y="545" type="curve" smooth="yes"/>
      <point x="846" y="637"/>
      <point x="779" y="688"/>
      <point x="685" y="688" type="curve" smooth="yes"/>
      <point x="536" y="688"/>
      <point x="458" y="554"/>
      <point x="336" y="504" type="curve"/>
      <point x="343" y="533"/>
      <point x="347" y="560"/>
      <point x="347" y="590" type="curve" smooth="yes"/>
      <point x="347" y="689"/>
      <point x="291" y="746"/>
      <point x="204" y="746" type="curve" smooth="yes"/>
      <point x="117" y="746"/>
      <point x="60" y="689"/>
      <point x="60" y="602" type="curve" smooth="yes"/>
      <point x="60" y="513"/>
      <point x="116" y="454"/>
      <point x="221" y="454" type="curve" smooth="yes"/>
      <point x="248" y="454"/>
      <point x="277" y="458"/>
      <point x="301" y="464" type="curve"/>
      <point x="284" y="391"/>
      <point x="240" y="268"/>
      <point x="240" y="161" type="curve" smooth="yes"/>
      <point x="240" y="63"/>
      <point x="286" y="-8"/>
    </contour>
    <contour>
      <point x="389" y="17" type="curve" smooth="yes"/>
      <point x="301" y="17"/>
      <point x="266" y="77"/>
      <point x="266" y="164" type="curve" smooth="yes"/>
      <point x="266" y="198"/>
      <point x="270" y="233"/>
      <point x="277" y="268" type="curve"/>
      <point x="330" y="268" type="line" smooth="yes"/>
      <point x="454" y="268"/>
      <point x="505" y="219"/>
      <point x="505" y="141" type="curve" smooth="yes"/>
      <point x="505" y="69"/>
      <point x="466" y="17"/>
    </contour>
    <contour>
      <point x="225" y="479" type="curve" smooth="yes"/>
      <point x="129" y="479"/>
      <point x="86" y="526"/>
      <point x="86" y="601" type="curve" smooth="yes"/>
      <point x="86" y="677"/>
      <point x="134" y="721"/>
      <point x="204" y="721" type="curve" smooth="yes"/>
      <point x="274" y="721"/>
      <point x="321" y="677"/>
      <point x="321" y="588" type="curve" smooth="yes"/>
      <point x="321" y="556"/>
      <point x="316" y="525"/>
      <point x="308" y="492" type="curve"/>
      <point x="283" y="484"/>
      <point x="253" y="479"/>
    </contour>
  </outline>
</glyph>
<glyph name="uni13D2" format="2">
  <advance width="678"/>
  <unicode hex="13D2"/>
  <note>
uni13D2
</note>
  <anchor x="339" y="0" name="bottom"/>
  <anchor x="339" y="714" name="top"/>
  <outline>
    <contour>
      <point x="80" y="0" type="line"/>
      <point x="261" y="0" type="line"/>
      <point x="261" y="18" type="line"/>
      <point x="183" y="22" type="line"/>
      <point x="183" y="692" type="line"/>
      <point x="345" y="692" type="line" smooth="yes"/>
      <point x="511" y="692"/>
      <point x="562" y="621"/>
      <point x="562" y="522" type="curve" smooth="yes"/>
      <point x="562" y="424"/>
      <point x="504" y="366"/>
      <point x="397" y="352" type="curve"/>
      <point x="367" y="415" type="line"/>
      <point x="340" y="415" type="line"/>
      <point x="525" y="22" type="line"/>
      <point x="448" y="18" type="line"/>
      <point x="448" y="0" type="line"/>
      <point x="628" y="0" type="line"/>
      <point x="628" y="18" type="line"/>
      <point x="553" y="22" type="line"/>
      <point x="407" y="329" type="line"/>
      <point x="523" y="347"/>
      <point x="589" y="417"/>
      <point x="589" y="523" type="curve" smooth="yes"/>
      <point x="589" y="637"/>
      <point x="528" y="714"/>
      <point x="350" y="714" type="curve" smooth="yes"/>
      <point x="80" y="714" type="line"/>
      <point x="80" y="696" type="line"/>
      <point x="157" y="692" type="line"/>
      <point x="157" y="22" type="line"/>
      <point x="80" y="18" type="line"/>
    </contour>
  </outline>
</glyph>
<glyph name="uni13D3" format="2">
  <advance width="614"/>
  <unicode hex="13D3"/>
  <note>
uni13D3
</note>
  <anchor x="351" y="0" name="bottom"/>
  <anchor x="155" y="714" name="top"/>
  <outline>
    <contour>
      <point x="352" y="-11" type="curve" smooth="yes"/>
      <point x="483" y="-11"/>
      <point x="559" y="85"/>
      <point x="559" y="222" type="curve" smooth="yes"/>
      <point x="559" y="349"/>
      <point x="511" y="392"/>
      <point x="444" y="392" type="curve" smooth="yes"/>
      <point x="380" y="392"/>
      <point x="338" y="352"/>
      <point x="338" y="261" type="curve" smooth="yes"/>
      <point x="338" y="243"/>
      <point x="339" y="228"/>
      <point x="340" y="219" type="curve"/>
      <point x="367" y="219" type="line"/>
      <point x="366" y="230"/>
      <point x="365" y="245"/>
      <point x="365" y="258" type="curve" smooth="yes"/>
      <point x="365" y="338"/>
      <point x="394" y="367"/>
      <point x="443" y="367" type="curve" smooth="yes"/>
      <point x="494" y="367"/>
      <point x="532" y="333"/>
      <point x="532" y="222" type="curve" smooth="yes"/>
      <point x="532" y="95"/>
      <point x="467" y="13"/>
      <point x="353" y="13" type="curve" smooth="yes"/>
      <point x="233" y="13"/>
      <point x="168" y="82"/>
      <point x="168" y="251" type="curve" smooth="yes"/>
      <point x="168" y="691" type="line"/>
      <point x="251" y="696" type="line"/>
      <point x="251" y="714" type="line"/>
      <point x="60" y="714" type="line"/>
      <point x="60" y="696" type="line"/>
      <point x="142" y="691" type="line"/>
      <point x="142" y="248" type="line" smooth="yes"/>
      <point x="142" y="67"/>
      <point x="220" y="-11"/>
    </contour>
  </outline>
</glyph>
<glyph name="uni13D4" format="2">
  <advance width="913"/>
  <unicode hex="13D4"/>
  <note>
uni13D4
</note>
  <anchor x="457" y="0" name="bottom"/>
  <anchor x="457" y="714" name="top"/>
  <outline>
    <contour>
      <point x="267" y="0" type="line"/>
      <point x="292" y="0" type="line"/>
      <point x="445" y="373" type="line"/>
      <point x="573" y="0" type="line"/>
      <point x="598" y="0" type="line"/>
      <point x="891" y="714" type="line"/>
      <point x="863" y="714" type="line"/>
      <point x="629" y="143" type="line" smooth="yes"/>
      <point x="612" y="102"/>
      <point x="598" y="65"/>
      <point x="588" y="40" type="curve"/>
      <point x="586" y="40" type="line"/>
      <point x="578" y="66"/>
      <point x="564" y="109"/>
      <point x="553" y="143" type="curve" smooth="yes"/>
      <point x="461" y="411" type="line"/>
      <point x="585" y="714" type="line"/>
      <point x="557" y="714" type="line"/>
      <point x="448" y="448" type="line"/>
      <point x="356" y="714" type="line"/>
      <point x="328" y="714" type="line"/>
      <point x="432" y="410" type="line"/>
      <point x="323" y="143" type="line" smooth="yes"/>
      <point x="306" y="104"/>
      <point x="292" y="66"/>
      <point x="282" y="40" type="curve"/>
      <point x="280" y="40" type="line"/>
      <point x="272" y="68"/>
      <point x="257" y="110"/>
      <point x="247" y="143" type="curve" smooth="yes"/>
      <point x="50" y="714" type="line"/>
      <point x="22" y="714" type="line"/>
    </contour>
  </outline>
</glyph>
<glyph name="uni13D5" format="2">
  <advance width="715"/>
  <unicode hex="13D5"/>
  <note>
uni13D5
</note>
  <anchor x="275" y="0" name="bottom"/>
  <anchor x="300" y="714" name="top"/>
  <outline>
    <contour>
      <point x="261" y="-10" type="curve" smooth="yes"/>
      <point x="388" y="-10"/>
      <point x="481" y="52"/>
      <point x="486" y="170" type="curve"/>
      <point x="675" y="170" type="line"/>
      <point x="675" y="194" type="line"/>
      <point x="486" y="194" type="line"/>
      <point x="479" y="301"/>
      <point x="395" y="332"/>
      <point x="288" y="377" type="curve" smooth="yes"/>
      <point x="193" y="417"/>
      <point x="110" y="440"/>
      <point x="110" y="549" type="curve" smooth="yes"/>
      <point x="110" y="649"/>
      <point x="188" y="703"/>
      <point x="296" y="703" type="curve" smooth="yes"/>
      <point x="406" y="703"/>
      <point x="469" y="653"/>
      <point x="469" y="555" type="curve" smooth="yes"/>
      <point x="469" y="542" type="line"/>
      <point x="675" y="542" type="line"/>
      <point x="675" y="566" type="line"/>
      <point x="494" y="566" type="line"/>
      <point x="493" y="672"/>
      <point x="414" y="724"/>
      <point x="300" y="724" type="curve" smooth="yes"/>
      <point x="179" y="724"/>
      <point x="83" y="667"/>
      <point x="83" y="547" type="curve" smooth="yes"/>
      <point x="83" y="428"/>
      <point x="166" y="399"/>
      <point x="274" y="354" type="curve" smooth="yes"/>
      <point x="383" y="308"/>
      <point x="459" y="280"/>
      <point x="459" y="181" type="curve" smooth="yes"/>
      <point x="459" y="65"/>
      <point x="375" y="13"/>
      <point x="263" y="13" type="curve" smooth="yes"/>
      <point x="194" y="13"/>
      <point x="139" y="28"/>
      <point x="102" y="44" type="curve"/>
      <point x="94" y="170" type="line"/>
      <point x="75" y="170" type="line"/>
      <point x="75" y="26" type="line"/>
      <point x="118" y="8"/>
      <point x="177" y="-10"/>
    </contour>
  </outline>
</glyph>
<glyph name="uni13D6" format="2">
  <advance width="748"/>
  <unicode hex="13D6"/>
  <note>
uni13D6
</note>
  <anchor x="493" y="0" name="bottom"/>
  <anchor x="314" y="714" name="top"/>
  <outline>
    <contour>
      <point x="489" y="-11" type="curve" smooth="yes"/>
      <point x="599" y="-11"/>
      <point x="679" y="70"/>
      <point x="679" y="201" type="curve" smooth="yes"/>
      <point x="679" y="322"/>
      <point x="620" y="406"/>
      <point x="493" y="406" type="curve" smooth="yes"/>
      <point x="410" y="406"/>
      <point x="355" y="364"/>
      <point x="328" y="310" type="curve"/>
      <point x="325" y="310" type="line"/>
      <point x="326" y="341"/>
      <point x="327" y="384"/>
      <point x="327" y="411" type="curve" smooth="yes"/>
      <point x="327" y="693" type="line"/>
      <point x="604" y="693" type="line"/>
      <point x="604" y="714" type="line"/>
      <point x="40" y="714" type="line"/>
      <point x="40" y="556" type="line"/>
      <point x="59" y="556" type="line"/>
      <point x="65" y="693" type="line"/>
      <point x="301" y="693" type="line"/>
      <point x="301" y="205" type="line" smooth="yes"/>
      <point x="301" y="71"/>
      <point x="368" y="-11"/>
    </contour>
    <contour>
      <point x="490" y="13" type="curve" smooth="yes"/>
      <point x="386" y="13"/>
      <point x="327" y="86"/>
      <point x="327" y="206" type="curve" smooth="yes"/>
      <point x="327" y="300"/>
      <point x="382" y="382"/>
      <point x="494" y="382" type="curve" smooth="yes"/>
      <point x="600" y="382"/>
      <point x="653" y="311"/>
      <point x="653" y="199" type="curve" smooth="yes"/>
      <point x="653" y="81"/>
      <point x="582" y="13"/>
    </contour>
  </outline>
</glyph>
<glyph name="uni13D7" format="2">
  <advance width="691"/>
  <unicode hex="13D7"/>
  <note>
uni13D7
</note>
  <anchor x="346" y="0" name="bottom"/>
  <anchor x="509" y="714" name="top"/>
  <outline>
    <contour>
      <point x="102" y="-9" type="curve" smooth="yes"/>
      <point x="245" y="-9"/>
      <point x="433" y="160"/>
      <point x="496" y="400" type="curve"/>
      <point x="498" y="400" type="line"/>
      <point x="497" y="351"/>
      <point x="496" y="289"/>
      <point x="496" y="240" type="curve" smooth="yes"/>
      <point x="496" y="0" type="line"/>
      <point x="611" y="0" type="line"/>
      <point x="611" y="18" type="line"/>
      <point x="522" y="23" type="line"/>
      <point x="522" y="691" type="line"/>
      <point x="611" y="696" type="line"/>
      <point x="611" y="714" type="line"/>
      <point x="405" y="714" type="line"/>
      <point x="405" y="696" type="line"/>
      <point x="496" y="691" type="line"/>
      <point x="496" y="512" type="line"/>
      <point x="461" y="205"/>
      <point x="236" y="15"/>
      <point x="101" y="15" type="curve" smooth="yes"/>
      <point x="88" y="15"/>
      <point x="75" y="16"/>
      <point x="68" y="19" type="curve"/>
      <point x="76" y="25"/>
      <point x="83" y="30"/>
      <point x="83" y="44" type="curve" smooth="yes"/>
      <point x="83" y="60"/>
      <point x="71" y="69"/>
      <point x="57" y="69" type="curve" smooth="yes"/>
      <point x="43" y="69"/>
      <point x="29" y="58"/>
      <point x="29" y="38" type="curve" smooth="yes"/>
      <point x="29" y="11"/>
      <point x="49" y="-9"/>
    </contour>
  </outline>
</glyph>
<glyph name="uni13D8" format="2">
  <advance width="705"/>
  <unicode hex="13D8"/>
  <note>
uni13D8
</note>
  <anchor x="353" y="0" name="bottom"/>
  <anchor x="410" y="714" name="top"/>
  <outline>
    <contour>
      <point x="102" y="-9" type="curve" smooth="yes"/>
      <point x="245" y="-9"/>
      <point x="433" y="160"/>
      <point x="496" y="400" type="curve"/>
      <point x="498" y="400" type="line"/>
      <point x="497" y="351"/>
      <point x="496" y="289"/>
      <point x="496" y="240" type="curve" smooth="yes"/>
      <point x="496" y="0" type="line"/>
      <point x="522" y="0" type="line"/>
      <point x="522" y="691" type="line"/>
      <point x="640" y="691" type="line"/>
      <point x="640" y="714" type="line"/>
      <point x="172" y="714" type="line"/>
      <point x="172" y="564" type="line"/>
      <point x="191" y="564" type="line"/>
      <point x="196" y="691" type="line"/>
      <point x="496" y="691" type="line"/>
      <point x="496" y="512" type="line"/>
      <point x="461" y="205"/>
      <point x="236" y="15"/>
      <point x="101" y="15" type="curve" smooth="yes"/>
      <point x="88" y="15"/>
      <point x="75" y="16"/>
      <point x="68" y="19" type="curve"/>
      <point x="76" y="25"/>
      <point x="83" y="30"/>
      <point x="83" y="44" type="curve" smooth="yes"/>
      <point x="83" y="60"/>
      <point x="71" y="69"/>
      <point x="57" y="69" type="curve" smooth="yes"/>
      <point x="43" y="69"/>
      <point x="29" y="58"/>
      <point x="29" y="38" type="curve" smooth="yes"/>
      <point x="29" y="11"/>
      <point x="49" y="-9"/>
    </contour>
  </outline>
</glyph>
<glyph name="uni13D9" format="2">
  <advance width="722"/>
  <unicode hex="13D9"/>
  <note>
uni13D9
</note>
  <anchor x="361" y="0" name="bottom"/>
  <anchor x="361" y="714" name="top"/>
  <outline>
    <contour>
      <point x="346" y="0" type="line"/>
      <point x="374" y="0" type="line"/>
      <point x="634" y="692" type="line"/>
      <point x="711" y="696" type="line"/>
      <point x="711" y="714" type="line"/>
      <point x="525" y="714" type="line"/>
      <point x="525" y="696" type="line"/>
      <point x="606" y="692" type="line"/>
      <point x="399" y="136" type="line" smooth="yes"/>
      <point x="384" y="95"/>
      <point x="370" y="58"/>
      <point x="361" y="31" type="curve"/>
      <point x="359" y="31" type="line"/>
      <point x="350" y="58"/>
      <point x="336" y="97"/>
      <point x="323" y="132" type="curve" smooth="yes"/>
      <point x="115" y="692" type="line"/>
      <point x="197" y="696" type="line"/>
      <point x="197" y="714" type="line"/>
      <point x="11" y="714" type="line"/>
      <point x="11" y="696" type="line"/>
      <point x="87" y="692" type="line"/>
    </contour>
  </outline>
</glyph>
<glyph name="uni13DA" format="2">
  <advance width="561"/>
  <unicode hex="13DA"/>
  <note>
uni13DA
</note>
  <anchor x="281" y="0" name="bottom"/>
  <anchor x="281" y="714" name="top"/>
  <outline>
    <contour>
      <point x="261" y="-10" type="curve" smooth="yes"/>
      <point x="392" y="-10"/>
      <point x="486" y="55"/>
      <point x="486" y="180" type="curve" smooth="yes"/>
      <point x="486" y="298"/>
      <point x="400" y="330"/>
      <point x="288" y="377" type="curve" smooth="yes"/>
      <point x="193" y="417"/>
      <point x="110" y="440"/>
      <point x="110" y="549" type="curve" smooth="yes"/>
      <point x="110" y="649"/>
      <point x="188" y="703"/>
      <point x="296" y="703" type="curve" smooth="yes"/>
      <point x="364" y="703"/>
      <point x="406" y="687"/>
      <point x="443" y="667" type="curve"/>
      <point x="451" y="540" type="line"/>
      <point x="470" y="540" type="line"/>
      <point x="470" y="680" type="line"/>
      <point x="431" y="704"/>
      <point x="373" y="724"/>
      <point x="300" y="724" type="curve" smooth="yes"/>
      <point x="179" y="724"/>
      <point x="83" y="667"/>
      <point x="83" y="547" type="curve" smooth="yes"/>
      <point x="83" y="428"/>
      <point x="166" y="399"/>
      <point x="274" y="354" type="curve" smooth="yes"/>
      <point x="383" y="308"/>
      <point x="459" y="280"/>
      <point x="459" y="181" type="curve" smooth="yes"/>
      <point x="459" y="65"/>
      <point x="375" y="13"/>
      <point x="263" y="13" type="curve" smooth="yes"/>
      <point x="194" y="13"/>
      <point x="139" y="28"/>
      <point x="102" y="44" type="curve"/>
      <point x="94" y="170" type="line"/>
      <point x="75" y="170" type="line"/>
      <point x="75" y="26" type="line"/>
      <point x="118" y="8"/>
      <point x="177" y="-10"/>
    </contour>
  </outline>
</glyph>
<glyph name="uni13DB" format="2">
  <advance width="1046"/>
  <unicode hex="13DB"/>
  <note>
uni13DB
</note>
  <anchor x="254" y="0" name="bottom"/>
  <anchor x="590" y="714" name="top"/>
  <outline>
    <contour>
      <point x="251" y="-11" type="curve" smooth="yes"/>
      <point x="361" y="-11"/>
      <point x="411" y="75"/>
      <point x="411" y="225" type="curve" smooth="yes"/>
      <point x="411" y="700" type="line"/>
      <point x="548" y="698"/>
      <point x="628" y="627"/>
      <point x="628" y="444" type="curve"/>
      <point x="654" y="444" type="line"/>
      <point x="654" y="616"/>
      <point x="718" y="701"/>
      <point x="838" y="701" type="curve" smooth="yes"/>
      <point x="925" y="701"/>
      <point x="979" y="650"/>
      <point x="979" y="565" type="curve" smooth="yes"/>
      <point x="979" y="478"/>
      <point x="929" y="419"/>
      <point x="843" y="419" type="curve" smooth="yes"/>
      <point x="787" y="419"/>
      <point x="754" y="448"/>
      <point x="738" y="471" type="curve"/>
      <point x="718" y="453" type="line"/>
      <point x="737" y="427"/>
      <point x="776" y="395"/>
      <point x="842" y="395" type="curve" smooth="yes"/>
      <point x="940" y="395"/>
      <point x="1005" y="462"/>
      <point x="1005" y="566" type="curve" smooth="yes"/>
      <point x="1005" y="662"/>
      <point x="942" y="725"/>
      <point x="839" y="725" type="curve" smooth="yes"/>
      <point x="712" y="725"/>
      <point x="654" y="637"/>
      <point x="641" y="557" type="curve"/>
      <point x="639" y="557" type="line"/>
      <point x="622" y="646"/>
      <point x="555" y="724"/>
      <point x="403" y="724" type="curve" smooth="yes"/>
      <point x="186" y="724"/>
      <point x="70" y="547"/>
      <point x="70" y="294" type="curve" smooth="yes"/>
      <point x="70" y="61"/>
      <point x="152" y="-11"/>
    </contour>
    <contour>
      <point x="252" y="13" type="curve" smooth="yes"/>
      <point x="170" y="13"/>
      <point x="96" y="77"/>
      <point x="96" y="294" type="curve" smooth="yes"/>
      <point x="96" y="528"/>
      <point x="198" y="690"/>
      <point x="385" y="700" type="curve"/>
      <point x="385" y="225" type="line" smooth="yes"/>
      <point x="385" y="80"/>
      <point x="342" y="13"/>
    </contour>
  </outline>
</glyph>
<glyph name="uni13DC" format="2">
  <advance width="809"/>
  <unicode hex="13DC"/>
  <note>
uni13DC
</note>
  <anchor x="405" y="0" name="bottom"/>
  <anchor x="405" y="714" name="top"/>
  <outline>
    <contour>
      <point x="191" y="-11" type="curve" smooth="yes"/>
      <point x="279" y="-11"/>
      <point x="337" y="47"/>
      <point x="337" y="142" type="curve" smooth="yes"/>
      <point x="337" y="232"/>
      <point x="276" y="289"/>
      <point x="193" y="310" type="curve"/>
      <point x="252" y="344"/>
      <point x="339" y="373"/>
      <point x="398" y="403" type="curve"/>
      <point x="462" y="373"/>
      <point x="557" y="345"/>
      <point x="617" y="309" type="curve"/>
      <point x="532" y="285"/>
      <point x="469" y="227"/>
      <point x="469" y="135" type="curve" smooth="yes"/>
      <point x="469" y="47"/>
      <point x="529" y="-11"/>
      <point x="620" y="-11" type="curve" smooth="yes"/>
      <point x="708" y="-11"/>
      <point x="764" y="52"/>
      <point x="764" y="146" type="curve" smooth="yes"/>
      <point x="764" y="215"/>
      <point x="732" y="267"/>
      <point x="655" y="315" type="curve" smooth="yes"/>
      <point x="587" y="358"/>
      <point x="476" y="392"/>
      <point x="425" y="416" type="curve"/>
      <point x="523" y="468"/>
      <point x="551" y="511"/>
      <point x="551" y="581" type="curve" smooth="yes"/>
      <point x="551" y="667"/>
      <point x="490" y="725"/>
      <point x="410" y="725" type="curve" smooth="yes"/>
      <point x="323" y="725"/>
      <point x="260" y="667"/>
      <point x="260" y="578" type="curve" smooth="yes"/>
      <point x="260" y="511"/>
      <point x="282" y="464"/>
      <point x="370" y="417" type="curve"/>
      <point x="325" y="392"/>
      <point x="213" y="352"/>
      <point x="152" y="312" type="curve" smooth="yes"/>
      <point x="72" y="260"/>
      <point x="45" y="209"/>
      <point x="45" y="138" type="curve" smooth="yes"/>
      <point x="45" y="46"/>
      <point x="102" y="-11"/>
    </contour>
    <contour>
      <point x="191" y="13" type="curve" smooth="yes"/>
      <point x="120" y="13"/>
      <point x="71" y="60"/>
      <point x="71" y="138" type="curve" smooth="yes"/>
      <point x="71" y="200"/>
      <point x="93" y="244"/>
      <point x="161" y="289" type="curve"/>
      <point x="251" y="278"/>
      <point x="311" y="226"/>
      <point x="311" y="142" type="curve" smooth="yes"/>
      <point x="311" y="60"/>
      <point x="264" y="13"/>
    </contour>
    <contour>
      <point x="620" y="13" type="curve" smooth="yes"/>
      <point x="543" y="13"/>
      <point x="495" y="60"/>
      <point x="495" y="135" type="curve" smooth="yes"/>
      <point x="495" y="220"/>
      <point x="553" y="276"/>
      <point x="649" y="289" type="curve"/>
      <point x="713" y="248"/>
      <point x="738" y="204"/>
      <point x="738" y="146" type="curve" smooth="yes"/>
      <point x="738" y="65"/>
      <point x="693" y="13"/>
    </contour>
    <contour>
      <point x="398" y="430" type="curve"/>
      <point x="308" y="475"/>
      <point x="286" y="518"/>
      <point x="286" y="578" type="curve" smooth="yes"/>
      <point x="286" y="654"/>
      <point x="338" y="701"/>
      <point x="410" y="701" type="curve" smooth="yes"/>
      <point x="476" y="701"/>
      <point x="525" y="654"/>
      <point x="525" y="581" type="curve" smooth="yes"/>
      <point x="525" y="521"/>
      <point x="507" y="484"/>
    </contour>
  </outline>
</glyph>
<glyph name="uni13DD" format="2">
  <advance width="663"/>
  <unicode hex="13DD"/>
  <note>
uni13DD
</note>
  <anchor x="364" y="0" name="bottom"/>
  <anchor x="393" y="714" name="top"/>
  <outline>
    <contour>
      <point x="60" y="0" type="line"/>
      <point x="598" y="0" type="line"/>
      <point x="598" y="150" type="line"/>
      <point x="579" y="150" type="line"/>
      <point x="574" y="23" type="line"/>
      <point x="174" y="23" type="line"/>
      <point x="174" y="443" type="line" smooth="yes"/>
      <point x="174" y="602"/>
      <point x="242" y="701"/>
      <point x="398" y="701" type="curve" smooth="yes"/>
      <point x="511" y="701"/>
      <point x="557" y="651"/>
      <point x="568" y="603" type="curve"/>
      <point x="548" y="602"/>
      <point x="542" y="591"/>
      <point x="542" y="577" type="curve" smooth="yes"/>
      <point x="542" y="561"/>
      <point x="553" y="553"/>
      <point x="567" y="553" type="curve" smooth="yes"/>
      <point x="581" y="553"/>
      <point x="594" y="563"/>
      <point x="594" y="583" type="curve" smooth="yes"/>
      <point x="594" y="665"/>
      <point x="517" y="725"/>
      <point x="397" y="725" type="curve" smooth="yes"/>
      <point x="229" y="725"/>
      <point x="148" y="618"/>
      <point x="148" y="447" type="curve" smooth="yes"/>
      <point x="148" y="23" type="line"/>
      <point x="60" y="18" type="line"/>
    </contour>
  </outline>
</glyph>
<glyph name="uni13DE" format="2">
  <advance width="620"/>
  <unicode hex="13DE"/>
  <note>
uni13DE
</note>
  <anchor x="355" y="0" name="bottom"/>
  <anchor x="181" y="714" name="top"/>
  <outline>
    <contour>
      <point x="80" y="0" type="line"/>
      <point x="598" y="0" type="line"/>
      <point x="598" y="150" type="line"/>
      <point x="579" y="150" type="line"/>
      <point x="574" y="23" type="line"/>
      <point x="194" y="23" type="line"/>
      <point x="194" y="691" type="line"/>
      <point x="287" y="696" type="line"/>
      <point x="287" y="714" type="line"/>
      <point x="80" y="714" type="line"/>
      <point x="80" y="696" type="line"/>
      <point x="168" y="691" type="line"/>
      <point x="168" y="23" type="line"/>
      <point x="80" y="18" type="line"/>
    </contour>
  </outline>
</glyph>
<glyph name="uni13DF" format="2">
  <advance width="664"/>
  <unicode hex="13DF"/>
  <note>
uni13DF
</note>
  <anchor x="372" y="0" name="bottom"/>
  <anchor x="376" y="714" name="top"/>
  <outline>
    <contour>
      <point x="372" y="-10" type="curve" smooth="yes"/>
      <point x="515" y="-10"/>
      <point x="596" y="64"/>
      <point x="612" y="176" type="curve"/>
      <point x="587" y="176" type="line"/>
      <point x="573" y="79"/>
      <point x="500" y="13"/>
      <point x="373" y="13" type="curve" smooth="yes"/>
      <point x="186" y="13"/>
      <point x="97" y="150"/>
      <point x="97" y="347" type="curve" smooth="yes"/>
      <point x="97" y="552"/>
      <point x="186" y="703"/>
      <point x="391" y="703" type="curve" smooth="yes"/>
      <point x="480" y="703"/>
      <point x="535" y="680"/>
      <point x="573" y="645" type="curve"/>
      <point x="580" y="519" type="line"/>
      <point x="599" y="519" type="line"/>
      <point x="599" y="657" type="line"/>
      <point x="560" y="692"/>
      <point x="501" y="724"/>
      <point x="391" y="724" type="curve" smooth="yes"/>
      <point x="173" y="724"/>
      <point x="70" y="565"/>
      <point x="70" y="347" type="curve" smooth="yes"/>
      <point x="70" y="132"/>
      <point x="170" y="-10"/>
    </contour>
  </outline>
</glyph>
<glyph name="uni13E0" format="2">
  <advance width="851"/>
  <unicode hex="13E0"/>
  <note>
uni13E0
</note>
  <anchor x="519" y="0" name="bottom"/>
  <anchor x="426" y="714" name="top"/>
  <outline>
    <contour>
      <point x="519" y="-9" type="curve" smooth="yes"/>
      <point x="656" y="-9"/>
      <point x="709" y="84"/>
      <point x="709" y="200" type="curve" smooth="yes"/>
      <point x="709" y="691" type="line"/>
      <point x="791" y="696" type="line"/>
      <point x="791" y="714" type="line"/>
      <point x="601" y="714" type="line"/>
      <point x="601" y="696" type="line"/>
      <point x="683" y="691" type="line"/>
      <point x="683" y="362" type="line"/>
      <point x="357" y="362" type="line"/>
      <point x="357" y="488" type="line" smooth="yes"/>
      <point x="357" y="611"/>
      <point x="294" y="666"/>
      <point x="200" y="666" type="curve" smooth="yes"/>
      <point x="103" y="666"/>
      <point x="40" y="602"/>
      <point x="40" y="501" type="curve" smooth="yes"/>
      <point x="40" y="395"/>
      <point x="103" y="337"/>
      <point x="225" y="337" type="curve" smooth="yes"/>
      <point x="331" y="337" type="line"/>
      <point x="331" y="202" type="line" smooth="yes"/>
      <point x="331" y="95"/>
      <point x="379" y="-9"/>
    </contour>
    <contour>
      <point x="230" y="362" type="line" smooth="yes"/>
      <point x="119" y="362"/>
      <point x="66" y="409"/>
      <point x="66" y="501" type="curve" smooth="yes"/>
      <point x="66" y="591"/>
      <point x="121" y="641"/>
      <point x="201" y="641" type="curve" smooth="yes"/>
      <point x="278" y="641"/>
      <point x="331" y="598"/>
      <point x="331" y="485" type="curve" smooth="yes"/>
      <point x="331" y="362" type="line"/>
    </contour>
    <contour>
      <point x="520" y="16" type="curve" smooth="yes"/>
      <point x="394" y="16"/>
      <point x="357" y="109"/>
      <point x="357" y="205" type="curve" smooth="yes"/>
      <point x="357" y="337" type="line"/>
      <point x="683" y="337" type="line"/>
      <point x="683" y="202" type="line" smooth="yes"/>
      <point x="683" y="101"/>
      <point x="645" y="16"/>
    </contour>
  </outline>
</glyph>
<glyph name="uni13E1" format="2">
  <advance width="905"/>
  <unicode hex="13E1"/>
  <note>
uni13E1
</note>
  <anchor x="469" y="0" name="bottom"/>
  <anchor x="472" y="714" name="top"/>
  <outline>
    <contour>
      <point x="469" y="-10" type="curve" smooth="yes"/>
      <point x="585" y="-10"/>
      <point x="649" y="79"/>
      <point x="649" y="216" type="curve" smooth="yes"/>
      <point x="649" y="349"/>
      <point x="584" y="497"/>
      <point x="497" y="603" type="curve"/>
      <point x="562" y="668"/>
      <point x="615" y="701"/>
      <point x="682" y="701" type="curve" smooth="yes"/>
      <point x="770" y="701"/>
      <point x="819" y="646"/>
      <point x="819" y="530" type="curve" smooth="yes"/>
      <point x="819" y="510"/>
      <point x="818" y="492"/>
      <point x="816" y="471" type="curve"/>
      <point x="843" y="471" type="line"/>
      <point x="845" y="492"/>
      <point x="846" y="510"/>
      <point x="846" y="530" type="curve" smooth="yes"/>
      <point x="846" y="655"/>
      <point x="792" y="726"/>
      <point x="687" y="726" type="curve" smooth="yes"/>
      <point x="600" y="726"/>
      <point x="541" y="683"/>
      <point x="477" y="622" type="curve"/>
      <point x="420" y="679"/>
      <point x="365" y="726"/>
      <point x="269" y="726" type="curve" smooth="yes"/>
      <point x="153" y="726"/>
      <point x="84" y="651"/>
      <point x="79" y="492" type="curve"/>
      <point x="5" y="487" type="line"/>
      <point x="5" y="469" type="line"/>
      <point x="194" y="469" type="line"/>
      <point x="194" y="487" type="line"/>
      <point x="107" y="492" type="line"/>
      <point x="109" y="638"/>
      <point x="175" y="701"/>
      <point x="269" y="701" type="curve" smooth="yes"/>
      <point x="351" y="701"/>
      <point x="401" y="663"/>
      <point x="459" y="602" type="curve"/>
      <point x="359" y="483"/>
      <point x="293" y="358"/>
      <point x="293" y="201" type="curve" smooth="yes"/>
      <point x="293" y="65"/>
      <point x="360" y="-10"/>
    </contour>
    <contour>
      <point x="469" y="15" type="curve" smooth="yes"/>
      <point x="385" y="15"/>
      <point x="320" y="78"/>
      <point x="320" y="203" type="curve" smooth="yes"/>
      <point x="320" y="350"/>
      <point x="382" y="473"/>
      <point x="478" y="583" type="curve"/>
      <point x="562" y="481"/>
      <point x="622" y="341"/>
      <point x="622" y="216" type="curve" smooth="yes"/>
      <point x="622" y="84"/>
      <point x="562" y="15"/>
    </contour>
  </outline>
</glyph>
<glyph name="uni13E2" format="2">
  <advance width="626"/>
  <unicode hex="13E2"/>
  <note>
uni13E2
</note>
  <anchor x="175" y="0" name="bottom"/>
  <anchor x="320" y="714" name="top"/>
  <outline>
    <contour>
      <point x="80" y="0" type="line"/>
      <point x="270" y="0" type="line"/>
      <point x="270" y="18" type="line"/>
      <point x="188" y="23" type="line"/>
      <point x="188" y="312" type="line"/>
      <point x="329" y="312" type="line" smooth="yes"/>
      <point x="472" y="312"/>
      <point x="571" y="370"/>
      <point x="571" y="518" type="curve" smooth="yes"/>
      <point x="571" y="654"/>
      <point x="496" y="714"/>
      <point x="352" y="714" type="curve" smooth="yes"/>
      <point x="80" y="714" type="line"/>
      <point x="80" y="696" type="line"/>
      <point x="162" y="691" type="line"/>
      <point x="162" y="23" type="line"/>
      <point x="80" y="18" type="line"/>
    </contour>
    <contour>
      <point x="188" y="334" type="line"/>
      <point x="188" y="692" type="line"/>
      <point x="345" y="692" type="line" smooth="yes"/>
      <point x="474" y="692"/>
      <point x="544" y="643"/>
      <point x="544" y="515" type="curve" smooth="yes"/>
      <point x="544" y="381"/>
      <point x="454" y="334"/>
      <point x="324" y="334" type="curve" smooth="yes"/>
    </contour>
  </outline>
</glyph>
<glyph name="uni13E3" format="2">
  <advance width="731"/>
  <unicode hex="13E3"/>
  <note>
uni13E3
</note>
  <anchor x="383" y="0" name="bottom"/>
  <anchor x="383" y="714" name="top"/>
  <outline>
    <contour>
      <point x="383" y="-10" type="curve" smooth="yes"/>
      <point x="539" y="-10"/>
      <point x="623" y="79"/>
      <point x="623" y="187" type="curve" smooth="yes"/>
      <point x="623" y="212"/>
      <point x="609" y="223"/>
      <point x="595" y="223" type="curve" smooth="yes"/>
      <point x="581" y="223"/>
      <point x="569" y="214"/>
      <point x="569" y="198" type="curve" smooth="yes"/>
      <point x="569" y="184"/>
      <point x="576" y="174"/>
      <point x="596" y="173" type="curve"/>
      <point x="592" y="85"/>
      <point x="515" y="15"/>
      <point x="383" y="15" type="curve" smooth="yes"/>
      <point x="196" y="15"/>
      <point x="97" y="153"/>
      <point x="97" y="360" type="curve" smooth="yes"/>
      <point x="97" y="560"/>
      <point x="206" y="699"/>
      <point x="387" y="699" type="curve" smooth="yes"/>
      <point x="519" y="699"/>
      <point x="573" y="627"/>
      <point x="582" y="543" type="curve"/>
      <point x="489" y="538" type="line"/>
      <point x="489" y="520" type="line"/>
      <point x="701" y="520" type="line"/>
      <point x="701" y="538" type="line"/>
      <point x="608" y="543" type="line"/>
      <point x="598" y="636"/>
      <point x="542" y="724"/>
      <point x="387" y="724" type="curve" smooth="yes"/>
      <point x="191" y="724"/>
      <point x="70" y="579"/>
      <point x="70" y="360" type="curve" smooth="yes"/>
      <point x="70" y="139"/>
      <point x="181" y="-10"/>
    </contour>
  </outline>
</glyph>
<glyph name="uni13E4" format="2">
  <advance width="730"/>
  <unicode hex="13E4"/>
  <note>
uni13E4
</note>
  <anchor x="304" y="0" name="bottom"/>
  <anchor x="365" y="714" name="top"/>
  <outline>
    <contour>
      <point x="290" y="0" type="line"/>
      <point x="316" y="0" type="line"/>
      <point x="700" y="714" type="line"/>
      <point x="671" y="714" type="line"/>
      <point x="398" y="204" type="line" smooth="yes"/>
      <point x="361" y="135"/>
      <point x="337" y="91"/>
      <point x="315" y="46" type="curve"/>
      <point x="313" y="46" type="line"/>
      <point x="315" y="105"/>
      <point x="316" y="178"/>
      <point x="316" y="248" type="curve" smooth="yes"/>
      <point x="316" y="693" type="line"/>
      <point x="441" y="693" type="line"/>
      <point x="441" y="714" type="line"/>
      <point x="40" y="714" type="line"/>
      <point x="40" y="556" type="line"/>
      <point x="59" y="556" type="line"/>
      <point x="65" y="693" type="line"/>
      <point x="290" y="693" type="line"/>
    </contour>
  </outline>
</glyph>
<glyph name="uni13E5" format="2">
  <advance width="871"/>
  <unicode hex="13E5"/>
  <note>
uni13E5
</note>
  <anchor x="367" y="0" name="bottom"/>
  <anchor x="178" y="714" name="top"/>
  <outline>
    <contour>
      <point x="80" y="0" type="line"/>
      <point x="271" y="0" type="line"/>
      <point x="271" y="18" type="line"/>
      <point x="189" y="23" type="line"/>
      <point x="189" y="218" type="line" smooth="yes"/>
      <point x="189" y="371"/>
      <point x="347" y="434"/>
      <point x="539" y="436" type="curve"/>
      <point x="539" y="23" type="line"/>
      <point x="456" y="18" type="line"/>
      <point x="456" y="0" type="line"/>
      <point x="647" y="0" type="line"/>
      <point x="647" y="18" type="line"/>
      <point x="565" y="23" type="line"/>
      <point x="565" y="436" type="line"/>
      <point x="745" y="433"/>
      <point x="805" y="373"/>
      <point x="813" y="318" type="curve"/>
      <point x="796" y="317"/>
      <point x="789" y="306"/>
      <point x="789" y="292" type="curve" smooth="yes"/>
      <point x="789" y="276"/>
      <point x="800" y="268"/>
      <point x="814" y="268" type="curve" smooth="yes"/>
      <point x="828" y="268"/>
      <point x="841" y="281"/>
      <point x="841" y="301" type="curve" smooth="yes"/>
      <point x="841" y="390"/>
      <point x="756" y="460"/>
      <point x="550" y="460" type="curve" smooth="yes"/>
      <point x="352" y="460"/>
      <point x="225" y="394"/>
      <point x="190" y="310" type="curve"/>
      <point x="187" y="310" type="line"/>
      <point x="188" y="334"/>
      <point x="189" y="366"/>
      <point x="189" y="406" type="curve" smooth="yes"/>
      <point x="189" y="691" type="line"/>
      <point x="271" y="696" type="line"/>
      <point x="271" y="714" type="line"/>
      <point x="80" y="714" type="line"/>
      <point x="80" y="696" type="line"/>
      <point x="163" y="691" type="line"/>
      <point x="163" y="23" type="line"/>
      <point x="80" y="18" type="line"/>
    </contour>
  </outline>
</glyph>
<glyph name="uni13E6" format="2">
  <advance width="716"/>
  <unicode hex="13E6"/>
  <note>
uni13E6
</note>
  <anchor x="368" y="0" name="bottom"/>
  <anchor x="368" y="714" name="top"/>
  <outline>
    <contour>
      <point x="80" y="0" type="line"/>
      <point x="270" y="0" type="line"/>
      <point x="270" y="18" type="line"/>
      <point x="189" y="22" type="line"/>
      <point x="189" y="293" type="line"/>
      <point x="237" y="341" type="line"/>
      <point x="294" y="398" type="line"/>
      <point x="568" y="22" type="line"/>
      <point x="490" y="18" type="line"/>
      <point x="490" y="0" type="line"/>
      <point x="671" y="0" type="line"/>
      <point x="671" y="18" type="line"/>
      <point x="602" y="22" type="line"/>
      <point x="314" y="417" type="line"/>
      <point x="590" y="692" type="line"/>
      <point x="662" y="696" type="line"/>
      <point x="662" y="714" type="line"/>
      <point x="481" y="714" type="line"/>
      <point x="481" y="696" type="line"/>
      <point x="552" y="692" type="line"/>
      <point x="239" y="376" type="line"/>
      <point x="189" y="324" type="line"/>
      <point x="189" y="692" type="line"/>
      <point x="270" y="696" type="line"/>
      <point x="270" y="714" type="line"/>
      <point x="80" y="714" type="line"/>
      <point x="80" y="696" type="line"/>
      <point x="163" y="691" type="line"/>
      <point x="163" y="23" type="line"/>
      <point x="80" y="18" type="line"/>
    </contour>
  </outline>
</glyph>
<glyph name="uni13E7" format="2">
  <advance width="569"/>
  <unicode hex="13E7"/>
  <note>
uni13E7
</note>
  <anchor x="246" y="0" name="bottom"/>
  <anchor x="412" y="714" name="top"/>
  <outline>
    <contour>
      <point x="233" y="-11" type="curve" smooth="yes"/>
      <point x="353" y="-11"/>
      <point x="427" y="75"/>
      <point x="427" y="209" type="curve" smooth="yes"/>
      <point x="427" y="691" type="line"/>
      <point x="509" y="696" type="line"/>
      <point x="509" y="714" type="line"/>
      <point x="318" y="714" type="line"/>
      <point x="318" y="696" type="line"/>
      <point x="401" y="691" type="line"/>
      <point x="401" y="411" type="line" smooth="yes"/>
      <point x="401" y="384"/>
      <point x="402" y="341"/>
      <point x="403" y="310" type="curve"/>
      <point x="400" y="310" type="line"/>
      <point x="374" y="369"/>
      <point x="318" y="406"/>
      <point x="243" y="406" type="curve" smooth="yes"/>
      <point x="116" y="406"/>
      <point x="49" y="315"/>
      <point x="49" y="194" type="curve" smooth="yes"/>
      <point x="49" y="63"/>
      <point x="123" y="-11"/>
    </contour>
    <contour>
      <point x="235" y="13" type="curve" smooth="yes"/>
      <point x="143" y="13"/>
      <point x="75" y="77"/>
      <point x="75" y="195" type="curve" smooth="yes"/>
      <point x="75" y="307"/>
      <point x="136" y="382"/>
      <point x="242" y="382" type="curve" smooth="yes"/>
      <point x="350" y="382"/>
      <point x="401" y="300"/>
      <point x="401" y="206" type="curve" smooth="yes"/>
      <point x="401" y="88"/>
      <point x="339" y="13"/>
    </contour>
  </outline>
</glyph>
<glyph name="uni13E8" format="2">
  <advance width="817"/>
  <unicode hex="13E8"/>
  <note>
uni13E8
</note>
  <anchor x="409" y="0" name="bottom"/>
  <anchor x="409" y="714" name="top"/>
  <outline>
    <contour>
      <point x="360" y="-10" type="curve" smooth="yes"/>
      <point x="486" y="-10"/>
      <point x="543" y="50"/>
      <point x="580" y="109" type="curve"/>
      <point x="647" y="30" type="line"/>
      <point x="649" y="30" type="line"/>
      <point x="716" y="115" type="line"/>
      <point x="777" y="33" type="line"/>
      <point x="779" y="33" type="line"/>
      <point x="793" y="45" type="line"/>
      <point x="718" y="146" type="line"/>
      <point x="716" y="146" type="line"/>
      <point x="648" y="58" type="line"/>
      <point x="580" y="143" type="line"/>
      <point x="578" y="143" type="line"/>
      <point x="531" y="59"/>
      <point x="470" y="13"/>
      <point x="363" y="13" type="curve" smooth="yes"/>
      <point x="217" y="13"/>
      <point x="96" y="110"/>
      <point x="96" y="355" type="curve" smooth="yes"/>
      <point x="96" y="550"/>
      <point x="190" y="703"/>
      <point x="373" y="703" type="curve" smooth="yes"/>
      <point x="474" y="703"/>
      <point x="537" y="661"/>
      <point x="580" y="590" type="curve"/>
      <point x="582" y="590" type="line"/>
      <point x="651" y="675" type="line"/>
      <point x="716" y="592" type="line"/>
      <point x="719" y="592" type="line"/>
      <point x="789" y="685" type="line"/>
      <point x="777" y="695" type="line"/>
      <point x="774" y="695" type="line"/>
      <point x="718" y="618" type="line"/>
      <point x="653" y="703" type="line"/>
      <point x="651" y="703" type="line"/>
      <point x="584" y="620" type="line"/>
      <point x="542" y="680"/>
      <point x="486" y="724"/>
      <point x="373" y="724" type="curve" smooth="yes"/>
      <point x="179" y="724"/>
      <point x="70" y="563"/>
      <point x="70" y="354" type="curve" smooth="yes"/>
      <point x="70" y="93"/>
      <point x="201" y="-10"/>
    </contour>
  </outline>
</glyph>
<glyph name="uni13E9" format="2">
  <advance width="910"/>
  <unicode hex="13E9"/>
  <note>
uni13E9
</note>
  <anchor x="455" y="0" name="bottom"/>
  <anchor x="395" y="714" name="top"/>
  <outline>
    <contour>
      <point x="361" y="-10" type="curve" smooth="yes"/>
      <point x="475" y="-10"/>
      <point x="551" y="43"/>
      <point x="586" y="128" type="curve"/>
      <point x="597" y="44"/>
      <point x="645" y="-2"/>
      <point x="724" y="-2" type="curve" smooth="yes"/>
      <point x="818" y="-2"/>
      <point x="868" y="58"/>
      <point x="868" y="142" type="curve" smooth="yes"/>
      <point x="868" y="162"/>
      <point x="867" y="174"/>
      <point x="865" y="190" type="curve"/>
      <point x="839" y="190" type="line"/>
      <point x="841" y="173"/>
      <point x="842" y="162"/>
      <point x="842" y="146" type="curve" smooth="yes"/>
      <point x="842" y="69"/>
      <point x="805" y="23"/>
      <point x="725" y="23" type="curve" smooth="yes"/>
      <point x="654" y="23"/>
      <point x="609" y="69"/>
      <point x="609" y="167" type="curve" smooth="yes"/>
      <point x="609" y="270" type="line"/>
      <point x="690" y="274" type="line"/>
      <point x="690" y="292" type="line"/>
      <point x="499" y="292" type="line"/>
      <point x="499" y="274" type="line"/>
      <point x="583" y="269" type="line"/>
      <point x="583" y="185" type="line"/>
      <point x="561" y="83"/>
      <point x="485" y="13"/>
      <point x="362" y="13" type="curve" smooth="yes"/>
      <point x="175" y="13"/>
      <point x="97" y="153"/>
      <point x="97" y="350" type="curve" smooth="yes"/>
      <point x="97" y="553"/>
      <point x="196" y="702"/>
      <point x="393" y="702" type="curve" smooth="yes"/>
      <point x="515" y="702"/>
      <point x="583" y="640"/>
      <point x="594" y="585" type="curve"/>
      <point x="574" y="584"/>
      <point x="567" y="574"/>
      <point x="567" y="560" type="curve" smooth="yes"/>
      <point x="567" y="544"/>
      <point x="579" y="535"/>
      <point x="593" y="535" type="curve" smooth="yes"/>
      <point x="607" y="535"/>
      <point x="622" y="546"/>
      <point x="622" y="571" type="curve" smooth="yes"/>
      <point x="622" y="639"/>
      <point x="543" y="724"/>
      <point x="393" y="724" type="curve" smooth="yes"/>
      <point x="181" y="724"/>
      <point x="70" y="566"/>
      <point x="70" y="350" type="curve" smooth="yes"/>
      <point x="70" y="135"/>
      <point x="159" y="-10"/>
    </contour>
  </outline>
</glyph>
<glyph name="uni13EA" format="2">
  <advance width="1046"/>
  <unicode hex="13EA"/>
  <note>
uni13EA
</note>
  <anchor x="523" y="0" name="bottom"/>
  <anchor x="622" y="714" name="top"/>
  <outline>
    <contour>
      <point x="223" y="-10" type="curve" smooth="yes"/>
      <point x="310" y="-10"/>
      <point x="357" y="29"/>
      <point x="406" y="79" type="curve"/>
      <point x="458" y="32"/>
      <point x="518" y="-10"/>
      <point x="619" y="-10" type="curve" smooth="yes"/>
      <point x="884" y="-10"/>
      <point x="986" y="283"/>
      <point x="986" y="504" type="curve" smooth="yes"/>
      <point x="986" y="641"/>
      <point x="941" y="717"/>
      <point x="845" y="717" type="curve" smooth="yes"/>
      <point x="746" y="717"/>
      <point x="699" y="628"/>
      <point x="699" y="500" type="curve" smooth="yes"/>
      <point x="699" y="353"/>
      <point x="766" y="237"/>
      <point x="864" y="158" type="curve"/>
      <point x="811" y="73"/>
      <point x="726" y="16"/>
      <point x="622" y="16" type="curve" smooth="yes"/>
      <point x="536" y="16"/>
      <point x="477" y="51"/>
      <point x="425" y="101" type="curve"/>
      <point x="518" y="222"/>
      <point x="564" y="356"/>
      <point x="564" y="515" type="curve" smooth="yes"/>
      <point x="564" y="651"/>
      <point x="514" y="726"/>
      <point x="413" y="726" type="curve" smooth="yes"/>
      <point x="303" y="726"/>
      <point x="246" y="637"/>
      <point x="246" y="500" type="curve" smooth="yes"/>
      <point x="246" y="354"/>
      <point x="297" y="202"/>
      <point x="387" y="97" type="curve"/>
      <point x="336" y="41"/>
      <point x="293" y="16"/>
      <point x="226" y="16" type="curve" smooth="yes"/>
      <point x="138" y="16"/>
      <point x="86" y="75"/>
      <point x="86" y="191" type="curve" smooth="yes"/>
      <point x="86" y="211"/>
      <point x="87" y="227"/>
      <point x="89" y="248" type="curve"/>
      <point x="62" y="248" type="line"/>
      <point x="60" y="227"/>
      <point x="59" y="211"/>
      <point x="59" y="191" type="curve" smooth="yes"/>
      <point x="59" y="63"/>
      <point x="116" y="-10"/>
    </contour>
    <contour>
      <point x="405" y="119" type="curve"/>
      <point x="321" y="220"/>
      <point x="273" y="362"/>
      <point x="273" y="500" type="curve" smooth="yes"/>
      <point x="273" y="632"/>
      <point x="326" y="701"/>
      <point x="413" y="701" type="curve" smooth="yes"/>
      <point x="489" y="701"/>
      <point x="537" y="638"/>
      <point x="537" y="513" type="curve" smooth="yes"/>
      <point x="537" y="364"/>
      <point x="494" y="236"/>
    </contour>
    <contour>
      <point x="879" y="181" type="curve"/>
      <point x="786" y="256"/>
      <point x="726" y="364"/>
      <point x="726" y="500" type="curve" smooth="yes"/>
      <point x="726" y="623"/>
      <point x="769" y="692"/>
      <point x="845" y="692" type="curve" smooth="yes"/>
      <point x="916" y="692"/>
      <point x="959" y="628"/>
      <point x="959" y="502" type="curve" smooth="yes"/>
      <point x="959" y="355"/>
      <point x="918" y="250"/>
    </contour>
  </outline>
</glyph>
<glyph name="uni13EB" format="2">
  <advance width="760"/>
  <unicode hex="13EB"/>
  <note>
uni13EB
</note>
  <anchor x="380" y="0" name="bottom"/>
  <anchor x="380" y="714" name="top"/>
  <outline>
    <contour>
      <point x="383" y="-10" type="curve" smooth="yes"/>
      <point x="594" y="-10"/>
      <point x="697" y="143"/>
      <point x="697" y="358" type="curve" smooth="yes"/>
      <point x="697" y="590"/>
      <point x="586" y="725"/>
      <point x="389" y="725" type="curve" smooth="yes"/>
      <point x="184" y="725"/>
      <point x="70" y="574"/>
      <point x="70" y="359" type="curve" smooth="yes"/>
      <point x="70" y="143"/>
      <point x="175" y="-10"/>
    </contour>
    <contour>
      <point x="384" y="13" type="curve" smooth="yes"/>
      <point x="189" y="13"/>
      <point x="97" y="159"/>
      <point x="97" y="359" type="curve" smooth="yes"/>
      <point x="97" y="386"/>
      <point x="99" y="411"/>
      <point x="102" y="436" type="curve"/>
      <point x="364" y="436" type="line"/>
      <point x="382" y="256" type="line"/>
      <point x="661" y="256" type="line"/>
      <point x="635" y="110"/>
      <point x="545" y="13"/>
    </contour>
    <contour>
      <point x="403" y="279" type="line"/>
      <point x="385" y="459" type="line"/>
      <point x="106" y="459" type="line"/>
      <point x="134" y="603"/>
      <point x="228" y="702"/>
      <point x="389" y="702" type="curve" smooth="yes"/>
      <point x="569" y="702"/>
      <point x="670" y="575"/>
      <point x="670" y="358" type="curve" smooth="yes"/>
      <point x="670" y="331"/>
      <point x="668" y="304"/>
      <point x="665" y="279" type="curve"/>
    </contour>
  </outline>
</glyph>
<glyph name="uni13EC" format="2">
  <advance width="1060"/>
  <unicode hex="13EC"/>
  <note>
uni13EC
</note>
  <anchor x="530" y="0" name="bottom"/>
  <anchor x="530" y="714" name="top"/>
  <outline>
    <contour>
      <point x="554" y="-10" type="curve" smooth="yes"/>
      <point x="832" y="-10"/>
      <point x="995" y="187"/>
      <point x="995" y="448" type="curve" smooth="yes"/>
      <point x="995" y="628"/>
      <point x="908" y="713"/>
      <point x="788" y="713" type="curve" smooth="yes"/>
      <point x="671" y="713"/>
      <point x="612" y="633"/>
      <point x="612" y="545" type="curve" smooth="yes"/>
      <point x="612" y="438"/>
      <point x="687" y="390"/>
      <point x="757" y="387" type="curve"/>
      <point x="757" y="413" type="line"/>
      <point x="699" y="416"/>
      <point x="638" y="453"/>
      <point x="638" y="545" type="curve" smooth="yes"/>
      <point x="638" y="622"/>
      <point x="686" y="687"/>
      <point x="788" y="687" type="curve" smooth="yes"/>
      <point x="895" y="687"/>
      <point x="969" y="605"/>
      <point x="969" y="448" type="curve" smooth="yes"/>
      <point x="969" y="201"/>
      <point x="808" y="16"/>
      <point x="557" y="16" type="curve" smooth="yes"/>
      <point x="427" y="16"/>
      <point x="318" y="54"/>
      <point x="242" y="122" type="curve"/>
      <point x="354" y="200"/>
      <point x="449" y="324"/>
      <point x="449" y="505" type="curve" smooth="yes"/>
      <point x="449" y="649"/>
      <point x="386" y="726"/>
      <point x="284" y="726" type="curve" smooth="yes"/>
      <point x="161" y="726"/>
      <point x="85" y="629"/>
      <point x="85" y="451" type="curve" smooth="yes"/>
      <point x="85" y="175"/>
      <point x="257" y="-10"/>
    </contour>
    <contour>
      <point x="223" y="140" type="curve"/>
      <point x="151" y="216"/>
      <point x="112" y="322"/>
      <point x="112" y="451" type="curve" smooth="yes"/>
      <point x="112" y="618"/>
      <point x="178" y="701"/>
      <point x="284" y="701" type="curve" smooth="yes"/>
      <point x="363" y="701"/>
      <point x="422" y="640"/>
      <point x="422" y="503" type="curve" smooth="yes"/>
      <point x="422" y="332"/>
      <point x="331" y="212"/>
    </contour>
  </outline>
</glyph>
<glyph name="uni13ED" format="2">
  <advance width="600"/>
  <unicode hex="13ED"/>
  <note>
uni13ED
</note>
  <anchor x="300" y="0" name="bottom"/>
  <anchor x="300" y="714" name="top"/>
  <outline>
    <contour>
      <point x="279" y="-10" type="curve" smooth="yes"/>
      <point x="493" y="-10"/>
      <point x="540" y="276"/>
      <point x="540" y="401" type="curve" smooth="yes"/>
      <point x="540" y="632"/>
      <point x="455" y="726"/>
      <point x="322" y="726" type="curve" smooth="yes"/>
      <point x="216" y="726"/>
      <point x="131" y="654"/>
      <point x="131" y="530" type="curve" smooth="yes"/>
      <point x="131" y="398"/>
      <point x="213" y="310"/>
      <point x="486" y="216" type="curve"/>
      <point x="456" y="113"/>
      <point x="396" y="15"/>
      <point x="284" y="15" type="curve" smooth="yes"/>
      <point x="164" y="15"/>
      <point x="104" y="92"/>
      <point x="104" y="218" type="curve" smooth="yes"/>
      <point x="104" y="228"/>
      <point x="104" y="235"/>
      <point x="105" y="245" type="curve"/>
      <point x="78" y="245" type="line"/>
      <point x="77" y="235"/>
      <point x="77" y="228"/>
      <point x="77" y="218" type="curve" smooth="yes"/>
      <point x="77" y="83"/>
      <point x="142" y="-10"/>
    </contour>
    <contour>
      <point x="493" y="241" type="curve"/>
      <point x="238" y="328"/>
      <point x="158" y="411"/>
      <point x="158" y="530" type="curve" smooth="yes"/>
      <point x="158" y="639"/>
      <point x="230" y="701"/>
      <point x="320" y="701" type="curve" smooth="yes"/>
      <point x="434" y="701"/>
      <point x="513" y="620"/>
      <point x="513" y="401" type="curve" smooth="yes"/>
      <point x="513" y="360"/>
      <point x="508" y="301"/>
    </contour>
  </outline>
</glyph>
<glyph name="uni13EE" format="2">
  <advance width="575"/>
  <unicode hex="13EE"/>
  <note>
uni13EE
</note>
  <anchor x="288" y="0" name="bottom"/>
  <anchor x="288" y="714" name="top"/>
  <outline>
    <contour>
      <point x="290" y="-11" type="curve" smooth="yes"/>
      <point x="422" y="-11"/>
      <point x="500" y="70"/>
      <point x="500" y="216" type="curve" smooth="yes"/>
      <point x="500" y="352"/>
      <point x="428" y="436"/>
      <point x="294" y="436" type="curve" smooth="yes"/>
      <point x="189" y="436"/>
      <point x="129" y="377"/>
      <point x="110" y="321" type="curve"/>
      <point x="107" y="321" type="line"/>
      <point x="107" y="612"/>
      <point x="221" y="703"/>
      <point x="328" y="703" type="curve" smooth="yes"/>
      <point x="417" y="703"/>
      <point x="452" y="671"/>
      <point x="465" y="629" type="curve"/>
      <point x="445" y="628"/>
      <point x="439" y="617"/>
      <point x="439" y="603" type="curve" smooth="yes"/>
      <point x="439" y="587"/>
      <point x="450" y="579"/>
      <point x="464" y="579" type="curve" smooth="yes"/>
      <point x="478" y="579"/>
      <point x="491" y="589"/>
      <point x="491" y="609" type="curve" smooth="yes"/>
      <point x="491" y="661"/>
      <point x="458" y="724"/>
      <point x="330" y="724" type="curve" smooth="yes"/>
      <point x="200" y="724"/>
      <point x="80" y="622"/>
      <point x="80" y="282" type="curve" smooth="yes"/>
      <point x="80" y="93"/>
      <point x="137" y="-11"/>
    </contour>
    <contour>
      <point x="291" y="13" type="curve" smooth="yes"/>
      <point x="168" y="13"/>
      <point x="109" y="103"/>
      <point x="109" y="236" type="curve" smooth="yes"/>
      <point x="109" y="311"/>
      <point x="166" y="412"/>
      <point x="295" y="412" type="curve" smooth="yes"/>
      <point x="408" y="412"/>
      <point x="474" y="341"/>
      <point x="474" y="214" type="curve" smooth="yes"/>
      <point x="474" y="81"/>
      <point x="405" y="13"/>
    </contour>
  </outline>
</glyph>
<glyph name="uni13EF" format="2">
  <advance width="1043"/>
  <unicode hex="13EF"/>
  <note>
uni13EF
</note>
  <anchor x="522" y="0" name="bottom"/>
  <anchor x="597" y="714" name="top"/>
  <outline>
    <contour>
      <point x="270" y="-10" type="curve" smooth="yes"/>
      <point x="360" y="-10"/>
      <point x="453" y="37"/>
      <point x="492" y="155" type="curve"/>
      <point x="494" y="155" type="line"/>
      <point x="533" y="40"/>
      <point x="602" y="-10"/>
      <point x="701" y="-10" type="curve" smooth="yes"/>
      <point x="879" y="-10"/>
      <point x="977" y="125"/>
      <point x="977" y="346" type="curve" smooth="yes"/>
      <point x="977" y="583"/>
      <point x="829" y="724"/>
      <point x="603" y="724" type="curve" smooth="yes"/>
      <point x="477" y="724"/>
      <point x="390" y="680"/>
      <point x="345" y="644" type="curve"/>
      <point x="361" y="622" type="line"/>
      <point x="409" y="660"/>
      <point x="489" y="699"/>
      <point x="602" y="699" type="curve" smooth="yes"/>
      <point x="809" y="699"/>
      <point x="950" y="567"/>
      <point x="950" y="346" type="curve" smooth="yes"/>
      <point x="950" y="135"/>
      <point x="857" y="15"/>
      <point x="701" y="15" type="curve" smooth="yes"/>
      <point x="611" y="15"/>
      <point x="544" y="64"/>
      <point x="507" y="193" type="curve"/>
      <point x="535" y="307"/>
      <point x="576" y="363"/>
      <point x="610" y="364" type="curve"/>
      <point x="635" y="349"/>
      <point x="661" y="340"/>
      <point x="692" y="340" type="curve" smooth="yes"/>
      <point x="709" y="340"/>
      <point x="725" y="343"/>
      <point x="733" y="346" type="curve"/>
      <point x="731" y="368" type="line"/>
      <point x="724" y="366"/>
      <point x="710" y="363"/>
      <point x="695" y="363" type="curve" smooth="yes"/>
      <point x="645" y="363"/>
      <point x="630" y="386"/>
      <point x="608" y="386" type="curve" smooth="yes"/>
      <point x="568" y="386"/>
      <point x="531" y="349"/>
      <point x="495" y="237" type="curve"/>
      <point x="493" y="237" type="line"/>
      <point x="459" y="352"/>
      <point x="426" y="391"/>
      <point x="372" y="391" type="curve" smooth="yes"/>
      <point x="342" y="391"/>
      <point x="314" y="382"/>
      <point x="294" y="372" type="curve"/>
      <point x="296" y="351" type="line"/>
      <point x="324" y="361"/>
      <point x="349" y="368"/>
      <point x="369" y="369" type="curve"/>
      <point x="410" y="366"/>
      <point x="446" y="337"/>
      <point x="481" y="193" type="curve"/>
      <point x="445" y="61"/>
      <point x="357" y="15"/>
      <point x="272" y="15" type="curve" smooth="yes"/>
      <point x="161" y="15"/>
      <point x="86" y="87"/>
      <point x="86" y="232" type="curve" smooth="yes"/>
      <point x="86" y="295"/>
      <point x="102" y="349"/>
      <point x="114" y="377" type="curve"/>
      <point x="87" y="377" type="line"/>
      <point x="75" y="348"/>
      <point x="59" y="293"/>
      <point x="59" y="230" type="curve" smooth="yes"/>
      <point x="59" y="75"/>
      <point x="138" y="-10"/>
    </contour>
  </outline>
</glyph>
<glyph name="uni13F0" format="2">
  <advance width="739"/>
  <unicode hex="13F0"/>
  <note>
uni13F0
</note>
  <anchor x="510" y="0" name="bottom"/>
  <anchor x="480" y="714" name="top"/>
  <outline>
    <contour>
      <point x="274" y="-251" type="line"/>
      <point x="300" y="-251" type="line"/>
      <point x="300" y="8" type="line"/>
      <point x="329" y="3"/>
      <point x="373" y="-2"/>
      <point x="420" y="-2" type="curve" smooth="yes"/>
      <point x="583" y="-2"/>
      <point x="677" y="70"/>
      <point x="677" y="194" type="curve" smooth="yes"/>
      <point x="677" y="292"/>
      <point x="634" y="352"/>
      <point x="494" y="387" type="curve"/>
      <point x="494" y="392" type="line"/>
      <point x="546" y="421" type="line" smooth="yes"/>
      <point x="620" y="462"/>
      <point x="663" y="503"/>
      <point x="663" y="580" type="curve" smooth="yes"/>
      <point x="663" y="666"/>
      <point x="603" y="727"/>
      <point x="486" y="727" type="curve" smooth="yes"/>
      <point x="346" y="727"/>
      <point x="274" y="643"/>
      <point x="274" y="502" type="curve" smooth="yes"/>
      <point x="274" y="41" type="line"/>
      <point x="152" y="71"/>
      <point x="78" y="152"/>
      <point x="72" y="286" type="curve"/>
      <point x="45" y="286" type="line"/>
      <point x="52" y="138"/>
      <point x="131" y="48"/>
      <point x="274" y="15" type="curve"/>
    </contour>
    <contour>
      <point x="423" y="23" type="curve" smooth="yes"/>
      <point x="374" y="23"/>
      <point x="331" y="28"/>
      <point x="300" y="34" type="curve"/>
      <point x="300" y="496" type="line" smooth="yes"/>
      <point x="300" y="627"/>
      <point x="359" y="703"/>
      <point x="487" y="703" type="curve" smooth="yes"/>
      <point x="585" y="703"/>
      <point x="637" y="652"/>
      <point x="637" y="578" type="curve" smooth="yes"/>
      <point x="637" y="514"/>
      <point x="602" y="476"/>
      <point x="501" y="423" type="curve" smooth="yes"/>
      <point x="477" y="410"/>
      <point x="468" y="404"/>
      <point x="468" y="387" type="curve" smooth="yes"/>
      <point x="468" y="372"/>
      <point x="478" y="366"/>
      <point x="506" y="358" type="curve" smooth="yes"/>
      <point x="607" y="329"/>
      <point x="651" y="282"/>
      <point x="651" y="189" type="curve" smooth="yes"/>
      <point x="651" y="84"/>
      <point x="565" y="23"/>
    </contour>
  </outline>
</glyph>
<glyph name="uni13F1" format="2">
  <advance width="824"/>
  <unicode hex="13F1"/>
  <note>
uni13F1
</note>
  <anchor x="544" y="0" name="bottom"/>
  <anchor x="430" y="714" name="top"/>
  <outline>
    <contour>
      <point x="549" y="-11" type="curve" smooth="yes"/>
      <point x="679" y="-11"/>
      <point x="765" y="74"/>
      <point x="765" y="227" type="curve" smooth="yes"/>
      <point x="765" y="408"/>
      <point x="645" y="505"/>
      <point x="441" y="546" type="curve"/>
      <point x="441" y="691" type="line"/>
      <point x="524" y="696" type="line"/>
      <point x="524" y="714" type="line"/>
      <point x="332" y="714" type="line"/>
      <point x="332" y="696" type="line"/>
      <point x="415" y="691" type="line"/>
      <point x="415" y="567" type="line"/>
      <point x="395" y="507"/>
      <point x="292" y="396"/>
      <point x="169" y="326" type="curve"/>
      <point x="186" y="307" type="line"/>
      <point x="279" y="364"/>
      <point x="373" y="447"/>
      <point x="422" y="524" type="curve"/>
      <point x="618" y="485"/>
      <point x="739" y="403"/>
      <point x="739" y="226" type="curve" smooth="yes"/>
      <point x="739" y="90"/>
      <point x="666" y="15"/>
      <point x="549" y="15" type="curve" smooth="yes"/>
      <point x="449" y="15"/>
      <point x="403" y="76"/>
      <point x="403" y="142" type="curve" smooth="yes"/>
      <point x="403" y="225"/>
      <point x="457" y="256"/>
      <point x="515" y="259" type="curve"/>
      <point x="515" y="285" type="line"/>
      <point x="449" y="282"/>
      <point x="377" y="240"/>
      <point x="377" y="142" type="curve" smooth="yes"/>
      <point x="377" y="62"/>
      <point x="430" y="-11"/>
    </contour>
    <contour>
      <point x="40" y="68" type="line"/>
      <point x="129" y="72"/>
      <point x="208" y="130"/>
      <point x="208" y="237" type="curve" smooth="yes"/>
      <point x="208" y="325"/>
      <point x="153" y="396"/>
      <point x="52" y="399" type="curve"/>
      <point x="52" y="373" type="line"/>
      <point x="139" y="372"/>
      <point x="182" y="310"/>
      <point x="182" y="237" type="curve" smooth="yes"/>
      <point x="182" y="144"/>
      <point x="119" y="98"/>
      <point x="40" y="94" type="curve"/>
    </contour>
  </outline>
</glyph>
<glyph name="uni13F2" format="2">
  <advance width="739"/>
  <unicode hex="13F2"/>
  <note>
uni13F2
</note>
  <anchor x="370" y="0" name="bottom"/>
  <anchor x="382" y="714" name="top"/>
  <outline>
    <contour>
      <point x="60" y="0" type="line"/>
      <point x="251" y="0" type="line"/>
      <point x="251" y="18" type="line"/>
      <point x="168" y="23" type="line"/>
      <point x="168" y="159" type="line" smooth="yes"/>
      <point x="168" y="304"/>
      <point x="235" y="410"/>
      <point x="386" y="410" type="curve" smooth="yes"/>
      <point x="512" y="410"/>
      <point x="571" y="340"/>
      <point x="571" y="211" type="curve" smooth="yes"/>
      <point x="571" y="23" type="line"/>
      <point x="488" y="18" type="line"/>
      <point x="488" y="0" type="line"/>
      <point x="679" y="0" type="line"/>
      <point x="679" y="18" type="line"/>
      <point x="597" y="23" type="line"/>
      <point x="597" y="216" type="line" smooth="yes"/>
      <point x="597" y="359"/>
      <point x="525" y="435"/>
      <point x="388" y="435" type="curve" smooth="yes"/>
      <point x="253" y="435"/>
      <point x="186" y="361"/>
      <point x="168" y="275" type="curve"/>
      <point x="166" y="276" type="line"/>
      <point x="167" y="284"/>
      <point x="168" y="306"/>
      <point x="168" y="325" type="curve" smooth="yes"/>
      <point x="168" y="443" type="line" smooth="yes"/>
      <point x="168" y="602"/>
      <point x="236" y="701"/>
      <point x="389" y="701" type="curve" smooth="yes"/>
      <point x="501" y="701"/>
      <point x="548" y="653"/>
      <point x="558" y="603" type="curve"/>
      <point x="538" y="602"/>
      <point x="532" y="591"/>
      <point x="532" y="577" type="curve" smooth="yes"/>
      <point x="532" y="561"/>
      <point x="543" y="553"/>
      <point x="557" y="553" type="curve" smooth="yes"/>
      <point x="571" y="553"/>
      <point x="584" y="563"/>
      <point x="584" y="583" type="curve" smooth="yes"/>
      <point x="584" y="665"/>
      <point x="507" y="725"/>
      <point x="388" y="725" type="curve" smooth="yes"/>
      <point x="223" y="725"/>
      <point x="142" y="618"/>
      <point x="142" y="447" type="curve" smooth="yes"/>
      <point x="142" y="23" type="line"/>
      <point x="60" y="18" type="line"/>
    </contour>
  </outline>
</glyph>
<glyph name="uni13F3" format="2">
  <advance width="817"/>
  <unicode hex="13F3"/>
  <note>
uni13F3
</note>
  <anchor x="362" y="0" name="bottom"/>
  <anchor x="373" y="714" name="top"/>
  <outline>
    <contour>
      <point x="361" y="-10" type="curve" smooth="yes"/>
      <point x="475" y="-10"/>
      <point x="549" y="44"/>
      <point x="583" y="128" type="curve"/>
      <point x="583" y="0" type="line"/>
      <point x="609" y="0" type="line"/>
      <point x="609" y="270" type="line"/>
      <point x="690" y="274" type="line"/>
      <point x="690" y="292" type="line"/>
      <point x="499" y="292" type="line"/>
      <point x="499" y="274" type="line"/>
      <point x="583" y="269" type="line"/>
      <point x="583" y="185" type="line"/>
      <point x="560" y="83"/>
      <point x="483" y="13"/>
      <point x="362" y="13" type="curve" smooth="yes"/>
      <point x="216" y="13"/>
      <point x="96" y="110"/>
      <point x="96" y="355" type="curve" smooth="yes"/>
      <point x="96" y="550"/>
      <point x="190" y="703"/>
      <point x="373" y="703" type="curve" smooth="yes"/>
      <point x="474" y="703"/>
      <point x="537" y="661"/>
      <point x="580" y="590" type="curve"/>
      <point x="582" y="590" type="line"/>
      <point x="651" y="675" type="line"/>
      <point x="716" y="592" type="line"/>
      <point x="719" y="592" type="line"/>
      <point x="789" y="685" type="line"/>
      <point x="777" y="695" type="line"/>
      <point x="774" y="695" type="line"/>
      <point x="718" y="618" type="line"/>
      <point x="653" y="703" type="line"/>
      <point x="651" y="703" type="line"/>
      <point x="584" y="620" type="line"/>
      <point x="542" y="680"/>
      <point x="486" y="724"/>
      <point x="373" y="724" type="curve" smooth="yes"/>
      <point x="179" y="724"/>
      <point x="70" y="563"/>
      <point x="70" y="354" type="curve" smooth="yes"/>
      <point x="70" y="93"/>
      <point x="202" y="-10"/>
    </contour>
  </outline>
</glyph>
<glyph name="uni13F4" format="2">
  <advance width="682"/>
  <unicode hex="13F4"/>
  <note>
uni13F4
</note>
  <anchor x="361" y="0" name="bottom"/>
  <anchor x="361" y="714" name="top"/>
  <outline>
    <contour>
      <point x="80" y="0" type="line"/>
      <point x="363" y="0" type="line" smooth="yes"/>
      <point x="509" y="0"/>
      <point x="617" y="56"/>
      <point x="617" y="203" type="curve" smooth="yes"/>
      <point x="617" y="293"/>
      <point x="576" y="357"/>
      <point x="458" y="375" type="curve"/>
      <point x="458" y="377" type="line"/>
      <point x="550" y="393"/>
      <point x="599" y="461"/>
      <point x="599" y="542" type="curve" smooth="yes"/>
      <point x="599" y="657"/>
      <point x="529" y="714"/>
      <point x="354" y="714" type="curve" smooth="yes"/>
      <point x="80" y="714" type="line"/>
      <point x="80" y="696" type="line"/>
      <point x="163" y="691" type="line"/>
      <point x="163" y="23" type="line"/>
      <point x="80" y="18" type="line"/>
    </contour>
    <contour>
      <point x="189" y="22" type="line"/>
      <point x="189" y="364" type="line"/>
      <point x="360" y="364" type="line" smooth="yes"/>
      <point x="503" y="364"/>
      <point x="590" y="325"/>
      <point x="590" y="202" type="curve" smooth="yes"/>
      <point x="590" y="79"/>
      <point x="507" y="22"/>
      <point x="371" y="22" type="curve" smooth="yes"/>
    </contour>
    <contour>
      <point x="189" y="386" type="line"/>
      <point x="189" y="692" type="line"/>
      <point x="351" y="692" type="line" smooth="yes"/>
      <point x="506" y="692"/>
      <point x="572" y="646"/>
      <point x="572" y="541" type="curve" smooth="yes"/>
      <point x="572" y="440"/>
      <point x="504" y="386"/>
      <point x="363" y="386" type="curve" smooth="yes"/>
    </contour>
  </outline>
</glyph>
<glyph name="uni13F5" format="2">
  <advance width="737"/>
  <unicode hex="13F5"/>
  <note>
uni13C0
</note>
  <anchor x="369" y="0" name="bottom"/>
  <anchor x="369" y="714" name="top"/>
  <outline>
    <contour>
      <point x="377" y="-10" type="curve" smooth="yes"/>
      <point x="474" y="-10"/>
      <point x="549" y="6"/>
      <point x="602" y="23" type="curve"/>
      <point x="602" y="270" type="line"/>
      <point x="683" y="274" type="line"/>
      <point x="683" y="292" type="line"/>
      <point x="492" y="292" type="line"/>
      <point x="492" y="274" type="line"/>
      <point x="576" y="269" type="line"/>
      <point x="576" y="40" type="line"/>
      <point x="530" y="27"/>
      <point x="475" y="13"/>
      <point x="378" y="13" type="curve" smooth="yes"/>
      <point x="183" y="13"/>
      <point x="90" y="113"/>
      <point x="90" y="264" type="curve" smooth="yes"/>
      <point x="90" y="473"/>
      <point x="255" y="634"/>
      <point x="600" y="694" type="curve"/>
      <point x="595" y="717" type="line"/>
      <point x="243" y="657"/>
      <point x="63" y="486"/>
      <point x="63" y="264" type="curve" smooth="yes"/>
      <point x="63" y="98"/>
      <point x="167" y="-10"/>
    </contour>
  </outline>
</glyph>
<glyph name="uni13F8" format="2">
  <advance width="576"/>
  <unicode hex="13F8"/>
  <anchor x="420" y="0" name="bottom"/>
  <anchor x="364" y="535" name="top"/>
  <outline>
    <contour>
      <point x="212" y="-190" type="line"/>
      <point x="238" y="-190" type="line"/>
      <point x="238" y="5" type="line"/>
      <point x="260" y="1"/>
      <point x="292" y="-2"/>
      <point x="327" y="-2" type="curve" smooth="yes"/>
      <point x="454" y="-2"/>
      <point x="528" y="52"/>
      <point x="528" y="145" type="curve" smooth="yes"/>
      <point x="528" y="212"/>
      <point x="496" y="255"/>
      <point x="389" y="281" type="curve"/>
      <point x="389" y="285" type="line"/>
      <point x="429" y="309" type="line" smooth="yes"/>
      <point x="482" y="341"/>
      <point x="518" y="378"/>
      <point x="518" y="436" type="curve" smooth="yes"/>
      <point x="518" y="501"/>
      <point x="471" y="548"/>
      <point x="375" y="548" type="curve" smooth="yes"/>
      <point x="269" y="548"/>
      <point x="212" y="483"/>
      <point x="212" y="377" type="curve" smooth="yes"/>
      <point x="212" y="35" type="line"/>
      <point x="121" y="58"/>
      <point x="66" y="119"/>
      <point x="61" y="216" type="curve"/>
      <point x="36" y="216" type="line"/>
      <point x="41" y="105"/>
      <point x="101" y="37"/>
      <point x="212" y="11" type="curve"/>
    </contour>
    <contour>
      <point x="330" y="21" type="curve" smooth="yes"/>
      <point x="294" y="21"/>
      <point x="261" y="25"/>
      <point x="238" y="29" type="curve"/>
      <point x="238" y="373" type="line" smooth="yes"/>
      <point x="238" y="469"/>
      <point x="283" y="525"/>
      <point x="376" y="525" type="curve" smooth="yes"/>
      <point x="454" y="525"/>
      <point x="492" y="487"/>
      <point x="492" y="434" type="curve" smooth="yes"/>
      <point x="492" y="386"/>
      <point x="464" y="353"/>
      <point x="389" y="310" type="curve" smooth="yes"/>
      <point x="370" y="299"/>
      <point x="364" y="293"/>
      <point x="364" y="280" type="curve" smooth="yes"/>
      <point x="364" y="268"/>
      <point x="372" y="262"/>
      <point x="394" y="256" type="curve" smooth="yes"/>
      <point x="470" y="235"/>
      <point x="503" y="202"/>
      <point x="503" y="142" type="curve" smooth="yes"/>
      <point x="503" y="65"/>
      <point x="438" y="21"/>
    </contour>
  </outline>
</glyph>
<glyph name="uni13F9" format="2">
  <advance width="638"/>
  <unicode hex="13F9"/>
  <anchor x="319" y="0" name="bottom"/>
  <anchor x="330" y="535" name="top"/>
  <outline>
    <contour>
      <point x="423" y="-8" type="curve" smooth="yes"/>
      <point x="525" y="-8"/>
      <point x="593" y="58"/>
      <point x="593" y="172" type="curve" smooth="yes"/>
      <point x="593" y="307"/>
      <point x="502" y="379"/>
      <point x="343" y="409" type="curve"/>
      <point x="343" y="514" type="line"/>
      <point x="408" y="518" type="line"/>
      <point x="408" y="535" type="line"/>
      <point x="254" y="535" type="line"/>
      <point x="254" y="518" type="line"/>
      <point x="318" y="514" type="line"/>
      <point x="318" y="426" type="line"/>
      <point x="304" y="381"/>
      <point x="228" y="300"/>
      <point x="131" y="246" type="curve"/>
      <point x="146" y="227" type="line"/>
      <point x="219" y="270"/>
      <point x="290" y="331"/>
      <point x="327" y="388" type="curve"/>
      <point x="476" y="361"/>
      <point x="567" y="302"/>
      <point x="567" y="171" type="curve" smooth="yes"/>
      <point x="567" y="73"/>
      <point x="511" y="16"/>
      <point x="423" y="16" type="curve" smooth="yes"/>
      <point x="350" y="16"/>
      <point x="314" y="59"/>
      <point x="314" y="108" type="curve" smooth="yes"/>
      <point x="314" y="166"/>
      <point x="353" y="190"/>
      <point x="397" y="192" type="curve"/>
      <point x="397" y="215" type="line"/>
      <point x="344" y="213"/>
      <point x="289" y="179"/>
      <point x="289" y="107" type="curve" smooth="yes"/>
      <point x="289" y="45"/>
      <point x="332" y="-8"/>
    </contour>
    <contour>
      <point x="32" y="51" type="line"/>
      <point x="103" y="54"/>
      <point x="163" y="99"/>
      <point x="163" y="178" type="curve" smooth="yes"/>
      <point x="163" y="245"/>
      <point x="120" y="297"/>
      <point x="41" y="300" type="curve"/>
      <point x="41" y="277" type="line"/>
      <point x="106" y="276"/>
      <point x="138" y="232"/>
      <point x="138" y="178" type="curve" smooth="yes"/>
      <point x="138" y="111"/>
      <point x="92" y="77"/>
      <point x="32" y="74" type="curve"/>
    </contour>
  </outline>
</glyph>
<glyph name="uni13FA" format="2">
  <advance width="576"/>
  <unicode hex="13FA"/>
  <anchor x="288" y="0" name="bottom"/>
  <anchor x="288" y="535" name="top"/>
  <outline>
    <contour>
      <point x="48" y="0" type="line"/>
      <point x="201" y="0" type="line"/>
      <point x="201" y="17" type="line"/>
      <point x="137" y="21" type="line"/>
      <point x="137" y="120" type="line" smooth="yes"/>
      <point x="137" y="228"/>
      <point x="188" y="303"/>
      <point x="301" y="303" type="curve" smooth="yes"/>
      <point x="395" y="303"/>
      <point x="439" y="251"/>
      <point x="439" y="156" type="curve" smooth="yes"/>
      <point x="439" y="21" type="line"/>
      <point x="375" y="17" type="line"/>
      <point x="375" y="0" type="line"/>
      <point x="528" y="0" type="line"/>
      <point x="528" y="17" type="line"/>
      <point x="465" y="21" type="line"/>
      <point x="465" y="160" type="line" smooth="yes"/>
      <point x="465" y="269"/>
      <point x="410" y="326"/>
      <point x="303" y="326" type="curve" smooth="yes"/>
      <point x="203" y="326"/>
      <point x="152" y="274"/>
      <point x="137" y="213" type="curve"/>
      <point x="135" y="213" type="line"/>
      <point x="136" y="221"/>
      <point x="137" y="238"/>
      <point x="137" y="254" type="curve" smooth="yes"/>
      <point x="137" y="332" type="line" smooth="yes"/>
      <point x="137" y="449"/>
      <point x="189" y="521"/>
      <point x="304" y="521" type="curve" smooth="yes"/>
      <point x="388" y="521"/>
      <point x="423" y="486"/>
      <point x="431" y="453" type="curve"/>
      <point x="415" y="451"/>
      <point x="410" y="442"/>
      <point x="410" y="431" type="curve" smooth="yes"/>
      <point x="410" y="417"/>
      <point x="420" y="410"/>
      <point x="432" y="410" type="curve" smooth="yes"/>
      <point x="446" y="410"/>
      <point x="456" y="419"/>
      <point x="456" y="437" type="curve" smooth="yes"/>
      <point x="456" y="494"/>
      <point x="402" y="543"/>
      <point x="303" y="543" type="curve" smooth="yes"/>
      <point x="175" y="543"/>
      <point x="111" y="463"/>
      <point x="111" y="332" type="curve" smooth="yes"/>
      <point x="111" y="21" type="line"/>
      <point x="48" y="17" type="line"/>
    </contour>
  </outline>
</glyph>
<glyph name="uni13FB" format="2">
  <advance width="633"/>
  <unicode hex="13FB"/>
  <anchor x="317" y="0" name="bottom"/>
  <anchor x="317" y="535" name="top"/>
  <outline>
    <contour>
      <point x="280" y="-8" type="curve" smooth="yes"/>
      <point x="366" y="-8"/>
      <point x="422" y="31"/>
      <point x="450" y="94" type="curve"/>
      <point x="450" y="0" type="line"/>
      <point x="475" y="0" type="line"/>
      <point x="475" y="201" type="line"/>
      <point x="537" y="204" type="line"/>
      <point x="537" y="221" type="line"/>
      <point x="385" y="221" type="line"/>
      <point x="385" y="204" type="line"/>
      <point x="450" y="200" type="line"/>
      <point x="450" y="141" type="line"/>
      <point x="433" y="66"/>
      <point x="373" y="15"/>
      <point x="281" y="15" type="curve" smooth="yes"/>
      <point x="169" y="15"/>
      <point x="81" y="88"/>
      <point x="81" y="265" type="curve" smooth="yes"/>
      <point x="81" y="411"/>
      <point x="153" y="521"/>
      <point x="289" y="521" type="curve" smooth="yes"/>
      <point x="365" y="521"/>
      <point x="413" y="491"/>
      <point x="447" y="434" type="curve"/>
      <point x="449" y="434" type="line"/>
      <point x="502" y="498" type="line"/>
      <point x="553" y="436" type="line"/>
      <point x="555" y="436" type="line"/>
      <point x="611" y="508" type="line"/>
      <point x="599" y="520" type="line"/>
      <point x="597" y="520" type="line"/>
      <point x="554" y="463" type="line"/>
      <point x="504" y="526" type="line"/>
      <point x="502" y="526" type="line"/>
      <point x="451" y="464" type="line"/>
      <point x="419" y="511"/>
      <point x="375" y="542"/>
      <point x="289" y="542" type="curve" smooth="yes"/>
      <point x="139" y="542"/>
      <point x="55" y="422"/>
      <point x="55" y="265" type="curve" smooth="yes"/>
      <point x="55" y="72"/>
      <point x="154" y="-8"/>
    </contour>
  </outline>
</glyph>
<glyph name="uni13FC" format="2">
  <advance width="534"/>
  <unicode hex="13FC"/>
  <anchor x="267" y="0" name="bottom"/>
  <anchor x="267" y="535" name="top"/>
  <outline>
    <contour>
      <point x="63" y="0" type="line"/>
      <point x="283" y="0" type="line" smooth="yes"/>
      <point x="401" y="0"/>
      <point x="482" y="43"/>
      <point x="482" y="152" type="curve" smooth="yes"/>
      <point x="482" y="220"/>
      <point x="450" y="268"/>
      <point x="360" y="281" type="curve"/>
      <point x="360" y="283" type="line"/>
      <point x="430" y="294"/>
      <point x="468" y="345"/>
      <point x="468" y="406" type="curve" smooth="yes"/>
      <point x="468" y="493"/>
      <point x="412" y="535"/>
      <point x="276" y="535" type="curve" smooth="yes"/>
      <point x="63" y="535" type="line"/>
      <point x="63" y="518" type="line"/>
      <point x="128" y="514" type="line"/>
      <point x="128" y="21" type="line"/>
      <point x="63" y="17" type="line"/>
    </contour>
    <contour>
      <point x="154" y="21" type="line"/>
      <point x="154" y="270" type="line"/>
      <point x="284" y="270" type="line" smooth="yes"/>
      <point x="392" y="270"/>
      <point x="455" y="240"/>
      <point x="455" y="152" type="curve" smooth="yes"/>
      <point x="455" y="62"/>
      <point x="394" y="21"/>
      <point x="288" y="21" type="curve" smooth="yes"/>
    </contour>
    <contour>
      <point x="154" y="291" type="line"/>
      <point x="154" y="514" type="line"/>
      <point x="273" y="514" type="line" smooth="yes"/>
      <point x="392" y="514"/>
      <point x="442" y="481"/>
      <point x="442" y="404" type="curve" smooth="yes"/>
      <point x="442" y="330"/>
      <point x="391" y="291"/>
      <point x="285" y="291" type="curve" smooth="yes"/>
    </contour>
  </outline>
</glyph>
<glyph name="uni13FD" format="2">
  <advance width="575"/>
  <unicode hex="13FD"/>
  <anchor x="288" y="0" name="bottom"/>
  <anchor x="288" y="535" name="top"/>
  <outline>
    <contour>
      <point x="292" y="-7" type="curve" smooth="yes"/>
      <point x="369" y="-7"/>
      <point x="428" y="6"/>
      <point x="470" y="19" type="curve"/>
      <point x="470" y="200" type="line"/>
      <point x="532" y="204" type="line"/>
      <point x="532" y="221" type="line"/>
      <point x="379" y="221" type="line"/>
      <point x="379" y="204" type="line"/>
      <point x="444" y="200" type="line"/>
      <point x="444" y="35" type="line"/>
      <point x="409" y="25"/>
      <point x="366" y="15"/>
      <point x="293" y="15" type="curve" smooth="yes"/>
      <point x="147" y="15"/>
      <point x="77" y="88"/>
      <point x="77" y="198" type="curve" smooth="yes"/>
      <point x="77" y="355"/>
      <point x="204" y="469"/>
      <point x="466" y="516" type="curve"/>
      <point x="461" y="538" type="line"/>
      <point x="189" y="492"/>
      <point x="50" y="366"/>
      <point x="50" y="198" type="curve" smooth="yes"/>
      <point x="50" y="74"/>
      <point x="130" y="-7"/>
    </contour>
  </outline>
</glyph>
<glyph name="uniAB70" format="2">
  <advance width="592"/>
  <unicode hex="AB70"/>
  <anchor x="296" y="0" name="bottom"/>
  <anchor x="296" y="535" name="top"/>
  <outline>
    <contour>
      <point x="63" y="0" type="line"/>
      <point x="247" y="0" type="line" smooth="yes"/>
      <point x="437" y="0"/>
      <point x="531" y="94"/>
      <point x="531" y="273" type="curve" smooth="yes"/>
      <point x="531" y="442"/>
      <point x="444" y="535"/>
      <point x="264" y="535" type="curve" smooth="yes"/>
      <point x="63" y="535" type="line"/>
      <point x="63" y="518" type="line"/>
      <point x="123" y="514" type="line"/>
      <point x="123" y="21" type="line"/>
      <point x="63" y="17" type="line"/>
    </contour>
    <contour>
      <point x="149" y="21" type="line"/>
      <point x="149" y="514" type="line"/>
      <point x="256" y="514" type="line" smooth="yes"/>
      <point x="429" y="514"/>
      <point x="504" y="429"/>
      <point x="504" y="272" type="curve" smooth="yes"/>
      <point x="504" y="104"/>
      <point x="420" y="21"/>
      <point x="248" y="21" type="curve" smooth="yes"/>
    </contour>
  </outline>
</glyph>
<glyph name="uniAB71" format="2">
  <advance width="541"/>
  <unicode hex="AB71"/>
  <anchor x="271" y="0" name="bottom"/>
  <anchor x="271" y="535" name="top"/>
  <outline>
    <contour>
      <point x="475" y="-4" type="curve" smooth="yes"/>
      <point x="492" y="-4"/>
      <point x="500" y="-2"/>
      <point x="508" y="1" type="curve"/>
      <point x="506" y="20" type="line"/>
      <point x="500" y="18"/>
      <point x="491" y="17"/>
      <point x="481" y="17" type="curve" smooth="yes"/>
      <point x="447" y="17"/>
      <point x="430" y="37"/>
      <point x="421" y="92" type="curve" smooth="yes"/>
      <point x="413" y="139" type="line" smooth="yes"/>
      <point x="399" y="223"/>
      <point x="364" y="246"/>
      <point x="331" y="257" type="curve"/>
      <point x="331" y="259" type="line"/>
      <point x="405" y="271"/>
      <point x="447" y="323"/>
      <point x="447" y="397" type="curve" smooth="yes"/>
      <point x="447" y="488"/>
      <point x="398" y="535"/>
      <point x="261" y="535" type="curve" smooth="yes"/>
      <point x="63" y="535" type="line"/>
      <point x="63" y="518" type="line"/>
      <point x="123" y="514" type="line"/>
      <point x="123" y="20" type="line"/>
      <point x="63" y="17" type="line"/>
      <point x="63" y="0" type="line"/>
      <point x="210" y="0" type="line"/>
      <point x="210" y="17" type="line"/>
      <point x="149" y="20" type="line"/>
      <point x="149" y="249" type="line"/>
      <point x="299" y="249" type="line"/>
      <point x="340" y="239"/>
      <point x="376" y="216"/>
      <point x="388" y="134" type="curve" smooth="yes"/>
      <point x="395" y="88" type="line" smooth="yes"/>
      <point x="405" y="24"/>
      <point x="428" y="-4"/>
    </contour>
    <contour>
      <point x="149" y="269" type="line"/>
      <point x="149" y="514" type="line"/>
      <point x="256" y="514" type="line" smooth="yes"/>
      <point x="381" y="514"/>
      <point x="420" y="475"/>
      <point x="420" y="396" type="curve" smooth="yes"/>
      <point x="420" y="313"/>
      <point x="367" y="269"/>
      <point x="272" y="269" type="curve" smooth="yes"/>
    </contour>
  </outline>
</glyph>
<glyph name="uniAB72" format="2">
  <advance width="480"/>
  <unicode hex="AB72"/>
  <anchor x="240" y="0" name="bottom"/>
  <anchor x="240" y="535" name="top"/>
  <outline>
    <contour>
      <point x="161" y="0" type="line"/>
      <point x="318" y="0" type="line"/>
      <point x="318" y="17" type="line"/>
      <point x="253" y="21" type="line"/>
      <point x="253" y="515" type="line"/>
      <point x="424" y="515" type="line"/>
      <point x="428" y="415" type="line"/>
      <point x="448" y="415" type="line"/>
      <point x="448" y="535" type="line"/>
      <point x="32" y="535" type="line"/>
      <point x="32" y="415" type="line"/>
      <point x="51" y="415" type="line"/>
      <point x="56" y="515" type="line"/>
      <point x="227" y="515" type="line"/>
      <point x="227" y="21" type="line"/>
      <point x="161" y="17" type="line"/>
    </contour>
  </outline>
</glyph>
<glyph name="uniAB73" format="2">
  <advance width="666"/>
  <unicode hex="AB73"/>
  <anchor x="333" y="0" name="bottom"/>
  <anchor x="363" y="535" name="top"/>
  <outline>
    <contour>
      <point x="425" y="-8" type="line"/>
      <point x="534" y="-2"/>
      <point x="614" y="60"/>
      <point x="614" y="178" type="curve" smooth="yes"/>
      <point x="614" y="293"/>
      <point x="526" y="370"/>
      <point x="376" y="409" type="curve"/>
      <point x="376" y="514" type="line"/>
      <point x="440" y="518" type="line"/>
      <point x="440" y="535" type="line"/>
      <point x="287" y="535" type="line"/>
      <point x="287" y="518" type="line"/>
      <point x="351" y="514" type="line"/>
      <point x="351" y="427" type="line"/>
      <point x="349" y="400"/>
      <point x="291" y="354"/>
      <point x="228" y="328" type="curve"/>
      <point x="218" y="329"/>
      <point x="213" y="329"/>
      <point x="201" y="329" type="curve" smooth="yes"/>
      <point x="114" y="329"/>
      <point x="52" y="265"/>
      <point x="52" y="167" type="curve" smooth="yes"/>
      <point x="52" y="65"/>
      <point x="108" y="7"/>
      <point x="198" y="7" type="curve" smooth="yes"/>
      <point x="285" y="7"/>
      <point x="346" y="68"/>
      <point x="346" y="170" type="curve" smooth="yes"/>
      <point x="346" y="256"/>
      <point x="304" y="300"/>
      <point x="257" y="318" type="curve"/>
      <point x="298" y="336"/>
      <point x="343" y="369"/>
      <point x="359" y="390" type="curve"/>
      <point x="501" y="354"/>
      <point x="589" y="287"/>
      <point x="589" y="177" type="curve" smooth="yes"/>
      <point x="589" y="74"/>
      <point x="520" y="22"/>
      <point x="425" y="14" type="curve"/>
    </contour>
    <contour>
      <point x="198" y="28" type="curve" smooth="yes"/>
      <point x="126" y="28"/>
      <point x="77" y="77"/>
      <point x="77" y="167" type="curve" smooth="yes"/>
      <point x="77" y="251"/>
      <point x="125" y="307"/>
      <point x="201" y="307" type="curve" smooth="yes"/>
      <point x="276" y="307"/>
      <point x="320" y="255"/>
      <point x="320" y="168" type="curve" smooth="yes"/>
      <point x="320" y="77"/>
      <point x="269" y="28"/>
    </contour>
  </outline>
</glyph>
<glyph name="uniAB74" format="2">
  <advance width="824"/>
  <unicode hex="AB74"/>
  <anchor x="275" y="0" name="bottom"/>
  <anchor x="279" y="535" name="top"/>
  <outline>
    <contour>
      <point x="274" y="-8" type="curve" smooth="yes"/>
      <point x="413" y="-8"/>
      <point x="495" y="92"/>
      <point x="497" y="272" type="curve"/>
      <point x="524" y="216"/>
      <point x="567" y="187"/>
      <point x="629" y="187" type="curve" smooth="yes"/>
      <point x="727" y="187"/>
      <point x="776" y="257"/>
      <point x="776" y="383" type="curve" smooth="yes"/>
      <point x="776" y="487"/>
      <point x="734" y="539"/>
      <point x="663" y="539" type="curve" smooth="yes"/>
      <point x="600" y="539"/>
      <point x="566" y="498"/>
      <point x="566" y="436" type="curve" smooth="yes"/>
      <point x="566" y="421"/>
      <point x="567" y="410"/>
      <point x="568" y="403" type="curve"/>
      <point x="592" y="403" type="line"/>
      <point x="591" y="411"/>
      <point x="591" y="422"/>
      <point x="591" y="431" type="curve" smooth="yes"/>
      <point x="591" y="485"/>
      <point x="613" y="516"/>
      <point x="663" y="516" type="curve" smooth="yes"/>
      <point x="719" y="516"/>
      <point x="751" y="473"/>
      <point x="751" y="383" type="curve" smooth="yes"/>
      <point x="751" y="267"/>
      <point x="711" y="210"/>
      <point x="628" y="210" type="curve" smooth="yes"/>
      <point x="555" y="210"/>
      <point x="509" y="262"/>
      <point x="489" y="354" type="curve" smooth="yes"/>
      <point x="463" y="475"/>
      <point x="390" y="543"/>
      <point x="279" y="543" type="curve" smooth="yes"/>
      <point x="135" y="543"/>
      <point x="55" y="432"/>
      <point x="55" y="269" type="curve" smooth="yes"/>
      <point x="55" y="104"/>
      <point x="129" y="-8"/>
    </contour>
    <contour>
      <point x="275" y="16" type="curve" smooth="yes"/>
      <point x="144" y="16"/>
      <point x="82" y="119"/>
      <point x="82" y="269" type="curve" smooth="yes"/>
      <point x="82" y="417"/>
      <point x="146" y="520"/>
      <point x="279" y="520" type="curve" smooth="yes"/>
      <point x="399" y="520"/>
      <point x="470" y="429"/>
      <point x="470" y="268" type="curve" smooth="yes"/>
      <point x="470" y="117"/>
      <point x="406" y="16"/>
    </contour>
  </outline>
</glyph>
<glyph name="uniAB75" format="2">
  <advance width="248"/>
  <unicode hex="AB75"/>
  <anchor x="124" y="0" name="bottom"/>
  <anchor x="124" y="535" name="top"/>
  <outline>
    <contour>
      <point x="47" y="0" type="line"/>
      <point x="201" y="0" type="line"/>
      <point x="201" y="17" type="line"/>
      <point x="137" y="21" type="line"/>
      <point x="137" y="349" type="line"/>
      <point x="111" y="349" type="line"/>
      <point x="111" y="21" type="line"/>
      <point x="47" y="17" type="line"/>
    </contour>
    <contour>
      <point x="124" y="454" type="curve" smooth="yes"/>
      <point x="136" y="454"/>
      <point x="143" y="462"/>
      <point x="143" y="476" type="curve" smooth="yes"/>
      <point x="143" y="489"/>
      <point x="136" y="497"/>
      <point x="124" y="497" type="curve" smooth="yes"/>
      <point x="111" y="497"/>
      <point x="104" y="490"/>
      <point x="104" y="476" type="curve" smooth="yes"/>
      <point x="104" y="462"/>
      <point x="111" y="454"/>
    </contour>
  </outline>
</glyph>
<glyph name="uniAB76" format="2">
  <advance width="449"/>
  <unicode hex="AB76"/>
  <anchor x="225" y="0" name="bottom"/>
  <anchor x="225" y="535" name="top"/>
  <outline>
    <contour>
      <point x="208" y="-8" type="curve" smooth="yes"/>
      <point x="311" y="-8"/>
      <point x="384" y="42"/>
      <point x="384" y="134" type="curve" smooth="yes"/>
      <point x="384" y="205"/>
      <point x="340" y="235"/>
      <point x="274" y="263" type="curve"/>
      <point x="274" y="265" type="line"/>
      <point x="293" y="264"/>
      <point x="309" y="263"/>
      <point x="330" y="263" type="curve" smooth="yes"/>
      <point x="405" y="263" type="line"/>
      <point x="405" y="284" type="line"/>
      <point x="230" y="284" type="line"/>
      <point x="150" y="315"/>
      <point x="96" y="336"/>
      <point x="96" y="412" type="curve" smooth="yes"/>
      <point x="96" y="483"/>
      <point x="153" y="522"/>
      <point x="238" y="522" type="curve" smooth="yes"/>
      <point x="320" y="522"/>
      <point x="357" y="487"/>
      <point x="365" y="453" type="curve"/>
      <point x="350" y="451"/>
      <point x="345" y="442"/>
      <point x="345" y="431" type="curve" smooth="yes"/>
      <point x="345" y="417"/>
      <point x="354" y="410"/>
      <point x="367" y="410" type="curve" smooth="yes"/>
      <point x="380" y="410"/>
      <point x="391" y="419"/>
      <point x="391" y="437" type="curve" smooth="yes"/>
      <point x="391" y="498"/>
      <point x="331" y="542"/>
      <point x="238" y="542" type="curve" smooth="yes"/>
      <point x="143" y="542"/>
      <point x="70" y="498"/>
      <point x="70" y="410" type="curve" smooth="yes"/>
      <point x="70" y="339"/>
      <point x="112" y="310"/>
      <point x="173" y="284" type="curve"/>
      <point x="173" y="282" type="line"/>
      <point x="156" y="283"/>
      <point x="137" y="284"/>
      <point x="116" y="284" type="curve" smooth="yes"/>
      <point x="44" y="284" type="line"/>
      <point x="44" y="263" type="line"/>
      <point x="218" y="263" type="line"/>
      <point x="306" y="229"/>
      <point x="357" y="203"/>
      <point x="357" y="135" type="curve" smooth="yes"/>
      <point x="357" y="52"/>
      <point x="294" y="14"/>
      <point x="208" y="14" type="curve" smooth="yes"/>
      <point x="126" y="14"/>
      <point x="89" y="47"/>
      <point x="80" y="82" type="curve"/>
      <point x="96" y="84"/>
      <point x="101" y="92"/>
      <point x="101" y="104" type="curve" smooth="yes"/>
      <point x="101" y="117"/>
      <point x="92" y="124"/>
      <point x="79" y="124" type="curve" smooth="yes"/>
      <point x="66" y="124"/>
      <point x="55" y="115"/>
      <point x="55" y="98" type="curve" smooth="yes"/>
      <point x="55" y="36"/>
      <point x="114" y="-8"/>
    </contour>
  </outline>
</glyph>
